M48
; DRILL file {KiCad (5.1.5)-3} date 2020-05-26 7:58:30 AM
; FORMAT={-:-/ absolute / inch / decimal}
; #@! TF.CreationDate,2020-05-26T07:58:30-06:00
; #@! TF.GenerationSoftware,Kicad,Pcbnew,(5.1.5)-3
FMAT,2
INCH
T1C0.0094
T2C0.0118
T3C0.0157
T4C0.0354
T5C0.0394
T6C0.0591
T7C0.0787
T8C0.0949
T9C0.0689
T10C0.1181
T11C0.1200
T12C0.1570
T13C0.1693
%
G90
G05
T1
X2.0951Y-2.2439
X2.0951Y-2.3227
X2.1148Y-2.2833
X2.1148Y-2.618
X2.1148Y-2.6573
X2.1148Y-2.6967
X2.1148Y-2.7361
X2.1148Y-2.7754
X2.1344Y-2.2439
X2.1344Y-2.3227
X2.1541Y-2.2833
X2.1541Y-2.618
X2.1541Y-2.6573
X2.1541Y-2.6967
X2.1541Y-2.7361
X2.1541Y-2.7754
X2.1935Y-2.618
X2.1935Y-2.6573
X2.1935Y-2.6967
X2.1935Y-2.7361
X2.1935Y-2.7754
X2.2329Y-2.618
X2.2329Y-2.6573
X2.2329Y-2.6967
X2.2329Y-2.7361
X2.2329Y-2.7754
X2.2722Y-2.618
X2.2722Y-2.6573
X2.2722Y-2.6967
X2.2722Y-2.7361
X2.2722Y-2.7754
X3.2087Y-2.8542
X3.2171Y-2.8148
X3.248Y-2.815
X3.248Y-2.8542
X3.6377Y-2.0597
X3.6377Y-2.0987
X3.6377Y-2.1381
X3.6575Y-2.462
X3.6575Y-2.5014
X3.6771Y-2.0594
X3.6771Y-2.0987
X3.6771Y-2.1381
X3.6969Y-2.5014
T2
X1.6732Y-2.5984
X1.74Y-2.68
X1.7717Y-2.7822
X1.8006Y-2.7299
X1.83Y-2.7
X1.8504Y-2.6181
X1.92Y-2.83
X1.9411Y-2.5811
X1.95Y-2.0
X1.975Y-1.975
X1.9919Y-2.2839
X1.9974Y-2.4305
X2.01Y-2.56
X2.0118Y-2.92
X2.0416Y-2.3862
X2.05Y-2.92
X2.07Y-2.4946
X2.08Y-2.93
X2.0855Y-2.4446
X2.1616Y-2.47
X2.197Y-2.346
X2.2Y-2.12
X2.2093Y-2.4708
X2.225Y-1.95
X2.23Y-2.4471
X2.2441Y-2.1063
X2.3031Y-2.2047
X2.3031Y-2.3819
X2.3425Y-2.5427
X2.35Y-2.36
X2.3622Y-2.1654
X2.37Y-2.5227
X2.4Y-3.53
X2.44Y-2.88
X2.4409Y-2.2835
X2.47Y-2.35
X2.4717Y-2.3831
X2.4724Y-2.4172
X2.4725Y-2.4519
X2.4728Y-2.4864
X2.4796Y-2.5394
X2.4803Y-2.7972
X2.5Y-2.874
X2.5197Y-2.1654
X2.52Y-3.53
X2.522Y-2.472
X2.53Y-3.3
X2.5348Y-2.5008
X2.5523Y-2.5282
X2.57Y-2.5546
X2.5787Y-2.1063
X2.5859Y-2.6218
X2.5878Y-2.581
X2.6Y-2.65
X2.64Y-3.73
X2.65Y-6.12
X2.6575Y-1.7717
X2.71Y-2.72
X2.71Y-2.77
X2.7165Y-1.7717
X2.7508Y-2.2587
X2.78Y-2.5354
X2.81Y-4.49
X2.815Y-2.9025
X2.83Y-5.86
X2.874Y-2.0276
X2.8937Y-2.7559
X2.92Y-5.25
X2.94Y-2.17
X2.95Y-2.54
X2.98Y-2.17
X2.9878Y-2.612
X3.11Y-2.56
X3.14Y-3.53
X3.28Y-3.29
X3.3073Y-1.8286
X3.31Y-1.86
X3.4482Y-2.2894
X3.51Y-2.61
X3.52Y-2.79
X3.58Y-3.74
X3.6Y-2.04
X3.62Y-2.6844
X3.62Y-6.12
X3.65Y-2.71
X3.6596Y-2.02
X3.66Y-2.2253
X3.67Y-2.6844
X3.7449Y-2.2208
X3.75Y-2.6527
X3.7543Y-2.304
X3.76Y-4.48
X3.764Y-2.42
X3.77Y-2.05
X3.7854Y-2.643
X3.7933Y-2.2881
X3.81Y-2.69
X3.82Y-2.83
X3.86Y-2.16
X4.01Y-3.25
X4.13Y-5.24
X4.32Y-3.74
X4.43Y-4.48
X4.59Y-4.76
X4.65Y-5.88
X4.7Y-6.13
X4.77Y-3.27
X4.78Y-3.58
X4.88Y-5.23
X5.07Y-3.75
X5.27Y-4.49
X5.53Y-3.26
X5.64Y-5.24
X5.82Y-3.75
X6.02Y-4.49
X6.15Y-2.88
X6.39Y-5.25
X6.58Y-3.75
X6.77Y-4.49
X6.85Y-2.86
X6.92Y-5.88
X6.95Y-3.56
X7.01Y-5.22
X7.23Y-6.0
X7.32Y-3.74
X7.51Y-4.49
X7.66Y-2.85
X7.87Y-5.24
X8.07Y-3.75
X8.26Y-4.49
X8.39Y-2.83
X8.63Y-5.24
X8.63Y-5.9
X8.65Y-3.73
X8.91Y-3.55
X9.01Y-4.48
X9.1Y-2.82
X9.39Y-5.24
X9.57Y-3.75
X9.68Y-4.48
X9.82Y-2.8
X9.94Y-5.98
X10.14Y-5.23
X10.25Y-3.75
X10.43Y-4.48
X10.64Y-3.56
X10.65Y-2.79
X10.69Y-5.9
X10.69Y-5.99
X10.89Y-5.23
X10.98Y-3.75
X11.26Y-4.47
X11.4Y-2.77
X11.44Y-5.98
X11.74Y-3.76
X11.91Y-5.11
X12.21Y-5.99
X12.38Y-4.5
X12.45Y-2.75
X12.65Y-5.89
X12.74Y-3.5
X12.93Y-3.99
X12.93Y-5.23
X12.93Y-5.73
X13.0Y-5.77
X13.01Y-4.27
X13.01Y-5.02
X13.04Y-6.02
X13.08Y-4.27
X13.09Y-5.02
X13.54Y-2.7
T3
X1.675Y-2.175
X1.675Y-2.3
X1.7384Y-2.7362
X1.8Y-1.75
X1.85Y-2.201
X1.89Y-2.66
X2.0Y-3.03
X2.325Y-1.775
X2.52Y-2.23
X2.63Y-2.9794
X2.64Y-5.81
X2.69Y-2.84
X2.79Y-3.65
X2.94Y-1.94
X3.02Y-1.74
X3.0512Y-2.7953
X3.0512Y-2.8346
X3.0512Y-2.8937
X3.0906Y-2.9331
X3.0906Y-2.7756
X3.1Y-5.75
X3.1299Y-2.7756
X3.1299Y-2.9134
X3.2Y-3.64
X3.4055Y-2.8937
X3.48Y-2.3
X3.4843Y-2.7953
X3.4843Y-2.8937
X3.5039Y-2.8346
X3.52Y-2.06
X3.6Y-2.3
X3.6219Y-2.2233
X3.97Y-2.48
X4.02Y-2.07
X4.54Y-3.66
X4.55Y-5.85
X4.85Y-5.78
X4.97Y-3.64
X6.74Y-3.66
X6.84Y-5.85
X6.94Y-5.81
X7.16Y-3.64
X8.55Y-5.85
X8.73Y-5.85
X8.86Y-3.63
X9.16Y-3.64
X10.45Y-3.66
X10.62Y-5.84
X10.72Y-5.84
X10.74Y-3.62
X12.5Y-3.61
X12.51Y-3.52
X12.57Y-5.85
X12.68Y-5.84
T4
X4.27Y-2.0725
X4.27Y-2.1513
X4.27Y-2.23
T5
X2.6308Y-1.8467
X2.6308Y-1.9254
X2.7292Y-1.8467
X2.7292Y-1.9254
X3.435Y-1.71
X3.535Y-1.71
X3.635Y-1.71
X3.735Y-1.71
T6
X4.27Y-1.9898
X4.27Y-2.3127
T7
X3.1263Y-1.7297
X3.1263Y-2.6667
X4.0437Y-1.7297
X4.0437Y-2.6667
T8
X2.443Y-1.74
X2.917Y-1.74
T9
X3.895Y-4.07
X4.295Y-4.07
X2.4888Y-5.57
X2.8887Y-5.57
X3.7075Y-5.57
X4.1075Y-5.57
X2.3013Y-4.82
X2.7012Y-4.82
X5.02Y-3.32
X5.42Y-3.32
X7.645Y-4.07
X8.045Y-4.07
X10.4575Y-5.57
X10.8575Y-5.57
X8.2075Y-5.57
X8.6075Y-5.57
X13.27Y-5.57
X13.67Y-5.57
X6.895Y-4.07
X7.295Y-4.07
X2.2075Y-4.07
X2.6075Y-4.07
X4.0825Y-4.82
X4.4825Y-4.82
X5.5825Y-4.82
X5.9825Y-4.82
X3.0513Y-6.32
X3.4512Y-6.32
X7.27Y-3.32
X7.67Y-3.32
X2.02Y-3.32
X2.42Y-3.32
X8.9575Y-5.57
X9.3575Y-5.57
X11.395Y-4.07
X11.795Y-4.07
X8.395Y-4.07
X8.795Y-4.07
X7.4575Y-5.57
X7.8575Y-5.57
X4.8325Y-4.82
X5.2325Y-4.82
X6.3325Y-4.82
X6.7325Y-4.82
X4.4575Y-5.57
X4.8575Y-5.57
X6.52Y-3.32
X6.92Y-3.32
X8.02Y-3.32
X8.42Y-3.32
X12.0512Y-4.82
X12.4512Y-4.82
X7.8325Y-4.82
X8.2325Y-4.82
X12.52Y-6.32
X12.92Y-6.32
X10.0825Y-4.82
X10.4825Y-4.82
X11.77Y-6.32
X12.17Y-6.32
X4.645Y-4.07
X5.045Y-4.07
X5.2075Y-5.57
X5.6075Y-5.57
X2.1138Y-6.32
X2.5137Y-6.32
X13.27Y-3.32
X13.67Y-3.32
X4.27Y-3.32
X4.67Y-3.32
X12.3325Y-4.07
X12.7325Y-4.07
X8.5825Y-4.82
X8.9825Y-4.82
X13.27Y-4.07
X13.67Y-4.07
X7.0825Y-4.82
X7.4825Y-4.82
X10.645Y-4.07
X11.045Y-4.07
X5.9575Y-5.57
X6.3575Y-5.57
X3.145Y-4.07
X3.545Y-4.07
X5.77Y-3.32
X6.17Y-3.32
X2.77Y-3.32
X3.17Y-3.32
X13.27Y-4.82
X13.67Y-4.82
X13.27Y-6.32
X13.67Y-6.32
X12.52Y-5.57
X12.92Y-5.57
X6.7075Y-5.57
X7.1075Y-5.57
X11.4887Y-5.57
X11.8887Y-5.57
X5.395Y-4.07
X5.795Y-4.07
X3.3325Y-4.82
X3.7325Y-4.82
X11.02Y-3.32
X11.42Y-3.32
X8.77Y-3.32
X9.17Y-3.32
X10.27Y-3.32
X10.67Y-3.32
X9.7075Y-5.57
X10.1075Y-5.57
X9.895Y-4.07
X10.295Y-4.07
X10.27Y-6.32
X10.67Y-6.32
X3.9888Y-6.32
X4.3887Y-6.32
X6.8012Y-6.32
X7.2012Y-6.32
X9.52Y-6.32
X9.92Y-6.32
X12.145Y-3.32
X12.545Y-3.32
X9.52Y-3.32
X9.92Y-3.32
X3.52Y-3.32
X3.92Y-3.32
X11.02Y-6.32
X11.42Y-6.32
X9.145Y-4.07
X9.545Y-4.07
X10.8325Y-4.82
X11.2325Y-4.82
X9.3325Y-4.82
X9.7325Y-4.82
X6.145Y-4.07
X6.545Y-4.07
T10
X6.0075Y-5.47
X6.2575Y-5.37
X3.195Y-3.97
X3.445Y-3.87
X5.82Y-3.22
X6.07Y-3.12
X2.82Y-3.22
X3.07Y-3.12
X13.32Y-4.72
X13.57Y-4.62
X13.32Y-6.22
X13.57Y-6.12
X12.57Y-5.47
X12.82Y-5.37
X6.7575Y-5.47
X7.0075Y-5.37
X11.5388Y-5.47
X11.7888Y-5.37
X5.445Y-3.97
X5.695Y-3.87
X3.3825Y-4.72
X3.6325Y-4.62
X11.07Y-3.22
X11.32Y-3.12
X8.82Y-3.22
X9.07Y-3.12
X10.32Y-3.22
X10.57Y-3.12
X9.7575Y-5.47
X10.0075Y-5.37
X9.945Y-3.97
X10.195Y-3.87
X10.32Y-6.22
X10.57Y-6.12
X4.0388Y-6.22
X4.2888Y-6.12
X6.8513Y-6.22
X7.1012Y-6.12
X9.57Y-6.22
X9.82Y-6.12
X12.195Y-3.22
X12.445Y-3.12
X9.57Y-3.22
X9.82Y-3.12
X3.57Y-3.22
X3.82Y-3.12
X11.07Y-6.22
X11.32Y-6.12
X9.195Y-3.97
X9.445Y-3.87
X10.8825Y-4.72
X11.1325Y-4.62
X9.3825Y-4.72
X9.6325Y-4.62
X6.195Y-3.97
X6.445Y-3.87
X3.945Y-3.97
X4.195Y-3.87
X2.5387Y-5.47
X2.7887Y-5.37
X3.7575Y-5.47
X4.0075Y-5.37
X2.3512Y-4.72
X2.6012Y-4.62
X5.07Y-3.22
X5.32Y-3.12
X7.695Y-3.97
X7.945Y-3.87
X10.5075Y-5.47
X10.7575Y-5.37
X8.2575Y-5.47
X8.5075Y-5.37
X13.32Y-5.47
X13.57Y-5.37
X6.945Y-3.97
X7.195Y-3.87
X2.2575Y-3.97
X2.5075Y-3.87
X4.1325Y-4.72
X4.3825Y-4.62
X5.6325Y-4.72
X5.8825Y-4.62
X3.1012Y-6.22
X3.3512Y-6.12
X7.32Y-3.22
X7.57Y-3.12
X2.07Y-3.22
X2.32Y-3.12
X9.0075Y-5.47
X9.2575Y-5.37
X11.445Y-3.97
X11.695Y-3.87
X8.445Y-3.97
X8.695Y-3.87
X7.5075Y-5.47
X7.7575Y-5.37
X4.8825Y-4.72
X5.1325Y-4.62
X6.3825Y-4.72
X6.6325Y-4.62
X4.5075Y-5.47
X4.7575Y-5.37
X6.57Y-3.22
X6.82Y-3.12
X8.07Y-3.22
X8.32Y-3.12
X12.1013Y-4.72
X12.3513Y-4.62
X7.8825Y-4.72
X8.1325Y-4.62
X12.57Y-6.22
X12.82Y-6.12
X10.1325Y-4.72
X10.3825Y-4.62
X11.82Y-6.22
X12.07Y-6.12
X4.695Y-3.97
X4.945Y-3.87
X5.2575Y-5.47
X5.5075Y-5.37
X2.1637Y-6.22
X2.4137Y-6.12
X13.32Y-3.22
X13.57Y-3.12
X4.32Y-3.22
X4.57Y-3.12
X12.3825Y-3.97
X12.6325Y-3.87
X8.6325Y-4.72
X8.8825Y-4.62
X13.32Y-3.97
X13.57Y-3.87
X7.1325Y-4.72
X7.3825Y-4.62
X10.695Y-3.97
X10.945Y-3.87
T11
X5.0328Y-6.045
X8.9697Y-6.045
X11.875Y-3.045
X12.815Y-3.045
X2.2188Y-5.295
X3.1587Y-5.295
X11.7812Y-4.545
X12.7212Y-4.545
T12
X4.1887Y-6.32
X5.0328Y-6.645
X7.0012Y-6.32
X8.9697Y-6.645
X9.72Y-6.32
X11.875Y-3.645
X12.345Y-3.32
X12.815Y-3.645
X9.72Y-3.32
X3.72Y-3.32
X11.22Y-6.32
X9.345Y-4.07
X11.0325Y-4.82
X9.5325Y-4.82
X6.345Y-4.07
X4.095Y-4.07
X2.2188Y-5.895
X2.6887Y-5.57
X3.1587Y-5.895
X3.9075Y-5.57
X2.5012Y-4.82
X5.22Y-3.32
X7.845Y-4.07
X10.6575Y-5.57
X8.4075Y-5.57
X13.47Y-5.57
X7.095Y-4.07
X2.4075Y-4.07
X4.2825Y-4.82
X5.7825Y-4.82
X3.2512Y-6.32
X7.47Y-3.32
X2.22Y-3.32
X9.1575Y-5.57
X11.595Y-4.07
X8.595Y-4.07
X7.6575Y-5.57
X5.0325Y-4.82
X6.5325Y-4.82
X4.6575Y-5.57
X6.72Y-3.32
X8.22Y-3.32
X11.7812Y-5.145
X12.2512Y-4.82
X12.7212Y-5.145
X8.0325Y-4.82
X12.72Y-6.32
X10.2825Y-4.82
X11.97Y-6.32
X4.845Y-4.07
X5.4075Y-5.57
X2.3137Y-6.32
X13.47Y-3.32
X4.47Y-3.32
X12.5325Y-4.07
X8.7825Y-4.82
X13.47Y-4.07
X7.2825Y-4.82
X10.845Y-4.07
X6.1575Y-5.57
X3.345Y-4.07
X5.97Y-3.32
X2.97Y-3.32
X13.47Y-4.82
X13.47Y-6.32
X12.72Y-5.57
X6.9075Y-5.57
X11.6887Y-5.57
X5.595Y-4.07
X3.5325Y-4.82
X11.22Y-3.32
X8.97Y-3.32
X10.47Y-3.32
X9.9075Y-5.57
X10.095Y-4.07
X10.47Y-6.32
T13
X11.171Y-5.285
X3.011Y-4.873
X5.585Y-6.285
X11.798Y-3.315
T0
M30
