G04 #@! TF.GenerationSoftware,KiCad,Pcbnew,(5.1.5)-3*
G04 #@! TF.CreationDate,2020-05-26T07:58:25-06:00*
G04 #@! TF.ProjectId,keeb,6b656562-2e6b-4696-9361-645f70636258,rev?*
G04 #@! TF.SameCoordinates,Original*
G04 #@! TF.FileFunction,Legend,Bot*
G04 #@! TF.FilePolarity,Positive*
%FSLAX46Y46*%
G04 Gerber Fmt 4.6, Leading zero omitted, Abs format (unit mm)*
G04 Created by KiCad (PCBNEW (5.1.5)-3) date 2020-05-26 07:58:25*
%MOMM*%
%LPD*%
G04 APERTURE LIST*
%ADD10C,0.120000*%
%ADD11C,0.150000*%
G04 APERTURE END LIST*
D10*
X91207042Y-54559200D02*
G75*
G03X91207042Y-54559200I-71842J0D01*
G01*
X84069642Y-70739000D02*
G75*
G03X84069642Y-70739000I-71842J0D01*
G01*
X95144042Y-61823600D02*
G75*
G03X95144042Y-61823600I-71842J0D01*
G01*
X52141842Y-71983600D02*
G75*
G03X52141842Y-71983600I-71842J0D01*
G01*
X55697842Y-60198000D02*
G75*
G03X55697842Y-60198000I-71842J0D01*
G01*
X71176796Y-57404000D02*
G75*
G03X71176796Y-57404000I-56796J0D01*
G01*
D11*
G04 #@! TO.C,U7*
X83067000Y-73786000D02*
X81017000Y-73786000D01*
X83772000Y-70486000D02*
X81017000Y-70486000D01*
D10*
G04 #@! TO.C,D69*
X79088000Y-89198000D02*
X79088000Y-90948000D01*
X79088000Y-94698000D02*
X71788000Y-94698000D01*
X79088000Y-89198000D02*
X71788000Y-89198000D01*
G04 #@! TO.C,D83*
X317914000Y-151340000D02*
X317914000Y-149590000D01*
X317914000Y-145840000D02*
X325214000Y-145840000D01*
X317914000Y-151340000D02*
X325214000Y-151340000D01*
G04 #@! TO.C,D82*
X321912000Y-88690000D02*
X321912000Y-90440000D01*
X321912000Y-94190000D02*
X314612000Y-94190000D01*
X321912000Y-88690000D02*
X314612000Y-88690000D01*
G04 #@! TO.C,D81*
X273652000Y-88944000D02*
X273652000Y-90694000D01*
X273652000Y-94444000D02*
X266352000Y-94444000D01*
X273652000Y-88944000D02*
X266352000Y-88944000D01*
G04 #@! TO.C,D80*
X268130000Y-151340000D02*
X268130000Y-149590000D01*
X268130000Y-145840000D02*
X275430000Y-145840000D01*
X268130000Y-151340000D02*
X275430000Y-151340000D01*
G04 #@! TO.C,D79*
X216060000Y-151340000D02*
X216060000Y-149590000D01*
X216060000Y-145840000D02*
X223360000Y-145840000D01*
X216060000Y-151340000D02*
X223360000Y-151340000D01*
G04 #@! TO.C,D78*
X229710000Y-89198000D02*
X229710000Y-90948000D01*
X229710000Y-94698000D02*
X222410000Y-94698000D01*
X229710000Y-89198000D02*
X222410000Y-89198000D01*
G04 #@! TO.C,D77*
X172626000Y-151340000D02*
X172626000Y-149590000D01*
X172626000Y-145840000D02*
X179926000Y-145840000D01*
X172626000Y-151340000D02*
X179926000Y-151340000D01*
G04 #@! TO.C,D76*
X179418000Y-88944000D02*
X179418000Y-90694000D01*
X179418000Y-94444000D02*
X172118000Y-94444000D01*
X179418000Y-88944000D02*
X172118000Y-88944000D01*
G04 #@! TO.C,D75*
X114714000Y-151340000D02*
X114714000Y-149590000D01*
X114714000Y-145840000D02*
X122014000Y-145840000D01*
X114714000Y-151340000D02*
X122014000Y-151340000D01*
G04 #@! TO.C,D74*
X123792000Y-88690000D02*
X123792000Y-90440000D01*
X123792000Y-94190000D02*
X116492000Y-94190000D01*
X123792000Y-88690000D02*
X116492000Y-88690000D01*
G04 #@! TO.C,D73*
X69502000Y-151340000D02*
X69502000Y-149590000D01*
X69502000Y-145840000D02*
X76802000Y-145840000D01*
X69502000Y-151340000D02*
X76802000Y-151340000D01*
G04 #@! TO.C,U2*
X56228000Y-59297000D02*
X56228000Y-60022000D01*
X52008000Y-55802000D02*
X52733000Y-55802000D01*
X52008000Y-56527000D02*
X52008000Y-55802000D01*
X52008000Y-60022000D02*
X52733000Y-60022000D01*
X52008000Y-59297000D02*
X52008000Y-60022000D01*
X56228000Y-55802000D02*
X55503000Y-55802000D01*
X56228000Y-56527000D02*
X56228000Y-55802000D01*
G04 #@! TO.C,J5*
X77786000Y-62284000D02*
X77786000Y-57604000D01*
X84006000Y-56904000D02*
X84006000Y-58184000D01*
X85606000Y-56904000D02*
X84006000Y-56904000D01*
X85606000Y-55884000D02*
X85606000Y-56904000D01*
X81356000Y-55884000D02*
X85606000Y-55884000D01*
X84006000Y-61704000D02*
X86896000Y-61704000D01*
X84006000Y-62984000D02*
X84006000Y-61704000D01*
X85606000Y-62984000D02*
X84006000Y-62984000D01*
X85606000Y-64004000D02*
X85606000Y-62984000D01*
X81356000Y-64004000D02*
X85606000Y-64004000D01*
G04 #@! TO.C,J4*
X77786000Y-52886000D02*
X77786000Y-48206000D01*
X84006000Y-47506000D02*
X84006000Y-48786000D01*
X85606000Y-47506000D02*
X84006000Y-47506000D01*
X85606000Y-46486000D02*
X85606000Y-47506000D01*
X81356000Y-46486000D02*
X85606000Y-46486000D01*
X84006000Y-52306000D02*
X86896000Y-52306000D01*
X84006000Y-53586000D02*
X84006000Y-52306000D01*
X85606000Y-53586000D02*
X84006000Y-53586000D01*
X85606000Y-54606000D02*
X85606000Y-53586000D01*
X81356000Y-54606000D02*
X85606000Y-54606000D01*
G04 #@! TO.C,C26*
X69598000Y-42763221D02*
X69598000Y-43088779D01*
X68578000Y-42763221D02*
X68578000Y-43088779D01*
G04 #@! TO.C,C25*
X90934000Y-64099221D02*
X90934000Y-64424779D01*
X89914000Y-64099221D02*
X89914000Y-64424779D01*
G04 #@! TO.C,C24*
X66800000Y-42763221D02*
X66800000Y-43088779D01*
X67820000Y-42763221D02*
X67820000Y-43088779D01*
G04 #@! TO.C,C23*
X98135221Y-62482000D02*
X98460779Y-62482000D01*
X98135221Y-63502000D02*
X98460779Y-63502000D01*
G04 #@! TO.C,C10*
X58146221Y-57656000D02*
X58471779Y-57656000D01*
X58146221Y-58676000D02*
X58471779Y-58676000D01*
G04 #@! TO.C,C7*
X49184779Y-66550000D02*
X48859221Y-66550000D01*
X49184779Y-65530000D02*
X48859221Y-65530000D01*
G04 #@! TO.C,U1*
X52857000Y-72332000D02*
X52382000Y-72332000D01*
X59602000Y-65112000D02*
X59602000Y-65587000D01*
X59127000Y-65112000D02*
X59602000Y-65112000D01*
X52382000Y-65112000D02*
X52382000Y-65587000D01*
X52857000Y-65112000D02*
X52382000Y-65112000D01*
X59602000Y-72332000D02*
X59602000Y-71857000D01*
X59127000Y-72332000D02*
X59602000Y-72332000D01*
G04 #@! TO.C,J2*
X52578000Y-47152000D02*
X52828000Y-47652000D01*
X52828000Y-47652000D02*
X52328000Y-47652000D01*
X52328000Y-47652000D02*
X52578000Y-47152000D01*
G04 #@! TO.C,Y2*
X44824487Y-59476940D02*
X41996060Y-56648513D01*
X47157940Y-57143487D02*
X44824487Y-59476940D01*
G04 #@! TO.C,U3*
X71460000Y-54472000D02*
X71460000Y-56922000D01*
X68240000Y-56272000D02*
X68240000Y-54472000D01*
G04 #@! TO.C,R3*
X48643000Y-56978733D02*
X48643000Y-57321267D01*
X47623000Y-56978733D02*
X47623000Y-57321267D01*
G04 #@! TO.C,D68*
X335876000Y-109088000D02*
X335876000Y-105938000D01*
X334176000Y-109088000D02*
X334176000Y-105938000D01*
X335876000Y-109088000D02*
X334176000Y-109088000D01*
G04 #@! TO.C,D67*
X335876000Y-90038000D02*
X335876000Y-86888000D01*
X334176000Y-90038000D02*
X334176000Y-86888000D01*
X335876000Y-90038000D02*
X334176000Y-90038000D01*
G04 #@! TO.C,D66*
X335844250Y-148140500D02*
X335844250Y-144990500D01*
X334144250Y-148140500D02*
X334144250Y-144990500D01*
X335844250Y-148140500D02*
X334144250Y-148140500D01*
G04 #@! TO.C,D65*
X335844250Y-129090500D02*
X335844250Y-125940500D01*
X334144250Y-129090500D02*
X334144250Y-125940500D01*
X335844250Y-129090500D02*
X334144250Y-129090500D01*
G04 #@! TO.C,D64*
X312254000Y-109088000D02*
X312254000Y-105938000D01*
X310554000Y-109088000D02*
X310554000Y-105938000D01*
X312254000Y-109088000D02*
X310554000Y-109088000D01*
G04 #@! TO.C,D63*
X307174000Y-90292000D02*
X307174000Y-87142000D01*
X305474000Y-90292000D02*
X305474000Y-87142000D01*
X307174000Y-90292000D02*
X305474000Y-90292000D01*
G04 #@! TO.C,D62*
X314540000Y-147442000D02*
X314540000Y-144292000D01*
X312840000Y-147442000D02*
X312840000Y-144292000D01*
X314540000Y-147442000D02*
X312840000Y-147442000D01*
G04 #@! TO.C,D61*
X304888000Y-129090500D02*
X304888000Y-125940500D01*
X303188000Y-129090500D02*
X303188000Y-125940500D01*
X304888000Y-129090500D02*
X303188000Y-129090500D01*
G04 #@! TO.C,D60*
X288219250Y-109088000D02*
X288219250Y-105938000D01*
X286519250Y-109088000D02*
X286519250Y-105938000D01*
X288219250Y-109088000D02*
X286519250Y-109088000D01*
G04 #@! TO.C,D59*
X278726000Y-90292000D02*
X278726000Y-87142000D01*
X277026000Y-90292000D02*
X277026000Y-87142000D01*
X278726000Y-90292000D02*
X277026000Y-90292000D01*
G04 #@! TO.C,D58*
X290600500Y-148140500D02*
X290600500Y-144990500D01*
X288900500Y-148140500D02*
X288900500Y-144990500D01*
X290600500Y-148140500D02*
X288900500Y-148140500D01*
G04 #@! TO.C,D57*
X273931750Y-129090500D02*
X273931750Y-125940500D01*
X272231750Y-129090500D02*
X272231750Y-125940500D01*
X273931750Y-129090500D02*
X272231750Y-129090500D01*
G04 #@! TO.C,D56*
X269169250Y-109088000D02*
X269169250Y-105938000D01*
X267469250Y-109088000D02*
X267469250Y-105938000D01*
X269169250Y-109088000D02*
X267469250Y-109088000D01*
G04 #@! TO.C,D55*
X259676000Y-90292000D02*
X259676000Y-87142000D01*
X257976000Y-90292000D02*
X257976000Y-87142000D01*
X259676000Y-90292000D02*
X257976000Y-90292000D01*
G04 #@! TO.C,D54*
X264406750Y-148140500D02*
X264406750Y-144990500D01*
X262706750Y-148140500D02*
X262706750Y-144990500D01*
X264406750Y-148140500D02*
X262706750Y-148140500D01*
G04 #@! TO.C,D53*
X254881750Y-129090500D02*
X254881750Y-125940500D01*
X253181750Y-129090500D02*
X253181750Y-125940500D01*
X254881750Y-129090500D02*
X253181750Y-129090500D01*
G04 #@! TO.C,D52*
X250119250Y-109088000D02*
X250119250Y-105938000D01*
X248419250Y-109088000D02*
X248419250Y-105938000D01*
X250119250Y-109088000D02*
X248419250Y-109088000D01*
G04 #@! TO.C,D51*
X240626000Y-90292000D02*
X240626000Y-87142000D01*
X238926000Y-90292000D02*
X238926000Y-87142000D01*
X240626000Y-90292000D02*
X238926000Y-90292000D01*
G04 #@! TO.C,D50*
X335844250Y-167190500D02*
X335844250Y-164040500D01*
X334144250Y-167190500D02*
X334144250Y-164040500D01*
X335844250Y-167190500D02*
X334144250Y-167190500D01*
G04 #@! TO.C,D49*
X245356750Y-148140500D02*
X245356750Y-144990500D01*
X243656750Y-148140500D02*
X243656750Y-144990500D01*
X245356750Y-148140500D02*
X243656750Y-148140500D01*
G04 #@! TO.C,D48*
X235831750Y-129090500D02*
X235831750Y-125940500D01*
X234131750Y-129090500D02*
X234131750Y-125940500D01*
X235831750Y-129090500D02*
X234131750Y-129090500D01*
G04 #@! TO.C,D47*
X231069250Y-109088000D02*
X231069250Y-105938000D01*
X229369250Y-109088000D02*
X229369250Y-105938000D01*
X231069250Y-109088000D02*
X229369250Y-109088000D01*
G04 #@! TO.C,D46*
X219798000Y-89530000D02*
X219798000Y-86380000D01*
X218098000Y-89530000D02*
X218098000Y-86380000D01*
X219798000Y-89530000D02*
X218098000Y-89530000D01*
G04 #@! TO.C,D45*
X316794250Y-167190500D02*
X316794250Y-164040500D01*
X315094250Y-167190500D02*
X315094250Y-164040500D01*
X316794250Y-167190500D02*
X315094250Y-167190500D01*
G04 #@! TO.C,D44*
X226306750Y-148140500D02*
X226306750Y-144990500D01*
X224606750Y-148140500D02*
X224606750Y-144990500D01*
X226306750Y-148140500D02*
X224606750Y-148140500D01*
G04 #@! TO.C,D43*
X216781750Y-129090500D02*
X216781750Y-125940500D01*
X215081750Y-129090500D02*
X215081750Y-125940500D01*
X216781750Y-129090500D02*
X215081750Y-129090500D01*
G04 #@! TO.C,D42*
X212019250Y-109088000D02*
X212019250Y-105938000D01*
X210319250Y-109088000D02*
X210319250Y-105938000D01*
X212019250Y-109088000D02*
X210319250Y-109088000D01*
G04 #@! TO.C,D41*
X202526000Y-90292000D02*
X202526000Y-87142000D01*
X200826000Y-90292000D02*
X200826000Y-87142000D01*
X202526000Y-90292000D02*
X200826000Y-90292000D01*
G04 #@! TO.C,D40*
X297744250Y-167190500D02*
X297744250Y-164040500D01*
X296044250Y-167190500D02*
X296044250Y-164040500D01*
X297744250Y-167190500D02*
X296044250Y-167190500D01*
G04 #@! TO.C,D39*
X207256750Y-148140500D02*
X207256750Y-144990500D01*
X205556750Y-148140500D02*
X205556750Y-144990500D01*
X207256750Y-148140500D02*
X205556750Y-148140500D01*
G04 #@! TO.C,D38*
X197731750Y-129090500D02*
X197731750Y-125940500D01*
X196031750Y-129090500D02*
X196031750Y-125940500D01*
X197731750Y-129090500D02*
X196031750Y-129090500D01*
G04 #@! TO.C,D37*
X192969250Y-109088000D02*
X192969250Y-105938000D01*
X191269250Y-109088000D02*
X191269250Y-105938000D01*
X192969250Y-109088000D02*
X191269250Y-109088000D01*
G04 #@! TO.C,D36*
X183476000Y-90292000D02*
X183476000Y-87142000D01*
X181776000Y-90292000D02*
X181776000Y-87142000D01*
X183476000Y-90292000D02*
X181776000Y-90292000D01*
G04 #@! TO.C,D35*
X278694250Y-167190500D02*
X278694250Y-164040500D01*
X276994250Y-167190500D02*
X276994250Y-164040500D01*
X278694250Y-167190500D02*
X276994250Y-167190500D01*
G04 #@! TO.C,D34*
X188206750Y-148140500D02*
X188206750Y-144990500D01*
X186506750Y-148140500D02*
X186506750Y-144990500D01*
X188206750Y-148140500D02*
X186506750Y-148140500D01*
G04 #@! TO.C,D33*
X178681750Y-129090500D02*
X178681750Y-125940500D01*
X176981750Y-129090500D02*
X176981750Y-125940500D01*
X178681750Y-129090500D02*
X176981750Y-129090500D01*
G04 #@! TO.C,D32*
X173919250Y-109088000D02*
X173919250Y-105938000D01*
X172219250Y-109088000D02*
X172219250Y-105938000D01*
X173919250Y-109088000D02*
X172219250Y-109088000D01*
G04 #@! TO.C,D31*
X164426000Y-90292000D02*
X164426000Y-87142000D01*
X162726000Y-90292000D02*
X162726000Y-87142000D01*
X164426000Y-90292000D02*
X162726000Y-90292000D01*
G04 #@! TO.C,D30*
X259644250Y-167190500D02*
X259644250Y-164040500D01*
X257944250Y-167190500D02*
X257944250Y-164040500D01*
X259644250Y-167190500D02*
X257944250Y-167190500D01*
G04 #@! TO.C,D29*
X169156750Y-148140500D02*
X169156750Y-144990500D01*
X167456750Y-148140500D02*
X167456750Y-144990500D01*
X169156750Y-148140500D02*
X167456750Y-148140500D01*
G04 #@! TO.C,D28*
X159631750Y-129090500D02*
X159631750Y-125940500D01*
X157931750Y-129090500D02*
X157931750Y-125940500D01*
X159631750Y-129090500D02*
X157931750Y-129090500D01*
G04 #@! TO.C,D27*
X154869250Y-109088000D02*
X154869250Y-105938000D01*
X153169250Y-109088000D02*
X153169250Y-105938000D01*
X154869250Y-109088000D02*
X153169250Y-109088000D01*
G04 #@! TO.C,D26*
X145376000Y-90292000D02*
X145376000Y-87142000D01*
X143676000Y-90292000D02*
X143676000Y-87142000D01*
X145376000Y-90292000D02*
X143676000Y-90292000D01*
G04 #@! TO.C,D25*
X240594250Y-167190500D02*
X240594250Y-164040500D01*
X238894250Y-167190500D02*
X238894250Y-164040500D01*
X240594250Y-167190500D02*
X238894250Y-167190500D01*
G04 #@! TO.C,D24*
X150106750Y-148140500D02*
X150106750Y-144990500D01*
X148406750Y-148140500D02*
X148406750Y-144990500D01*
X150106750Y-148140500D02*
X148406750Y-148140500D01*
G04 #@! TO.C,D23*
X140581750Y-129090500D02*
X140581750Y-125940500D01*
X138881750Y-129090500D02*
X138881750Y-125940500D01*
X140581750Y-129090500D02*
X138881750Y-129090500D01*
G04 #@! TO.C,D22*
X135819250Y-109088000D02*
X135819250Y-105938000D01*
X134119250Y-109088000D02*
X134119250Y-105938000D01*
X135819250Y-109088000D02*
X134119250Y-109088000D01*
G04 #@! TO.C,D21*
X126326000Y-90292000D02*
X126326000Y-87142000D01*
X124626000Y-90292000D02*
X124626000Y-87142000D01*
X126326000Y-90292000D02*
X124626000Y-90292000D01*
G04 #@! TO.C,D20*
X171538000Y-167190500D02*
X171538000Y-164040500D01*
X169838000Y-167190500D02*
X169838000Y-164040500D01*
X171538000Y-167190500D02*
X169838000Y-167190500D01*
G04 #@! TO.C,D19*
X131056750Y-148140500D02*
X131056750Y-144990500D01*
X129356750Y-148140500D02*
X129356750Y-144990500D01*
X131056750Y-148140500D02*
X129356750Y-148140500D01*
G04 #@! TO.C,D18*
X121531750Y-129090500D02*
X121531750Y-125940500D01*
X119831750Y-129090500D02*
X119831750Y-125940500D01*
X121531750Y-129090500D02*
X119831750Y-129090500D01*
G04 #@! TO.C,D17*
X116769250Y-109088000D02*
X116769250Y-105938000D01*
X115069250Y-109088000D02*
X115069250Y-105938000D01*
X116769250Y-109088000D02*
X115069250Y-109088000D01*
G04 #@! TO.C,D16*
X107276000Y-90292000D02*
X107276000Y-87142000D01*
X105576000Y-90292000D02*
X105576000Y-87142000D01*
X107276000Y-90292000D02*
X105576000Y-90292000D01*
G04 #@! TO.C,D15*
X100100500Y-167190500D02*
X100100500Y-164040500D01*
X98400500Y-167190500D02*
X98400500Y-164040500D01*
X100100500Y-167190500D02*
X98400500Y-167190500D01*
G04 #@! TO.C,D14*
X112006750Y-147696000D02*
X112006750Y-144546000D01*
X110306750Y-147696000D02*
X110306750Y-144546000D01*
X112006750Y-147696000D02*
X110306750Y-147696000D01*
G04 #@! TO.C,D13*
X102481750Y-129090500D02*
X102481750Y-125940500D01*
X100781750Y-129090500D02*
X100781750Y-125940500D01*
X102481750Y-129090500D02*
X100781750Y-129090500D01*
G04 #@! TO.C,D12*
X97624000Y-109088000D02*
X97624000Y-105938000D01*
X95924000Y-109088000D02*
X95924000Y-105938000D01*
X97624000Y-109088000D02*
X95924000Y-109088000D01*
G04 #@! TO.C,D11*
X88226000Y-90292000D02*
X88226000Y-87142000D01*
X86526000Y-90292000D02*
X86526000Y-87142000D01*
X88226000Y-90292000D02*
X86526000Y-90292000D01*
G04 #@! TO.C,D10*
X76288000Y-167190500D02*
X76288000Y-164040500D01*
X74588000Y-167190500D02*
X74588000Y-164040500D01*
X76288000Y-167190500D02*
X74588000Y-167190500D01*
G04 #@! TO.C,D9*
X92956750Y-148140500D02*
X92956750Y-144990500D01*
X91256750Y-148140500D02*
X91256750Y-144990500D01*
X92956750Y-148140500D02*
X91256750Y-148140500D01*
G04 #@! TO.C,D8*
X83431750Y-129090500D02*
X83431750Y-125940500D01*
X81731750Y-129090500D02*
X81731750Y-125940500D01*
X83431750Y-129090500D02*
X81731750Y-129090500D01*
G04 #@! TO.C,D7*
X78828000Y-109088000D02*
X78828000Y-105938000D01*
X77128000Y-109088000D02*
X77128000Y-105938000D01*
X78828000Y-109088000D02*
X77128000Y-109088000D01*
G04 #@! TO.C,D6*
X69176000Y-90292000D02*
X69176000Y-87142000D01*
X67476000Y-90292000D02*
X67476000Y-87142000D01*
X69176000Y-90292000D02*
X67476000Y-90292000D01*
G04 #@! TO.C,D5*
X52475500Y-167190500D02*
X52475500Y-164040500D01*
X50775500Y-167190500D02*
X50775500Y-164040500D01*
X52475500Y-167190500D02*
X50775500Y-167190500D01*
G04 #@! TO.C,D4*
X62000500Y-148140500D02*
X62000500Y-144990500D01*
X60300500Y-148140500D02*
X60300500Y-144990500D01*
X62000500Y-148140500D02*
X60300500Y-148140500D01*
G04 #@! TO.C,D3*
X57238000Y-129090500D02*
X57238000Y-125940500D01*
X55538000Y-129090500D02*
X55538000Y-125940500D01*
X57238000Y-129090500D02*
X55538000Y-129090500D01*
G04 #@! TO.C,D2*
X54952000Y-109088000D02*
X54952000Y-105938000D01*
X53252000Y-109088000D02*
X53252000Y-105938000D01*
X54952000Y-109088000D02*
X53252000Y-109088000D01*
G04 #@! TO.C,D1*
X50126000Y-90292000D02*
X50126000Y-87142000D01*
X48426000Y-90292000D02*
X48426000Y-87142000D01*
X50126000Y-90292000D02*
X48426000Y-90292000D01*
G04 #@! TO.C,FB1*
X65022000Y-42754733D02*
X65022000Y-43097267D01*
X66042000Y-42754733D02*
X66042000Y-43097267D01*
G04 #@! TO.C,R10*
X93643267Y-59184000D02*
X93300733Y-59184000D01*
X93643267Y-58164000D02*
X93300733Y-58164000D01*
G04 #@! TO.C,R14*
X99055422Y-53288000D02*
X99572578Y-53288000D01*
X99055422Y-51868000D02*
X99572578Y-51868000D01*
G04 #@! TO.C,R16*
X76710000Y-63836733D02*
X76710000Y-64179267D01*
X75690000Y-63836733D02*
X75690000Y-64179267D01*
G04 #@! TO.C,R17*
X72815267Y-64260000D02*
X72472733Y-64260000D01*
X72815267Y-65280000D02*
X72472733Y-65280000D01*
G04 #@! TO.C,U4*
X92273000Y-61442000D02*
X91798000Y-61442000D01*
X91798000Y-61442000D02*
X91798000Y-61917000D01*
X94543000Y-64662000D02*
X95018000Y-64662000D01*
X95018000Y-64662000D02*
X95018000Y-64187000D01*
X92273000Y-64662000D02*
X91798000Y-64662000D01*
X91798000Y-64662000D02*
X91798000Y-64187000D01*
X94543000Y-61442000D02*
X95018000Y-61442000D01*
D11*
G04 #@! TO.C,U6*
X91832000Y-51715000D02*
X93932000Y-51715000D01*
X91057000Y-54965000D02*
X93932000Y-54965000D01*
G04 #@! TO.C,U7*
X83057904Y-69124580D02*
X83057904Y-69934104D01*
X83010285Y-70029342D01*
X82962666Y-70076961D01*
X82867428Y-70124580D01*
X82676952Y-70124580D01*
X82581714Y-70076961D01*
X82534095Y-70029342D01*
X82486476Y-69934104D01*
X82486476Y-69124580D01*
X82105523Y-69124580D02*
X81438857Y-69124580D01*
X81867428Y-70124580D01*
G04 #@! TO.C,J5*
X75382380Y-57213809D02*
X75382380Y-56642380D01*
X75382380Y-56928095D02*
X74382380Y-56928095D01*
X74525238Y-56832857D01*
X74620476Y-56737619D01*
X74668095Y-56642380D01*
X74382380Y-57832857D02*
X74382380Y-57928095D01*
X74430000Y-58023333D01*
X74477619Y-58070952D01*
X74572857Y-58118571D01*
X74763333Y-58166190D01*
X75001428Y-58166190D01*
X75191904Y-58118571D01*
X75287142Y-58070952D01*
X75334761Y-58023333D01*
X75382380Y-57928095D01*
X75382380Y-57832857D01*
X75334761Y-57737619D01*
X75287142Y-57690000D01*
X75191904Y-57642380D01*
X75001428Y-57594761D01*
X74763333Y-57594761D01*
X74572857Y-57642380D01*
X74477619Y-57690000D01*
X74430000Y-57737619D01*
X74382380Y-57832857D01*
X75382380Y-58594761D02*
X74382380Y-58594761D01*
X75382380Y-59166190D02*
X74810952Y-58737619D01*
X74382380Y-59166190D02*
X74953809Y-58594761D01*
X75382380Y-60356666D02*
X74382380Y-60356666D01*
X75382380Y-60928095D01*
X74382380Y-60928095D01*
X74382380Y-61261428D02*
X74382380Y-61832857D01*
X75382380Y-61547142D02*
X74382380Y-61547142D01*
X75287142Y-62737619D02*
X75334761Y-62690000D01*
X75382380Y-62547142D01*
X75382380Y-62451904D01*
X75334761Y-62309047D01*
X75239523Y-62213809D01*
X75144285Y-62166190D01*
X74953809Y-62118571D01*
X74810952Y-62118571D01*
X74620476Y-62166190D01*
X74525238Y-62213809D01*
X74430000Y-62309047D01*
X74382380Y-62451904D01*
X74382380Y-62547142D01*
X74430000Y-62690000D01*
X74477619Y-62737619D01*
X75906380Y-57118571D02*
X75906380Y-57690000D01*
X76906380Y-57404285D02*
X75906380Y-57404285D01*
X76906380Y-58023333D02*
X75906380Y-58023333D01*
X76382571Y-58023333D02*
X76382571Y-58594761D01*
X76906380Y-58594761D02*
X75906380Y-58594761D01*
X76382571Y-59070952D02*
X76382571Y-59404285D01*
X76906380Y-59547142D02*
X76906380Y-59070952D01*
X75906380Y-59070952D01*
X75906380Y-59547142D01*
X76906380Y-60547142D02*
X76430190Y-60213809D01*
X76906380Y-59975714D02*
X75906380Y-59975714D01*
X75906380Y-60356666D01*
X75954000Y-60451904D01*
X76001619Y-60499523D01*
X76096857Y-60547142D01*
X76239714Y-60547142D01*
X76334952Y-60499523D01*
X76382571Y-60451904D01*
X76430190Y-60356666D01*
X76430190Y-59975714D01*
X76906380Y-60975714D02*
X75906380Y-60975714D01*
X76620666Y-61309047D01*
X75906380Y-61642380D01*
X76906380Y-61642380D01*
X76811142Y-62118571D02*
X76858761Y-62166190D01*
X76906380Y-62118571D01*
X76858761Y-62070952D01*
X76811142Y-62118571D01*
X76906380Y-62118571D01*
G04 #@! TO.C,J4*
X76382571Y-47538000D02*
X76430190Y-47680857D01*
X76477809Y-47728476D01*
X76573047Y-47776095D01*
X76715904Y-47776095D01*
X76811142Y-47728476D01*
X76858761Y-47680857D01*
X76906380Y-47585619D01*
X76906380Y-47204666D01*
X75906380Y-47204666D01*
X75906380Y-47538000D01*
X75954000Y-47633238D01*
X76001619Y-47680857D01*
X76096857Y-47728476D01*
X76192095Y-47728476D01*
X76287333Y-47680857D01*
X76334952Y-47633238D01*
X76382571Y-47538000D01*
X76382571Y-47204666D01*
X76620666Y-48157047D02*
X76620666Y-48633238D01*
X76906380Y-48061809D02*
X75906380Y-48395142D01*
X76906380Y-48728476D01*
X75906380Y-48918952D02*
X75906380Y-49490380D01*
X76906380Y-49204666D02*
X75906380Y-49204666D01*
X75906380Y-49680857D02*
X75906380Y-50252285D01*
X76906380Y-49966571D02*
X75906380Y-49966571D01*
X76382571Y-50585619D02*
X76382571Y-50918952D01*
X76906380Y-51061809D02*
X76906380Y-50585619D01*
X75906380Y-50585619D01*
X75906380Y-51061809D01*
X76906380Y-52061809D02*
X76430190Y-51728476D01*
X76906380Y-51490380D02*
X75906380Y-51490380D01*
X75906380Y-51871333D01*
X75954000Y-51966571D01*
X76001619Y-52014190D01*
X76096857Y-52061809D01*
X76239714Y-52061809D01*
X76334952Y-52014190D01*
X76382571Y-51966571D01*
X76430190Y-51871333D01*
X76430190Y-51490380D01*
X76430190Y-52680857D02*
X76906380Y-52680857D01*
X75906380Y-52347523D02*
X76430190Y-52680857D01*
X75906380Y-53014190D01*
X88209428Y-51181047D02*
X88209428Y-51942952D01*
X88590380Y-51562000D02*
X87828476Y-51562000D01*
X88209428Y-49149047D02*
X88209428Y-49910952D01*
G04 #@! TO.C,SW37*
X162972523Y-106830761D02*
X162829666Y-106878380D01*
X162591571Y-106878380D01*
X162496333Y-106830761D01*
X162448714Y-106783142D01*
X162401095Y-106687904D01*
X162401095Y-106592666D01*
X162448714Y-106497428D01*
X162496333Y-106449809D01*
X162591571Y-106402190D01*
X162782047Y-106354571D01*
X162877285Y-106306952D01*
X162924904Y-106259333D01*
X162972523Y-106164095D01*
X162972523Y-106068857D01*
X162924904Y-105973619D01*
X162877285Y-105926000D01*
X162782047Y-105878380D01*
X162543952Y-105878380D01*
X162401095Y-105926000D01*
X162067761Y-105878380D02*
X161829666Y-106878380D01*
X161639190Y-106164095D01*
X161448714Y-106878380D01*
X161210619Y-105878380D01*
X160924904Y-105878380D02*
X160305857Y-105878380D01*
X160639190Y-106259333D01*
X160496333Y-106259333D01*
X160401095Y-106306952D01*
X160353476Y-106354571D01*
X160305857Y-106449809D01*
X160305857Y-106687904D01*
X160353476Y-106783142D01*
X160401095Y-106830761D01*
X160496333Y-106878380D01*
X160782047Y-106878380D01*
X160877285Y-106830761D01*
X160924904Y-106783142D01*
X159972523Y-105878380D02*
X159305857Y-105878380D01*
X159734428Y-106878380D01*
G04 #@! TO.C,SW29*
X124872523Y-106830761D02*
X124729666Y-106878380D01*
X124491571Y-106878380D01*
X124396333Y-106830761D01*
X124348714Y-106783142D01*
X124301095Y-106687904D01*
X124301095Y-106592666D01*
X124348714Y-106497428D01*
X124396333Y-106449809D01*
X124491571Y-106402190D01*
X124682047Y-106354571D01*
X124777285Y-106306952D01*
X124824904Y-106259333D01*
X124872523Y-106164095D01*
X124872523Y-106068857D01*
X124824904Y-105973619D01*
X124777285Y-105926000D01*
X124682047Y-105878380D01*
X124443952Y-105878380D01*
X124301095Y-105926000D01*
X123967761Y-105878380D02*
X123729666Y-106878380D01*
X123539190Y-106164095D01*
X123348714Y-106878380D01*
X123110619Y-105878380D01*
X122777285Y-105973619D02*
X122729666Y-105926000D01*
X122634428Y-105878380D01*
X122396333Y-105878380D01*
X122301095Y-105926000D01*
X122253476Y-105973619D01*
X122205857Y-106068857D01*
X122205857Y-106164095D01*
X122253476Y-106306952D01*
X122824904Y-106878380D01*
X122205857Y-106878380D01*
X121729666Y-106878380D02*
X121539190Y-106878380D01*
X121443952Y-106830761D01*
X121396333Y-106783142D01*
X121301095Y-106640285D01*
X121253476Y-106449809D01*
X121253476Y-106068857D01*
X121301095Y-105973619D01*
X121348714Y-105926000D01*
X121443952Y-105878380D01*
X121634428Y-105878380D01*
X121729666Y-105926000D01*
X121777285Y-105973619D01*
X121824904Y-106068857D01*
X121824904Y-106306952D01*
X121777285Y-106402190D01*
X121729666Y-106449809D01*
X121634428Y-106497428D01*
X121443952Y-106497428D01*
X121348714Y-106449809D01*
X121301095Y-106402190D01*
X121253476Y-106306952D01*
G04 #@! TO.C,SW17*
X62960023Y-106830761D02*
X62817166Y-106878380D01*
X62579071Y-106878380D01*
X62483833Y-106830761D01*
X62436214Y-106783142D01*
X62388595Y-106687904D01*
X62388595Y-106592666D01*
X62436214Y-106497428D01*
X62483833Y-106449809D01*
X62579071Y-106402190D01*
X62769547Y-106354571D01*
X62864785Y-106306952D01*
X62912404Y-106259333D01*
X62960023Y-106164095D01*
X62960023Y-106068857D01*
X62912404Y-105973619D01*
X62864785Y-105926000D01*
X62769547Y-105878380D01*
X62531452Y-105878380D01*
X62388595Y-105926000D01*
X62055261Y-105878380D02*
X61817166Y-106878380D01*
X61626690Y-106164095D01*
X61436214Y-106878380D01*
X61198119Y-105878380D01*
X60293357Y-106878380D02*
X60864785Y-106878380D01*
X60579071Y-106878380D02*
X60579071Y-105878380D01*
X60674309Y-106021238D01*
X60769547Y-106116476D01*
X60864785Y-106164095D01*
X59960023Y-105878380D02*
X59293357Y-105878380D01*
X59721928Y-106878380D01*
G04 #@! TO.C,Y2*
X45340461Y-59434539D02*
X45273118Y-59434539D01*
X45273118Y-59501882D01*
X45340461Y-59501882D01*
X45340461Y-59434539D01*
X45273118Y-59501882D01*
G04 #@! TO.C,SW69*
X343947523Y-106830761D02*
X343804666Y-106878380D01*
X343566571Y-106878380D01*
X343471333Y-106830761D01*
X343423714Y-106783142D01*
X343376095Y-106687904D01*
X343376095Y-106592666D01*
X343423714Y-106497428D01*
X343471333Y-106449809D01*
X343566571Y-106402190D01*
X343757047Y-106354571D01*
X343852285Y-106306952D01*
X343899904Y-106259333D01*
X343947523Y-106164095D01*
X343947523Y-106068857D01*
X343899904Y-105973619D01*
X343852285Y-105926000D01*
X343757047Y-105878380D01*
X343518952Y-105878380D01*
X343376095Y-105926000D01*
X343042761Y-105878380D02*
X342804666Y-106878380D01*
X342614190Y-106164095D01*
X342423714Y-106878380D01*
X342185619Y-105878380D01*
X341376095Y-105878380D02*
X341566571Y-105878380D01*
X341661809Y-105926000D01*
X341709428Y-105973619D01*
X341804666Y-106116476D01*
X341852285Y-106306952D01*
X341852285Y-106687904D01*
X341804666Y-106783142D01*
X341757047Y-106830761D01*
X341661809Y-106878380D01*
X341471333Y-106878380D01*
X341376095Y-106830761D01*
X341328476Y-106783142D01*
X341280857Y-106687904D01*
X341280857Y-106449809D01*
X341328476Y-106354571D01*
X341376095Y-106306952D01*
X341471333Y-106259333D01*
X341661809Y-106259333D01*
X341757047Y-106306952D01*
X341804666Y-106354571D01*
X341852285Y-106449809D01*
X340804666Y-106878380D02*
X340614190Y-106878380D01*
X340518952Y-106830761D01*
X340471333Y-106783142D01*
X340376095Y-106640285D01*
X340328476Y-106449809D01*
X340328476Y-106068857D01*
X340376095Y-105973619D01*
X340423714Y-105926000D01*
X340518952Y-105878380D01*
X340709428Y-105878380D01*
X340804666Y-105926000D01*
X340852285Y-105973619D01*
X340899904Y-106068857D01*
X340899904Y-106306952D01*
X340852285Y-106402190D01*
X340804666Y-106449809D01*
X340709428Y-106497428D01*
X340518952Y-106497428D01*
X340423714Y-106449809D01*
X340376095Y-106402190D01*
X340328476Y-106306952D01*
G04 #@! TO.C,SW68*
X343947523Y-144930761D02*
X343804666Y-144978380D01*
X343566571Y-144978380D01*
X343471333Y-144930761D01*
X343423714Y-144883142D01*
X343376095Y-144787904D01*
X343376095Y-144692666D01*
X343423714Y-144597428D01*
X343471333Y-144549809D01*
X343566571Y-144502190D01*
X343757047Y-144454571D01*
X343852285Y-144406952D01*
X343899904Y-144359333D01*
X343947523Y-144264095D01*
X343947523Y-144168857D01*
X343899904Y-144073619D01*
X343852285Y-144026000D01*
X343757047Y-143978380D01*
X343518952Y-143978380D01*
X343376095Y-144026000D01*
X343042761Y-143978380D02*
X342804666Y-144978380D01*
X342614190Y-144264095D01*
X342423714Y-144978380D01*
X342185619Y-143978380D01*
X341376095Y-143978380D02*
X341566571Y-143978380D01*
X341661809Y-144026000D01*
X341709428Y-144073619D01*
X341804666Y-144216476D01*
X341852285Y-144406952D01*
X341852285Y-144787904D01*
X341804666Y-144883142D01*
X341757047Y-144930761D01*
X341661809Y-144978380D01*
X341471333Y-144978380D01*
X341376095Y-144930761D01*
X341328476Y-144883142D01*
X341280857Y-144787904D01*
X341280857Y-144549809D01*
X341328476Y-144454571D01*
X341376095Y-144406952D01*
X341471333Y-144359333D01*
X341661809Y-144359333D01*
X341757047Y-144406952D01*
X341804666Y-144454571D01*
X341852285Y-144549809D01*
X340709428Y-144406952D02*
X340804666Y-144359333D01*
X340852285Y-144311714D01*
X340899904Y-144216476D01*
X340899904Y-144168857D01*
X340852285Y-144073619D01*
X340804666Y-144026000D01*
X340709428Y-143978380D01*
X340518952Y-143978380D01*
X340423714Y-144026000D01*
X340376095Y-144073619D01*
X340328476Y-144168857D01*
X340328476Y-144216476D01*
X340376095Y-144311714D01*
X340423714Y-144359333D01*
X340518952Y-144406952D01*
X340709428Y-144406952D01*
X340804666Y-144454571D01*
X340852285Y-144502190D01*
X340899904Y-144597428D01*
X340899904Y-144787904D01*
X340852285Y-144883142D01*
X340804666Y-144930761D01*
X340709428Y-144978380D01*
X340518952Y-144978380D01*
X340423714Y-144930761D01*
X340376095Y-144883142D01*
X340328476Y-144787904D01*
X340328476Y-144597428D01*
X340376095Y-144502190D01*
X340423714Y-144454571D01*
X340518952Y-144406952D01*
G04 #@! TO.C,SW67*
X343947523Y-125880761D02*
X343804666Y-125928380D01*
X343566571Y-125928380D01*
X343471333Y-125880761D01*
X343423714Y-125833142D01*
X343376095Y-125737904D01*
X343376095Y-125642666D01*
X343423714Y-125547428D01*
X343471333Y-125499809D01*
X343566571Y-125452190D01*
X343757047Y-125404571D01*
X343852285Y-125356952D01*
X343899904Y-125309333D01*
X343947523Y-125214095D01*
X343947523Y-125118857D01*
X343899904Y-125023619D01*
X343852285Y-124976000D01*
X343757047Y-124928380D01*
X343518952Y-124928380D01*
X343376095Y-124976000D01*
X343042761Y-124928380D02*
X342804666Y-125928380D01*
X342614190Y-125214095D01*
X342423714Y-125928380D01*
X342185619Y-124928380D01*
X341376095Y-124928380D02*
X341566571Y-124928380D01*
X341661809Y-124976000D01*
X341709428Y-125023619D01*
X341804666Y-125166476D01*
X341852285Y-125356952D01*
X341852285Y-125737904D01*
X341804666Y-125833142D01*
X341757047Y-125880761D01*
X341661809Y-125928380D01*
X341471333Y-125928380D01*
X341376095Y-125880761D01*
X341328476Y-125833142D01*
X341280857Y-125737904D01*
X341280857Y-125499809D01*
X341328476Y-125404571D01*
X341376095Y-125356952D01*
X341471333Y-125309333D01*
X341661809Y-125309333D01*
X341757047Y-125356952D01*
X341804666Y-125404571D01*
X341852285Y-125499809D01*
X340947523Y-124928380D02*
X340280857Y-124928380D01*
X340709428Y-125928380D01*
G04 #@! TO.C,SW66*
X320135023Y-106830761D02*
X319992166Y-106878380D01*
X319754071Y-106878380D01*
X319658833Y-106830761D01*
X319611214Y-106783142D01*
X319563595Y-106687904D01*
X319563595Y-106592666D01*
X319611214Y-106497428D01*
X319658833Y-106449809D01*
X319754071Y-106402190D01*
X319944547Y-106354571D01*
X320039785Y-106306952D01*
X320087404Y-106259333D01*
X320135023Y-106164095D01*
X320135023Y-106068857D01*
X320087404Y-105973619D01*
X320039785Y-105926000D01*
X319944547Y-105878380D01*
X319706452Y-105878380D01*
X319563595Y-105926000D01*
X319230261Y-105878380D02*
X318992166Y-106878380D01*
X318801690Y-106164095D01*
X318611214Y-106878380D01*
X318373119Y-105878380D01*
X317563595Y-105878380D02*
X317754071Y-105878380D01*
X317849309Y-105926000D01*
X317896928Y-105973619D01*
X317992166Y-106116476D01*
X318039785Y-106306952D01*
X318039785Y-106687904D01*
X317992166Y-106783142D01*
X317944547Y-106830761D01*
X317849309Y-106878380D01*
X317658833Y-106878380D01*
X317563595Y-106830761D01*
X317515976Y-106783142D01*
X317468357Y-106687904D01*
X317468357Y-106449809D01*
X317515976Y-106354571D01*
X317563595Y-106306952D01*
X317658833Y-106259333D01*
X317849309Y-106259333D01*
X317944547Y-106306952D01*
X317992166Y-106354571D01*
X318039785Y-106449809D01*
X316611214Y-105878380D02*
X316801690Y-105878380D01*
X316896928Y-105926000D01*
X316944547Y-105973619D01*
X317039785Y-106116476D01*
X317087404Y-106306952D01*
X317087404Y-106687904D01*
X317039785Y-106783142D01*
X316992166Y-106830761D01*
X316896928Y-106878380D01*
X316706452Y-106878380D01*
X316611214Y-106830761D01*
X316563595Y-106783142D01*
X316515976Y-106687904D01*
X316515976Y-106449809D01*
X316563595Y-106354571D01*
X316611214Y-106306952D01*
X316706452Y-106259333D01*
X316896928Y-106259333D01*
X316992166Y-106306952D01*
X317039785Y-106354571D01*
X317087404Y-106449809D01*
G04 #@! TO.C,SW65*
X324897523Y-144930761D02*
X324754666Y-144978380D01*
X324516571Y-144978380D01*
X324421333Y-144930761D01*
X324373714Y-144883142D01*
X324326095Y-144787904D01*
X324326095Y-144692666D01*
X324373714Y-144597428D01*
X324421333Y-144549809D01*
X324516571Y-144502190D01*
X324707047Y-144454571D01*
X324802285Y-144406952D01*
X324849904Y-144359333D01*
X324897523Y-144264095D01*
X324897523Y-144168857D01*
X324849904Y-144073619D01*
X324802285Y-144026000D01*
X324707047Y-143978380D01*
X324468952Y-143978380D01*
X324326095Y-144026000D01*
X323992761Y-143978380D02*
X323754666Y-144978380D01*
X323564190Y-144264095D01*
X323373714Y-144978380D01*
X323135619Y-143978380D01*
X322326095Y-143978380D02*
X322516571Y-143978380D01*
X322611809Y-144026000D01*
X322659428Y-144073619D01*
X322754666Y-144216476D01*
X322802285Y-144406952D01*
X322802285Y-144787904D01*
X322754666Y-144883142D01*
X322707047Y-144930761D01*
X322611809Y-144978380D01*
X322421333Y-144978380D01*
X322326095Y-144930761D01*
X322278476Y-144883142D01*
X322230857Y-144787904D01*
X322230857Y-144549809D01*
X322278476Y-144454571D01*
X322326095Y-144406952D01*
X322421333Y-144359333D01*
X322611809Y-144359333D01*
X322707047Y-144406952D01*
X322754666Y-144454571D01*
X322802285Y-144549809D01*
X321326095Y-143978380D02*
X321802285Y-143978380D01*
X321849904Y-144454571D01*
X321802285Y-144406952D01*
X321707047Y-144359333D01*
X321468952Y-144359333D01*
X321373714Y-144406952D01*
X321326095Y-144454571D01*
X321278476Y-144549809D01*
X321278476Y-144787904D01*
X321326095Y-144883142D01*
X321373714Y-144930761D01*
X321468952Y-144978380D01*
X321707047Y-144978380D01*
X321802285Y-144930761D01*
X321849904Y-144883142D01*
G04 #@! TO.C,SW64*
X312991273Y-125880761D02*
X312848416Y-125928380D01*
X312610321Y-125928380D01*
X312515083Y-125880761D01*
X312467464Y-125833142D01*
X312419845Y-125737904D01*
X312419845Y-125642666D01*
X312467464Y-125547428D01*
X312515083Y-125499809D01*
X312610321Y-125452190D01*
X312800797Y-125404571D01*
X312896035Y-125356952D01*
X312943654Y-125309333D01*
X312991273Y-125214095D01*
X312991273Y-125118857D01*
X312943654Y-125023619D01*
X312896035Y-124976000D01*
X312800797Y-124928380D01*
X312562702Y-124928380D01*
X312419845Y-124976000D01*
X312086511Y-124928380D02*
X311848416Y-125928380D01*
X311657940Y-125214095D01*
X311467464Y-125928380D01*
X311229369Y-124928380D01*
X310419845Y-124928380D02*
X310610321Y-124928380D01*
X310705559Y-124976000D01*
X310753178Y-125023619D01*
X310848416Y-125166476D01*
X310896035Y-125356952D01*
X310896035Y-125737904D01*
X310848416Y-125833142D01*
X310800797Y-125880761D01*
X310705559Y-125928380D01*
X310515083Y-125928380D01*
X310419845Y-125880761D01*
X310372226Y-125833142D01*
X310324607Y-125737904D01*
X310324607Y-125499809D01*
X310372226Y-125404571D01*
X310419845Y-125356952D01*
X310515083Y-125309333D01*
X310705559Y-125309333D01*
X310800797Y-125356952D01*
X310848416Y-125404571D01*
X310896035Y-125499809D01*
X309467464Y-125261714D02*
X309467464Y-125928380D01*
X309705559Y-124880761D02*
X309943654Y-125595047D01*
X309324607Y-125595047D01*
G04 #@! TO.C,SW63*
X296322523Y-106830761D02*
X296179666Y-106878380D01*
X295941571Y-106878380D01*
X295846333Y-106830761D01*
X295798714Y-106783142D01*
X295751095Y-106687904D01*
X295751095Y-106592666D01*
X295798714Y-106497428D01*
X295846333Y-106449809D01*
X295941571Y-106402190D01*
X296132047Y-106354571D01*
X296227285Y-106306952D01*
X296274904Y-106259333D01*
X296322523Y-106164095D01*
X296322523Y-106068857D01*
X296274904Y-105973619D01*
X296227285Y-105926000D01*
X296132047Y-105878380D01*
X295893952Y-105878380D01*
X295751095Y-105926000D01*
X295417761Y-105878380D02*
X295179666Y-106878380D01*
X294989190Y-106164095D01*
X294798714Y-106878380D01*
X294560619Y-105878380D01*
X293751095Y-105878380D02*
X293941571Y-105878380D01*
X294036809Y-105926000D01*
X294084428Y-105973619D01*
X294179666Y-106116476D01*
X294227285Y-106306952D01*
X294227285Y-106687904D01*
X294179666Y-106783142D01*
X294132047Y-106830761D01*
X294036809Y-106878380D01*
X293846333Y-106878380D01*
X293751095Y-106830761D01*
X293703476Y-106783142D01*
X293655857Y-106687904D01*
X293655857Y-106449809D01*
X293703476Y-106354571D01*
X293751095Y-106306952D01*
X293846333Y-106259333D01*
X294036809Y-106259333D01*
X294132047Y-106306952D01*
X294179666Y-106354571D01*
X294227285Y-106449809D01*
X293322523Y-105878380D02*
X292703476Y-105878380D01*
X293036809Y-106259333D01*
X292893952Y-106259333D01*
X292798714Y-106306952D01*
X292751095Y-106354571D01*
X292703476Y-106449809D01*
X292703476Y-106687904D01*
X292751095Y-106783142D01*
X292798714Y-106830761D01*
X292893952Y-106878380D01*
X293179666Y-106878380D01*
X293274904Y-106830761D01*
X293322523Y-106783142D01*
G04 #@! TO.C,SW62*
X298703773Y-144930761D02*
X298560916Y-144978380D01*
X298322821Y-144978380D01*
X298227583Y-144930761D01*
X298179964Y-144883142D01*
X298132345Y-144787904D01*
X298132345Y-144692666D01*
X298179964Y-144597428D01*
X298227583Y-144549809D01*
X298322821Y-144502190D01*
X298513297Y-144454571D01*
X298608535Y-144406952D01*
X298656154Y-144359333D01*
X298703773Y-144264095D01*
X298703773Y-144168857D01*
X298656154Y-144073619D01*
X298608535Y-144026000D01*
X298513297Y-143978380D01*
X298275202Y-143978380D01*
X298132345Y-144026000D01*
X297799011Y-143978380D02*
X297560916Y-144978380D01*
X297370440Y-144264095D01*
X297179964Y-144978380D01*
X296941869Y-143978380D01*
X296132345Y-143978380D02*
X296322821Y-143978380D01*
X296418059Y-144026000D01*
X296465678Y-144073619D01*
X296560916Y-144216476D01*
X296608535Y-144406952D01*
X296608535Y-144787904D01*
X296560916Y-144883142D01*
X296513297Y-144930761D01*
X296418059Y-144978380D01*
X296227583Y-144978380D01*
X296132345Y-144930761D01*
X296084726Y-144883142D01*
X296037107Y-144787904D01*
X296037107Y-144549809D01*
X296084726Y-144454571D01*
X296132345Y-144406952D01*
X296227583Y-144359333D01*
X296418059Y-144359333D01*
X296513297Y-144406952D01*
X296560916Y-144454571D01*
X296608535Y-144549809D01*
X295656154Y-144073619D02*
X295608535Y-144026000D01*
X295513297Y-143978380D01*
X295275202Y-143978380D01*
X295179964Y-144026000D01*
X295132345Y-144073619D01*
X295084726Y-144168857D01*
X295084726Y-144264095D01*
X295132345Y-144406952D01*
X295703773Y-144978380D01*
X295084726Y-144978380D01*
G04 #@! TO.C,SW61*
X282035023Y-125880761D02*
X281892166Y-125928380D01*
X281654071Y-125928380D01*
X281558833Y-125880761D01*
X281511214Y-125833142D01*
X281463595Y-125737904D01*
X281463595Y-125642666D01*
X281511214Y-125547428D01*
X281558833Y-125499809D01*
X281654071Y-125452190D01*
X281844547Y-125404571D01*
X281939785Y-125356952D01*
X281987404Y-125309333D01*
X282035023Y-125214095D01*
X282035023Y-125118857D01*
X281987404Y-125023619D01*
X281939785Y-124976000D01*
X281844547Y-124928380D01*
X281606452Y-124928380D01*
X281463595Y-124976000D01*
X281130261Y-124928380D02*
X280892166Y-125928380D01*
X280701690Y-125214095D01*
X280511214Y-125928380D01*
X280273119Y-124928380D01*
X279463595Y-124928380D02*
X279654071Y-124928380D01*
X279749309Y-124976000D01*
X279796928Y-125023619D01*
X279892166Y-125166476D01*
X279939785Y-125356952D01*
X279939785Y-125737904D01*
X279892166Y-125833142D01*
X279844547Y-125880761D01*
X279749309Y-125928380D01*
X279558833Y-125928380D01*
X279463595Y-125880761D01*
X279415976Y-125833142D01*
X279368357Y-125737904D01*
X279368357Y-125499809D01*
X279415976Y-125404571D01*
X279463595Y-125356952D01*
X279558833Y-125309333D01*
X279749309Y-125309333D01*
X279844547Y-125356952D01*
X279892166Y-125404571D01*
X279939785Y-125499809D01*
X278415976Y-125928380D02*
X278987404Y-125928380D01*
X278701690Y-125928380D02*
X278701690Y-124928380D01*
X278796928Y-125071238D01*
X278892166Y-125166476D01*
X278987404Y-125214095D01*
G04 #@! TO.C,SW60*
X277272523Y-106830761D02*
X277129666Y-106878380D01*
X276891571Y-106878380D01*
X276796333Y-106830761D01*
X276748714Y-106783142D01*
X276701095Y-106687904D01*
X276701095Y-106592666D01*
X276748714Y-106497428D01*
X276796333Y-106449809D01*
X276891571Y-106402190D01*
X277082047Y-106354571D01*
X277177285Y-106306952D01*
X277224904Y-106259333D01*
X277272523Y-106164095D01*
X277272523Y-106068857D01*
X277224904Y-105973619D01*
X277177285Y-105926000D01*
X277082047Y-105878380D01*
X276843952Y-105878380D01*
X276701095Y-105926000D01*
X276367761Y-105878380D02*
X276129666Y-106878380D01*
X275939190Y-106164095D01*
X275748714Y-106878380D01*
X275510619Y-105878380D01*
X274701095Y-105878380D02*
X274891571Y-105878380D01*
X274986809Y-105926000D01*
X275034428Y-105973619D01*
X275129666Y-106116476D01*
X275177285Y-106306952D01*
X275177285Y-106687904D01*
X275129666Y-106783142D01*
X275082047Y-106830761D01*
X274986809Y-106878380D01*
X274796333Y-106878380D01*
X274701095Y-106830761D01*
X274653476Y-106783142D01*
X274605857Y-106687904D01*
X274605857Y-106449809D01*
X274653476Y-106354571D01*
X274701095Y-106306952D01*
X274796333Y-106259333D01*
X274986809Y-106259333D01*
X275082047Y-106306952D01*
X275129666Y-106354571D01*
X275177285Y-106449809D01*
X273986809Y-105878380D02*
X273891571Y-105878380D01*
X273796333Y-105926000D01*
X273748714Y-105973619D01*
X273701095Y-106068857D01*
X273653476Y-106259333D01*
X273653476Y-106497428D01*
X273701095Y-106687904D01*
X273748714Y-106783142D01*
X273796333Y-106830761D01*
X273891571Y-106878380D01*
X273986809Y-106878380D01*
X274082047Y-106830761D01*
X274129666Y-106783142D01*
X274177285Y-106687904D01*
X274224904Y-106497428D01*
X274224904Y-106259333D01*
X274177285Y-106068857D01*
X274129666Y-105973619D01*
X274082047Y-105926000D01*
X273986809Y-105878380D01*
G04 #@! TO.C,SW59*
X272510023Y-144930761D02*
X272367166Y-144978380D01*
X272129071Y-144978380D01*
X272033833Y-144930761D01*
X271986214Y-144883142D01*
X271938595Y-144787904D01*
X271938595Y-144692666D01*
X271986214Y-144597428D01*
X272033833Y-144549809D01*
X272129071Y-144502190D01*
X272319547Y-144454571D01*
X272414785Y-144406952D01*
X272462404Y-144359333D01*
X272510023Y-144264095D01*
X272510023Y-144168857D01*
X272462404Y-144073619D01*
X272414785Y-144026000D01*
X272319547Y-143978380D01*
X272081452Y-143978380D01*
X271938595Y-144026000D01*
X271605261Y-143978380D02*
X271367166Y-144978380D01*
X271176690Y-144264095D01*
X270986214Y-144978380D01*
X270748119Y-143978380D01*
X269890976Y-143978380D02*
X270367166Y-143978380D01*
X270414785Y-144454571D01*
X270367166Y-144406952D01*
X270271928Y-144359333D01*
X270033833Y-144359333D01*
X269938595Y-144406952D01*
X269890976Y-144454571D01*
X269843357Y-144549809D01*
X269843357Y-144787904D01*
X269890976Y-144883142D01*
X269938595Y-144930761D01*
X270033833Y-144978380D01*
X270271928Y-144978380D01*
X270367166Y-144930761D01*
X270414785Y-144883142D01*
X269367166Y-144978380D02*
X269176690Y-144978380D01*
X269081452Y-144930761D01*
X269033833Y-144883142D01*
X268938595Y-144740285D01*
X268890976Y-144549809D01*
X268890976Y-144168857D01*
X268938595Y-144073619D01*
X268986214Y-144026000D01*
X269081452Y-143978380D01*
X269271928Y-143978380D01*
X269367166Y-144026000D01*
X269414785Y-144073619D01*
X269462404Y-144168857D01*
X269462404Y-144406952D01*
X269414785Y-144502190D01*
X269367166Y-144549809D01*
X269271928Y-144597428D01*
X269081452Y-144597428D01*
X268986214Y-144549809D01*
X268938595Y-144502190D01*
X268890976Y-144406952D01*
G04 #@! TO.C,SW58*
X262985023Y-125880761D02*
X262842166Y-125928380D01*
X262604071Y-125928380D01*
X262508833Y-125880761D01*
X262461214Y-125833142D01*
X262413595Y-125737904D01*
X262413595Y-125642666D01*
X262461214Y-125547428D01*
X262508833Y-125499809D01*
X262604071Y-125452190D01*
X262794547Y-125404571D01*
X262889785Y-125356952D01*
X262937404Y-125309333D01*
X262985023Y-125214095D01*
X262985023Y-125118857D01*
X262937404Y-125023619D01*
X262889785Y-124976000D01*
X262794547Y-124928380D01*
X262556452Y-124928380D01*
X262413595Y-124976000D01*
X262080261Y-124928380D02*
X261842166Y-125928380D01*
X261651690Y-125214095D01*
X261461214Y-125928380D01*
X261223119Y-124928380D01*
X260365976Y-124928380D02*
X260842166Y-124928380D01*
X260889785Y-125404571D01*
X260842166Y-125356952D01*
X260746928Y-125309333D01*
X260508833Y-125309333D01*
X260413595Y-125356952D01*
X260365976Y-125404571D01*
X260318357Y-125499809D01*
X260318357Y-125737904D01*
X260365976Y-125833142D01*
X260413595Y-125880761D01*
X260508833Y-125928380D01*
X260746928Y-125928380D01*
X260842166Y-125880761D01*
X260889785Y-125833142D01*
X259746928Y-125356952D02*
X259842166Y-125309333D01*
X259889785Y-125261714D01*
X259937404Y-125166476D01*
X259937404Y-125118857D01*
X259889785Y-125023619D01*
X259842166Y-124976000D01*
X259746928Y-124928380D01*
X259556452Y-124928380D01*
X259461214Y-124976000D01*
X259413595Y-125023619D01*
X259365976Y-125118857D01*
X259365976Y-125166476D01*
X259413595Y-125261714D01*
X259461214Y-125309333D01*
X259556452Y-125356952D01*
X259746928Y-125356952D01*
X259842166Y-125404571D01*
X259889785Y-125452190D01*
X259937404Y-125547428D01*
X259937404Y-125737904D01*
X259889785Y-125833142D01*
X259842166Y-125880761D01*
X259746928Y-125928380D01*
X259556452Y-125928380D01*
X259461214Y-125880761D01*
X259413595Y-125833142D01*
X259365976Y-125737904D01*
X259365976Y-125547428D01*
X259413595Y-125452190D01*
X259461214Y-125404571D01*
X259556452Y-125356952D01*
G04 #@! TO.C,SW57*
X258222523Y-106830761D02*
X258079666Y-106878380D01*
X257841571Y-106878380D01*
X257746333Y-106830761D01*
X257698714Y-106783142D01*
X257651095Y-106687904D01*
X257651095Y-106592666D01*
X257698714Y-106497428D01*
X257746333Y-106449809D01*
X257841571Y-106402190D01*
X258032047Y-106354571D01*
X258127285Y-106306952D01*
X258174904Y-106259333D01*
X258222523Y-106164095D01*
X258222523Y-106068857D01*
X258174904Y-105973619D01*
X258127285Y-105926000D01*
X258032047Y-105878380D01*
X257793952Y-105878380D01*
X257651095Y-105926000D01*
X257317761Y-105878380D02*
X257079666Y-106878380D01*
X256889190Y-106164095D01*
X256698714Y-106878380D01*
X256460619Y-105878380D01*
X255603476Y-105878380D02*
X256079666Y-105878380D01*
X256127285Y-106354571D01*
X256079666Y-106306952D01*
X255984428Y-106259333D01*
X255746333Y-106259333D01*
X255651095Y-106306952D01*
X255603476Y-106354571D01*
X255555857Y-106449809D01*
X255555857Y-106687904D01*
X255603476Y-106783142D01*
X255651095Y-106830761D01*
X255746333Y-106878380D01*
X255984428Y-106878380D01*
X256079666Y-106830761D01*
X256127285Y-106783142D01*
X255222523Y-105878380D02*
X254555857Y-105878380D01*
X254984428Y-106878380D01*
G04 #@! TO.C,SW56*
X343947523Y-163980761D02*
X343804666Y-164028380D01*
X343566571Y-164028380D01*
X343471333Y-163980761D01*
X343423714Y-163933142D01*
X343376095Y-163837904D01*
X343376095Y-163742666D01*
X343423714Y-163647428D01*
X343471333Y-163599809D01*
X343566571Y-163552190D01*
X343757047Y-163504571D01*
X343852285Y-163456952D01*
X343899904Y-163409333D01*
X343947523Y-163314095D01*
X343947523Y-163218857D01*
X343899904Y-163123619D01*
X343852285Y-163076000D01*
X343757047Y-163028380D01*
X343518952Y-163028380D01*
X343376095Y-163076000D01*
X343042761Y-163028380D02*
X342804666Y-164028380D01*
X342614190Y-163314095D01*
X342423714Y-164028380D01*
X342185619Y-163028380D01*
X341328476Y-163028380D02*
X341804666Y-163028380D01*
X341852285Y-163504571D01*
X341804666Y-163456952D01*
X341709428Y-163409333D01*
X341471333Y-163409333D01*
X341376095Y-163456952D01*
X341328476Y-163504571D01*
X341280857Y-163599809D01*
X341280857Y-163837904D01*
X341328476Y-163933142D01*
X341376095Y-163980761D01*
X341471333Y-164028380D01*
X341709428Y-164028380D01*
X341804666Y-163980761D01*
X341852285Y-163933142D01*
X340423714Y-163028380D02*
X340614190Y-163028380D01*
X340709428Y-163076000D01*
X340757047Y-163123619D01*
X340852285Y-163266476D01*
X340899904Y-163456952D01*
X340899904Y-163837904D01*
X340852285Y-163933142D01*
X340804666Y-163980761D01*
X340709428Y-164028380D01*
X340518952Y-164028380D01*
X340423714Y-163980761D01*
X340376095Y-163933142D01*
X340328476Y-163837904D01*
X340328476Y-163599809D01*
X340376095Y-163504571D01*
X340423714Y-163456952D01*
X340518952Y-163409333D01*
X340709428Y-163409333D01*
X340804666Y-163456952D01*
X340852285Y-163504571D01*
X340899904Y-163599809D01*
G04 #@! TO.C,SW55*
X253460023Y-144930761D02*
X253317166Y-144978380D01*
X253079071Y-144978380D01*
X252983833Y-144930761D01*
X252936214Y-144883142D01*
X252888595Y-144787904D01*
X252888595Y-144692666D01*
X252936214Y-144597428D01*
X252983833Y-144549809D01*
X253079071Y-144502190D01*
X253269547Y-144454571D01*
X253364785Y-144406952D01*
X253412404Y-144359333D01*
X253460023Y-144264095D01*
X253460023Y-144168857D01*
X253412404Y-144073619D01*
X253364785Y-144026000D01*
X253269547Y-143978380D01*
X253031452Y-143978380D01*
X252888595Y-144026000D01*
X252555261Y-143978380D02*
X252317166Y-144978380D01*
X252126690Y-144264095D01*
X251936214Y-144978380D01*
X251698119Y-143978380D01*
X250840976Y-143978380D02*
X251317166Y-143978380D01*
X251364785Y-144454571D01*
X251317166Y-144406952D01*
X251221928Y-144359333D01*
X250983833Y-144359333D01*
X250888595Y-144406952D01*
X250840976Y-144454571D01*
X250793357Y-144549809D01*
X250793357Y-144787904D01*
X250840976Y-144883142D01*
X250888595Y-144930761D01*
X250983833Y-144978380D01*
X251221928Y-144978380D01*
X251317166Y-144930761D01*
X251364785Y-144883142D01*
X249888595Y-143978380D02*
X250364785Y-143978380D01*
X250412404Y-144454571D01*
X250364785Y-144406952D01*
X250269547Y-144359333D01*
X250031452Y-144359333D01*
X249936214Y-144406952D01*
X249888595Y-144454571D01*
X249840976Y-144549809D01*
X249840976Y-144787904D01*
X249888595Y-144883142D01*
X249936214Y-144930761D01*
X250031452Y-144978380D01*
X250269547Y-144978380D01*
X250364785Y-144930761D01*
X250412404Y-144883142D01*
G04 #@! TO.C,SW54*
X243935023Y-125880761D02*
X243792166Y-125928380D01*
X243554071Y-125928380D01*
X243458833Y-125880761D01*
X243411214Y-125833142D01*
X243363595Y-125737904D01*
X243363595Y-125642666D01*
X243411214Y-125547428D01*
X243458833Y-125499809D01*
X243554071Y-125452190D01*
X243744547Y-125404571D01*
X243839785Y-125356952D01*
X243887404Y-125309333D01*
X243935023Y-125214095D01*
X243935023Y-125118857D01*
X243887404Y-125023619D01*
X243839785Y-124976000D01*
X243744547Y-124928380D01*
X243506452Y-124928380D01*
X243363595Y-124976000D01*
X243030261Y-124928380D02*
X242792166Y-125928380D01*
X242601690Y-125214095D01*
X242411214Y-125928380D01*
X242173119Y-124928380D01*
X241315976Y-124928380D02*
X241792166Y-124928380D01*
X241839785Y-125404571D01*
X241792166Y-125356952D01*
X241696928Y-125309333D01*
X241458833Y-125309333D01*
X241363595Y-125356952D01*
X241315976Y-125404571D01*
X241268357Y-125499809D01*
X241268357Y-125737904D01*
X241315976Y-125833142D01*
X241363595Y-125880761D01*
X241458833Y-125928380D01*
X241696928Y-125928380D01*
X241792166Y-125880761D01*
X241839785Y-125833142D01*
X240411214Y-125261714D02*
X240411214Y-125928380D01*
X240649309Y-124880761D02*
X240887404Y-125595047D01*
X240268357Y-125595047D01*
G04 #@! TO.C,SW53*
X239172523Y-106830761D02*
X239029666Y-106878380D01*
X238791571Y-106878380D01*
X238696333Y-106830761D01*
X238648714Y-106783142D01*
X238601095Y-106687904D01*
X238601095Y-106592666D01*
X238648714Y-106497428D01*
X238696333Y-106449809D01*
X238791571Y-106402190D01*
X238982047Y-106354571D01*
X239077285Y-106306952D01*
X239124904Y-106259333D01*
X239172523Y-106164095D01*
X239172523Y-106068857D01*
X239124904Y-105973619D01*
X239077285Y-105926000D01*
X238982047Y-105878380D01*
X238743952Y-105878380D01*
X238601095Y-105926000D01*
X238267761Y-105878380D02*
X238029666Y-106878380D01*
X237839190Y-106164095D01*
X237648714Y-106878380D01*
X237410619Y-105878380D01*
X236553476Y-105878380D02*
X237029666Y-105878380D01*
X237077285Y-106354571D01*
X237029666Y-106306952D01*
X236934428Y-106259333D01*
X236696333Y-106259333D01*
X236601095Y-106306952D01*
X236553476Y-106354571D01*
X236505857Y-106449809D01*
X236505857Y-106687904D01*
X236553476Y-106783142D01*
X236601095Y-106830761D01*
X236696333Y-106878380D01*
X236934428Y-106878380D01*
X237029666Y-106830761D01*
X237077285Y-106783142D01*
X236172523Y-105878380D02*
X235553476Y-105878380D01*
X235886809Y-106259333D01*
X235743952Y-106259333D01*
X235648714Y-106306952D01*
X235601095Y-106354571D01*
X235553476Y-106449809D01*
X235553476Y-106687904D01*
X235601095Y-106783142D01*
X235648714Y-106830761D01*
X235743952Y-106878380D01*
X236029666Y-106878380D01*
X236124904Y-106830761D01*
X236172523Y-106783142D01*
G04 #@! TO.C,SW52*
X324897523Y-163980761D02*
X324754666Y-164028380D01*
X324516571Y-164028380D01*
X324421333Y-163980761D01*
X324373714Y-163933142D01*
X324326095Y-163837904D01*
X324326095Y-163742666D01*
X324373714Y-163647428D01*
X324421333Y-163599809D01*
X324516571Y-163552190D01*
X324707047Y-163504571D01*
X324802285Y-163456952D01*
X324849904Y-163409333D01*
X324897523Y-163314095D01*
X324897523Y-163218857D01*
X324849904Y-163123619D01*
X324802285Y-163076000D01*
X324707047Y-163028380D01*
X324468952Y-163028380D01*
X324326095Y-163076000D01*
X323992761Y-163028380D02*
X323754666Y-164028380D01*
X323564190Y-163314095D01*
X323373714Y-164028380D01*
X323135619Y-163028380D01*
X322278476Y-163028380D02*
X322754666Y-163028380D01*
X322802285Y-163504571D01*
X322754666Y-163456952D01*
X322659428Y-163409333D01*
X322421333Y-163409333D01*
X322326095Y-163456952D01*
X322278476Y-163504571D01*
X322230857Y-163599809D01*
X322230857Y-163837904D01*
X322278476Y-163933142D01*
X322326095Y-163980761D01*
X322421333Y-164028380D01*
X322659428Y-164028380D01*
X322754666Y-163980761D01*
X322802285Y-163933142D01*
X321849904Y-163123619D02*
X321802285Y-163076000D01*
X321707047Y-163028380D01*
X321468952Y-163028380D01*
X321373714Y-163076000D01*
X321326095Y-163123619D01*
X321278476Y-163218857D01*
X321278476Y-163314095D01*
X321326095Y-163456952D01*
X321897523Y-164028380D01*
X321278476Y-164028380D01*
G04 #@! TO.C,SW51*
X234410023Y-144930761D02*
X234267166Y-144978380D01*
X234029071Y-144978380D01*
X233933833Y-144930761D01*
X233886214Y-144883142D01*
X233838595Y-144787904D01*
X233838595Y-144692666D01*
X233886214Y-144597428D01*
X233933833Y-144549809D01*
X234029071Y-144502190D01*
X234219547Y-144454571D01*
X234314785Y-144406952D01*
X234362404Y-144359333D01*
X234410023Y-144264095D01*
X234410023Y-144168857D01*
X234362404Y-144073619D01*
X234314785Y-144026000D01*
X234219547Y-143978380D01*
X233981452Y-143978380D01*
X233838595Y-144026000D01*
X233505261Y-143978380D02*
X233267166Y-144978380D01*
X233076690Y-144264095D01*
X232886214Y-144978380D01*
X232648119Y-143978380D01*
X231790976Y-143978380D02*
X232267166Y-143978380D01*
X232314785Y-144454571D01*
X232267166Y-144406952D01*
X232171928Y-144359333D01*
X231933833Y-144359333D01*
X231838595Y-144406952D01*
X231790976Y-144454571D01*
X231743357Y-144549809D01*
X231743357Y-144787904D01*
X231790976Y-144883142D01*
X231838595Y-144930761D01*
X231933833Y-144978380D01*
X232171928Y-144978380D01*
X232267166Y-144930761D01*
X232314785Y-144883142D01*
X230790976Y-144978380D02*
X231362404Y-144978380D01*
X231076690Y-144978380D02*
X231076690Y-143978380D01*
X231171928Y-144121238D01*
X231267166Y-144216476D01*
X231362404Y-144264095D01*
G04 #@! TO.C,SW50*
X224885023Y-125880761D02*
X224742166Y-125928380D01*
X224504071Y-125928380D01*
X224408833Y-125880761D01*
X224361214Y-125833142D01*
X224313595Y-125737904D01*
X224313595Y-125642666D01*
X224361214Y-125547428D01*
X224408833Y-125499809D01*
X224504071Y-125452190D01*
X224694547Y-125404571D01*
X224789785Y-125356952D01*
X224837404Y-125309333D01*
X224885023Y-125214095D01*
X224885023Y-125118857D01*
X224837404Y-125023619D01*
X224789785Y-124976000D01*
X224694547Y-124928380D01*
X224456452Y-124928380D01*
X224313595Y-124976000D01*
X223980261Y-124928380D02*
X223742166Y-125928380D01*
X223551690Y-125214095D01*
X223361214Y-125928380D01*
X223123119Y-124928380D01*
X222265976Y-124928380D02*
X222742166Y-124928380D01*
X222789785Y-125404571D01*
X222742166Y-125356952D01*
X222646928Y-125309333D01*
X222408833Y-125309333D01*
X222313595Y-125356952D01*
X222265976Y-125404571D01*
X222218357Y-125499809D01*
X222218357Y-125737904D01*
X222265976Y-125833142D01*
X222313595Y-125880761D01*
X222408833Y-125928380D01*
X222646928Y-125928380D01*
X222742166Y-125880761D01*
X222789785Y-125833142D01*
X221599309Y-124928380D02*
X221504071Y-124928380D01*
X221408833Y-124976000D01*
X221361214Y-125023619D01*
X221313595Y-125118857D01*
X221265976Y-125309333D01*
X221265976Y-125547428D01*
X221313595Y-125737904D01*
X221361214Y-125833142D01*
X221408833Y-125880761D01*
X221504071Y-125928380D01*
X221599309Y-125928380D01*
X221694547Y-125880761D01*
X221742166Y-125833142D01*
X221789785Y-125737904D01*
X221837404Y-125547428D01*
X221837404Y-125309333D01*
X221789785Y-125118857D01*
X221742166Y-125023619D01*
X221694547Y-124976000D01*
X221599309Y-124928380D01*
G04 #@! TO.C,SW49*
X220122523Y-106830761D02*
X219979666Y-106878380D01*
X219741571Y-106878380D01*
X219646333Y-106830761D01*
X219598714Y-106783142D01*
X219551095Y-106687904D01*
X219551095Y-106592666D01*
X219598714Y-106497428D01*
X219646333Y-106449809D01*
X219741571Y-106402190D01*
X219932047Y-106354571D01*
X220027285Y-106306952D01*
X220074904Y-106259333D01*
X220122523Y-106164095D01*
X220122523Y-106068857D01*
X220074904Y-105973619D01*
X220027285Y-105926000D01*
X219932047Y-105878380D01*
X219693952Y-105878380D01*
X219551095Y-105926000D01*
X219217761Y-105878380D02*
X218979666Y-106878380D01*
X218789190Y-106164095D01*
X218598714Y-106878380D01*
X218360619Y-105878380D01*
X217551095Y-106211714D02*
X217551095Y-106878380D01*
X217789190Y-105830761D02*
X218027285Y-106545047D01*
X217408238Y-106545047D01*
X216979666Y-106878380D02*
X216789190Y-106878380D01*
X216693952Y-106830761D01*
X216646333Y-106783142D01*
X216551095Y-106640285D01*
X216503476Y-106449809D01*
X216503476Y-106068857D01*
X216551095Y-105973619D01*
X216598714Y-105926000D01*
X216693952Y-105878380D01*
X216884428Y-105878380D01*
X216979666Y-105926000D01*
X217027285Y-105973619D01*
X217074904Y-106068857D01*
X217074904Y-106306952D01*
X217027285Y-106402190D01*
X216979666Y-106449809D01*
X216884428Y-106497428D01*
X216693952Y-106497428D01*
X216598714Y-106449809D01*
X216551095Y-106402190D01*
X216503476Y-106306952D01*
G04 #@! TO.C,SW48*
X305847523Y-163980761D02*
X305704666Y-164028380D01*
X305466571Y-164028380D01*
X305371333Y-163980761D01*
X305323714Y-163933142D01*
X305276095Y-163837904D01*
X305276095Y-163742666D01*
X305323714Y-163647428D01*
X305371333Y-163599809D01*
X305466571Y-163552190D01*
X305657047Y-163504571D01*
X305752285Y-163456952D01*
X305799904Y-163409333D01*
X305847523Y-163314095D01*
X305847523Y-163218857D01*
X305799904Y-163123619D01*
X305752285Y-163076000D01*
X305657047Y-163028380D01*
X305418952Y-163028380D01*
X305276095Y-163076000D01*
X304942761Y-163028380D02*
X304704666Y-164028380D01*
X304514190Y-163314095D01*
X304323714Y-164028380D01*
X304085619Y-163028380D01*
X303276095Y-163361714D02*
X303276095Y-164028380D01*
X303514190Y-162980761D02*
X303752285Y-163695047D01*
X303133238Y-163695047D01*
X302609428Y-163456952D02*
X302704666Y-163409333D01*
X302752285Y-163361714D01*
X302799904Y-163266476D01*
X302799904Y-163218857D01*
X302752285Y-163123619D01*
X302704666Y-163076000D01*
X302609428Y-163028380D01*
X302418952Y-163028380D01*
X302323714Y-163076000D01*
X302276095Y-163123619D01*
X302228476Y-163218857D01*
X302228476Y-163266476D01*
X302276095Y-163361714D01*
X302323714Y-163409333D01*
X302418952Y-163456952D01*
X302609428Y-163456952D01*
X302704666Y-163504571D01*
X302752285Y-163552190D01*
X302799904Y-163647428D01*
X302799904Y-163837904D01*
X302752285Y-163933142D01*
X302704666Y-163980761D01*
X302609428Y-164028380D01*
X302418952Y-164028380D01*
X302323714Y-163980761D01*
X302276095Y-163933142D01*
X302228476Y-163837904D01*
X302228476Y-163647428D01*
X302276095Y-163552190D01*
X302323714Y-163504571D01*
X302418952Y-163456952D01*
G04 #@! TO.C,SW47*
X215360023Y-144930761D02*
X215217166Y-144978380D01*
X214979071Y-144978380D01*
X214883833Y-144930761D01*
X214836214Y-144883142D01*
X214788595Y-144787904D01*
X214788595Y-144692666D01*
X214836214Y-144597428D01*
X214883833Y-144549809D01*
X214979071Y-144502190D01*
X215169547Y-144454571D01*
X215264785Y-144406952D01*
X215312404Y-144359333D01*
X215360023Y-144264095D01*
X215360023Y-144168857D01*
X215312404Y-144073619D01*
X215264785Y-144026000D01*
X215169547Y-143978380D01*
X214931452Y-143978380D01*
X214788595Y-144026000D01*
X214455261Y-143978380D02*
X214217166Y-144978380D01*
X214026690Y-144264095D01*
X213836214Y-144978380D01*
X213598119Y-143978380D01*
X212788595Y-144311714D02*
X212788595Y-144978380D01*
X213026690Y-143930761D02*
X213264785Y-144645047D01*
X212645738Y-144645047D01*
X212360023Y-143978380D02*
X211693357Y-143978380D01*
X212121928Y-144978380D01*
G04 #@! TO.C,SW46*
X205835023Y-125880761D02*
X205692166Y-125928380D01*
X205454071Y-125928380D01*
X205358833Y-125880761D01*
X205311214Y-125833142D01*
X205263595Y-125737904D01*
X205263595Y-125642666D01*
X205311214Y-125547428D01*
X205358833Y-125499809D01*
X205454071Y-125452190D01*
X205644547Y-125404571D01*
X205739785Y-125356952D01*
X205787404Y-125309333D01*
X205835023Y-125214095D01*
X205835023Y-125118857D01*
X205787404Y-125023619D01*
X205739785Y-124976000D01*
X205644547Y-124928380D01*
X205406452Y-124928380D01*
X205263595Y-124976000D01*
X204930261Y-124928380D02*
X204692166Y-125928380D01*
X204501690Y-125214095D01*
X204311214Y-125928380D01*
X204073119Y-124928380D01*
X203263595Y-125261714D02*
X203263595Y-125928380D01*
X203501690Y-124880761D02*
X203739785Y-125595047D01*
X203120738Y-125595047D01*
X202311214Y-124928380D02*
X202501690Y-124928380D01*
X202596928Y-124976000D01*
X202644547Y-125023619D01*
X202739785Y-125166476D01*
X202787404Y-125356952D01*
X202787404Y-125737904D01*
X202739785Y-125833142D01*
X202692166Y-125880761D01*
X202596928Y-125928380D01*
X202406452Y-125928380D01*
X202311214Y-125880761D01*
X202263595Y-125833142D01*
X202215976Y-125737904D01*
X202215976Y-125499809D01*
X202263595Y-125404571D01*
X202311214Y-125356952D01*
X202406452Y-125309333D01*
X202596928Y-125309333D01*
X202692166Y-125356952D01*
X202739785Y-125404571D01*
X202787404Y-125499809D01*
G04 #@! TO.C,SW45*
X201072523Y-106830761D02*
X200929666Y-106878380D01*
X200691571Y-106878380D01*
X200596333Y-106830761D01*
X200548714Y-106783142D01*
X200501095Y-106687904D01*
X200501095Y-106592666D01*
X200548714Y-106497428D01*
X200596333Y-106449809D01*
X200691571Y-106402190D01*
X200882047Y-106354571D01*
X200977285Y-106306952D01*
X201024904Y-106259333D01*
X201072523Y-106164095D01*
X201072523Y-106068857D01*
X201024904Y-105973619D01*
X200977285Y-105926000D01*
X200882047Y-105878380D01*
X200643952Y-105878380D01*
X200501095Y-105926000D01*
X200167761Y-105878380D02*
X199929666Y-106878380D01*
X199739190Y-106164095D01*
X199548714Y-106878380D01*
X199310619Y-105878380D01*
X198501095Y-106211714D02*
X198501095Y-106878380D01*
X198739190Y-105830761D02*
X198977285Y-106545047D01*
X198358238Y-106545047D01*
X197501095Y-105878380D02*
X197977285Y-105878380D01*
X198024904Y-106354571D01*
X197977285Y-106306952D01*
X197882047Y-106259333D01*
X197643952Y-106259333D01*
X197548714Y-106306952D01*
X197501095Y-106354571D01*
X197453476Y-106449809D01*
X197453476Y-106687904D01*
X197501095Y-106783142D01*
X197548714Y-106830761D01*
X197643952Y-106878380D01*
X197882047Y-106878380D01*
X197977285Y-106830761D01*
X198024904Y-106783142D01*
G04 #@! TO.C,SW44*
X286797523Y-163980761D02*
X286654666Y-164028380D01*
X286416571Y-164028380D01*
X286321333Y-163980761D01*
X286273714Y-163933142D01*
X286226095Y-163837904D01*
X286226095Y-163742666D01*
X286273714Y-163647428D01*
X286321333Y-163599809D01*
X286416571Y-163552190D01*
X286607047Y-163504571D01*
X286702285Y-163456952D01*
X286749904Y-163409333D01*
X286797523Y-163314095D01*
X286797523Y-163218857D01*
X286749904Y-163123619D01*
X286702285Y-163076000D01*
X286607047Y-163028380D01*
X286368952Y-163028380D01*
X286226095Y-163076000D01*
X285892761Y-163028380D02*
X285654666Y-164028380D01*
X285464190Y-163314095D01*
X285273714Y-164028380D01*
X285035619Y-163028380D01*
X284226095Y-163361714D02*
X284226095Y-164028380D01*
X284464190Y-162980761D02*
X284702285Y-163695047D01*
X284083238Y-163695047D01*
X283273714Y-163361714D02*
X283273714Y-164028380D01*
X283511809Y-162980761D02*
X283749904Y-163695047D01*
X283130857Y-163695047D01*
G04 #@! TO.C,SW43*
X196310023Y-144930761D02*
X196167166Y-144978380D01*
X195929071Y-144978380D01*
X195833833Y-144930761D01*
X195786214Y-144883142D01*
X195738595Y-144787904D01*
X195738595Y-144692666D01*
X195786214Y-144597428D01*
X195833833Y-144549809D01*
X195929071Y-144502190D01*
X196119547Y-144454571D01*
X196214785Y-144406952D01*
X196262404Y-144359333D01*
X196310023Y-144264095D01*
X196310023Y-144168857D01*
X196262404Y-144073619D01*
X196214785Y-144026000D01*
X196119547Y-143978380D01*
X195881452Y-143978380D01*
X195738595Y-144026000D01*
X195405261Y-143978380D02*
X195167166Y-144978380D01*
X194976690Y-144264095D01*
X194786214Y-144978380D01*
X194548119Y-143978380D01*
X193738595Y-144311714D02*
X193738595Y-144978380D01*
X193976690Y-143930761D02*
X194214785Y-144645047D01*
X193595738Y-144645047D01*
X193310023Y-143978380D02*
X192690976Y-143978380D01*
X193024309Y-144359333D01*
X192881452Y-144359333D01*
X192786214Y-144406952D01*
X192738595Y-144454571D01*
X192690976Y-144549809D01*
X192690976Y-144787904D01*
X192738595Y-144883142D01*
X192786214Y-144930761D01*
X192881452Y-144978380D01*
X193167166Y-144978380D01*
X193262404Y-144930761D01*
X193310023Y-144883142D01*
G04 #@! TO.C,SW42*
X186785023Y-125880761D02*
X186642166Y-125928380D01*
X186404071Y-125928380D01*
X186308833Y-125880761D01*
X186261214Y-125833142D01*
X186213595Y-125737904D01*
X186213595Y-125642666D01*
X186261214Y-125547428D01*
X186308833Y-125499809D01*
X186404071Y-125452190D01*
X186594547Y-125404571D01*
X186689785Y-125356952D01*
X186737404Y-125309333D01*
X186785023Y-125214095D01*
X186785023Y-125118857D01*
X186737404Y-125023619D01*
X186689785Y-124976000D01*
X186594547Y-124928380D01*
X186356452Y-124928380D01*
X186213595Y-124976000D01*
X185880261Y-124928380D02*
X185642166Y-125928380D01*
X185451690Y-125214095D01*
X185261214Y-125928380D01*
X185023119Y-124928380D01*
X184213595Y-125261714D02*
X184213595Y-125928380D01*
X184451690Y-124880761D02*
X184689785Y-125595047D01*
X184070738Y-125595047D01*
X183737404Y-125023619D02*
X183689785Y-124976000D01*
X183594547Y-124928380D01*
X183356452Y-124928380D01*
X183261214Y-124976000D01*
X183213595Y-125023619D01*
X183165976Y-125118857D01*
X183165976Y-125214095D01*
X183213595Y-125356952D01*
X183785023Y-125928380D01*
X183165976Y-125928380D01*
G04 #@! TO.C,SW41*
X182022523Y-106830761D02*
X181879666Y-106878380D01*
X181641571Y-106878380D01*
X181546333Y-106830761D01*
X181498714Y-106783142D01*
X181451095Y-106687904D01*
X181451095Y-106592666D01*
X181498714Y-106497428D01*
X181546333Y-106449809D01*
X181641571Y-106402190D01*
X181832047Y-106354571D01*
X181927285Y-106306952D01*
X181974904Y-106259333D01*
X182022523Y-106164095D01*
X182022523Y-106068857D01*
X181974904Y-105973619D01*
X181927285Y-105926000D01*
X181832047Y-105878380D01*
X181593952Y-105878380D01*
X181451095Y-105926000D01*
X181117761Y-105878380D02*
X180879666Y-106878380D01*
X180689190Y-106164095D01*
X180498714Y-106878380D01*
X180260619Y-105878380D01*
X179451095Y-106211714D02*
X179451095Y-106878380D01*
X179689190Y-105830761D02*
X179927285Y-106545047D01*
X179308238Y-106545047D01*
X178403476Y-106878380D02*
X178974904Y-106878380D01*
X178689190Y-106878380D02*
X178689190Y-105878380D01*
X178784428Y-106021238D01*
X178879666Y-106116476D01*
X178974904Y-106164095D01*
G04 #@! TO.C,SW40*
X267747523Y-163980761D02*
X267604666Y-164028380D01*
X267366571Y-164028380D01*
X267271333Y-163980761D01*
X267223714Y-163933142D01*
X267176095Y-163837904D01*
X267176095Y-163742666D01*
X267223714Y-163647428D01*
X267271333Y-163599809D01*
X267366571Y-163552190D01*
X267557047Y-163504571D01*
X267652285Y-163456952D01*
X267699904Y-163409333D01*
X267747523Y-163314095D01*
X267747523Y-163218857D01*
X267699904Y-163123619D01*
X267652285Y-163076000D01*
X267557047Y-163028380D01*
X267318952Y-163028380D01*
X267176095Y-163076000D01*
X266842761Y-163028380D02*
X266604666Y-164028380D01*
X266414190Y-163314095D01*
X266223714Y-164028380D01*
X265985619Y-163028380D01*
X265176095Y-163361714D02*
X265176095Y-164028380D01*
X265414190Y-162980761D02*
X265652285Y-163695047D01*
X265033238Y-163695047D01*
X264461809Y-163028380D02*
X264366571Y-163028380D01*
X264271333Y-163076000D01*
X264223714Y-163123619D01*
X264176095Y-163218857D01*
X264128476Y-163409333D01*
X264128476Y-163647428D01*
X264176095Y-163837904D01*
X264223714Y-163933142D01*
X264271333Y-163980761D01*
X264366571Y-164028380D01*
X264461809Y-164028380D01*
X264557047Y-163980761D01*
X264604666Y-163933142D01*
X264652285Y-163837904D01*
X264699904Y-163647428D01*
X264699904Y-163409333D01*
X264652285Y-163218857D01*
X264604666Y-163123619D01*
X264557047Y-163076000D01*
X264461809Y-163028380D01*
G04 #@! TO.C,SW39*
X177260023Y-144930761D02*
X177117166Y-144978380D01*
X176879071Y-144978380D01*
X176783833Y-144930761D01*
X176736214Y-144883142D01*
X176688595Y-144787904D01*
X176688595Y-144692666D01*
X176736214Y-144597428D01*
X176783833Y-144549809D01*
X176879071Y-144502190D01*
X177069547Y-144454571D01*
X177164785Y-144406952D01*
X177212404Y-144359333D01*
X177260023Y-144264095D01*
X177260023Y-144168857D01*
X177212404Y-144073619D01*
X177164785Y-144026000D01*
X177069547Y-143978380D01*
X176831452Y-143978380D01*
X176688595Y-144026000D01*
X176355261Y-143978380D02*
X176117166Y-144978380D01*
X175926690Y-144264095D01*
X175736214Y-144978380D01*
X175498119Y-143978380D01*
X175212404Y-143978380D02*
X174593357Y-143978380D01*
X174926690Y-144359333D01*
X174783833Y-144359333D01*
X174688595Y-144406952D01*
X174640976Y-144454571D01*
X174593357Y-144549809D01*
X174593357Y-144787904D01*
X174640976Y-144883142D01*
X174688595Y-144930761D01*
X174783833Y-144978380D01*
X175069547Y-144978380D01*
X175164785Y-144930761D01*
X175212404Y-144883142D01*
X174117166Y-144978380D02*
X173926690Y-144978380D01*
X173831452Y-144930761D01*
X173783833Y-144883142D01*
X173688595Y-144740285D01*
X173640976Y-144549809D01*
X173640976Y-144168857D01*
X173688595Y-144073619D01*
X173736214Y-144026000D01*
X173831452Y-143978380D01*
X174021928Y-143978380D01*
X174117166Y-144026000D01*
X174164785Y-144073619D01*
X174212404Y-144168857D01*
X174212404Y-144406952D01*
X174164785Y-144502190D01*
X174117166Y-144549809D01*
X174021928Y-144597428D01*
X173831452Y-144597428D01*
X173736214Y-144549809D01*
X173688595Y-144502190D01*
X173640976Y-144406952D01*
G04 #@! TO.C,SW38*
X167735023Y-125880761D02*
X167592166Y-125928380D01*
X167354071Y-125928380D01*
X167258833Y-125880761D01*
X167211214Y-125833142D01*
X167163595Y-125737904D01*
X167163595Y-125642666D01*
X167211214Y-125547428D01*
X167258833Y-125499809D01*
X167354071Y-125452190D01*
X167544547Y-125404571D01*
X167639785Y-125356952D01*
X167687404Y-125309333D01*
X167735023Y-125214095D01*
X167735023Y-125118857D01*
X167687404Y-125023619D01*
X167639785Y-124976000D01*
X167544547Y-124928380D01*
X167306452Y-124928380D01*
X167163595Y-124976000D01*
X166830261Y-124928380D02*
X166592166Y-125928380D01*
X166401690Y-125214095D01*
X166211214Y-125928380D01*
X165973119Y-124928380D01*
X165687404Y-124928380D02*
X165068357Y-124928380D01*
X165401690Y-125309333D01*
X165258833Y-125309333D01*
X165163595Y-125356952D01*
X165115976Y-125404571D01*
X165068357Y-125499809D01*
X165068357Y-125737904D01*
X165115976Y-125833142D01*
X165163595Y-125880761D01*
X165258833Y-125928380D01*
X165544547Y-125928380D01*
X165639785Y-125880761D01*
X165687404Y-125833142D01*
X164496928Y-125356952D02*
X164592166Y-125309333D01*
X164639785Y-125261714D01*
X164687404Y-125166476D01*
X164687404Y-125118857D01*
X164639785Y-125023619D01*
X164592166Y-124976000D01*
X164496928Y-124928380D01*
X164306452Y-124928380D01*
X164211214Y-124976000D01*
X164163595Y-125023619D01*
X164115976Y-125118857D01*
X164115976Y-125166476D01*
X164163595Y-125261714D01*
X164211214Y-125309333D01*
X164306452Y-125356952D01*
X164496928Y-125356952D01*
X164592166Y-125404571D01*
X164639785Y-125452190D01*
X164687404Y-125547428D01*
X164687404Y-125737904D01*
X164639785Y-125833142D01*
X164592166Y-125880761D01*
X164496928Y-125928380D01*
X164306452Y-125928380D01*
X164211214Y-125880761D01*
X164163595Y-125833142D01*
X164115976Y-125737904D01*
X164115976Y-125547428D01*
X164163595Y-125452190D01*
X164211214Y-125404571D01*
X164306452Y-125356952D01*
G04 #@! TO.C,SW36*
X248697523Y-163980761D02*
X248554666Y-164028380D01*
X248316571Y-164028380D01*
X248221333Y-163980761D01*
X248173714Y-163933142D01*
X248126095Y-163837904D01*
X248126095Y-163742666D01*
X248173714Y-163647428D01*
X248221333Y-163599809D01*
X248316571Y-163552190D01*
X248507047Y-163504571D01*
X248602285Y-163456952D01*
X248649904Y-163409333D01*
X248697523Y-163314095D01*
X248697523Y-163218857D01*
X248649904Y-163123619D01*
X248602285Y-163076000D01*
X248507047Y-163028380D01*
X248268952Y-163028380D01*
X248126095Y-163076000D01*
X247792761Y-163028380D02*
X247554666Y-164028380D01*
X247364190Y-163314095D01*
X247173714Y-164028380D01*
X246935619Y-163028380D01*
X246649904Y-163028380D02*
X246030857Y-163028380D01*
X246364190Y-163409333D01*
X246221333Y-163409333D01*
X246126095Y-163456952D01*
X246078476Y-163504571D01*
X246030857Y-163599809D01*
X246030857Y-163837904D01*
X246078476Y-163933142D01*
X246126095Y-163980761D01*
X246221333Y-164028380D01*
X246507047Y-164028380D01*
X246602285Y-163980761D01*
X246649904Y-163933142D01*
X245173714Y-163028380D02*
X245364190Y-163028380D01*
X245459428Y-163076000D01*
X245507047Y-163123619D01*
X245602285Y-163266476D01*
X245649904Y-163456952D01*
X245649904Y-163837904D01*
X245602285Y-163933142D01*
X245554666Y-163980761D01*
X245459428Y-164028380D01*
X245268952Y-164028380D01*
X245173714Y-163980761D01*
X245126095Y-163933142D01*
X245078476Y-163837904D01*
X245078476Y-163599809D01*
X245126095Y-163504571D01*
X245173714Y-163456952D01*
X245268952Y-163409333D01*
X245459428Y-163409333D01*
X245554666Y-163456952D01*
X245602285Y-163504571D01*
X245649904Y-163599809D01*
G04 #@! TO.C,SW35*
X158210023Y-144930761D02*
X158067166Y-144978380D01*
X157829071Y-144978380D01*
X157733833Y-144930761D01*
X157686214Y-144883142D01*
X157638595Y-144787904D01*
X157638595Y-144692666D01*
X157686214Y-144597428D01*
X157733833Y-144549809D01*
X157829071Y-144502190D01*
X158019547Y-144454571D01*
X158114785Y-144406952D01*
X158162404Y-144359333D01*
X158210023Y-144264095D01*
X158210023Y-144168857D01*
X158162404Y-144073619D01*
X158114785Y-144026000D01*
X158019547Y-143978380D01*
X157781452Y-143978380D01*
X157638595Y-144026000D01*
X157305261Y-143978380D02*
X157067166Y-144978380D01*
X156876690Y-144264095D01*
X156686214Y-144978380D01*
X156448119Y-143978380D01*
X156162404Y-143978380D02*
X155543357Y-143978380D01*
X155876690Y-144359333D01*
X155733833Y-144359333D01*
X155638595Y-144406952D01*
X155590976Y-144454571D01*
X155543357Y-144549809D01*
X155543357Y-144787904D01*
X155590976Y-144883142D01*
X155638595Y-144930761D01*
X155733833Y-144978380D01*
X156019547Y-144978380D01*
X156114785Y-144930761D01*
X156162404Y-144883142D01*
X154638595Y-143978380D02*
X155114785Y-143978380D01*
X155162404Y-144454571D01*
X155114785Y-144406952D01*
X155019547Y-144359333D01*
X154781452Y-144359333D01*
X154686214Y-144406952D01*
X154638595Y-144454571D01*
X154590976Y-144549809D01*
X154590976Y-144787904D01*
X154638595Y-144883142D01*
X154686214Y-144930761D01*
X154781452Y-144978380D01*
X155019547Y-144978380D01*
X155114785Y-144930761D01*
X155162404Y-144883142D01*
G04 #@! TO.C,SW34*
X148685023Y-125880761D02*
X148542166Y-125928380D01*
X148304071Y-125928380D01*
X148208833Y-125880761D01*
X148161214Y-125833142D01*
X148113595Y-125737904D01*
X148113595Y-125642666D01*
X148161214Y-125547428D01*
X148208833Y-125499809D01*
X148304071Y-125452190D01*
X148494547Y-125404571D01*
X148589785Y-125356952D01*
X148637404Y-125309333D01*
X148685023Y-125214095D01*
X148685023Y-125118857D01*
X148637404Y-125023619D01*
X148589785Y-124976000D01*
X148494547Y-124928380D01*
X148256452Y-124928380D01*
X148113595Y-124976000D01*
X147780261Y-124928380D02*
X147542166Y-125928380D01*
X147351690Y-125214095D01*
X147161214Y-125928380D01*
X146923119Y-124928380D01*
X146637404Y-124928380D02*
X146018357Y-124928380D01*
X146351690Y-125309333D01*
X146208833Y-125309333D01*
X146113595Y-125356952D01*
X146065976Y-125404571D01*
X146018357Y-125499809D01*
X146018357Y-125737904D01*
X146065976Y-125833142D01*
X146113595Y-125880761D01*
X146208833Y-125928380D01*
X146494547Y-125928380D01*
X146589785Y-125880761D01*
X146637404Y-125833142D01*
X145161214Y-125261714D02*
X145161214Y-125928380D01*
X145399309Y-124880761D02*
X145637404Y-125595047D01*
X145018357Y-125595047D01*
G04 #@! TO.C,SW33*
X143922523Y-106830761D02*
X143779666Y-106878380D01*
X143541571Y-106878380D01*
X143446333Y-106830761D01*
X143398714Y-106783142D01*
X143351095Y-106687904D01*
X143351095Y-106592666D01*
X143398714Y-106497428D01*
X143446333Y-106449809D01*
X143541571Y-106402190D01*
X143732047Y-106354571D01*
X143827285Y-106306952D01*
X143874904Y-106259333D01*
X143922523Y-106164095D01*
X143922523Y-106068857D01*
X143874904Y-105973619D01*
X143827285Y-105926000D01*
X143732047Y-105878380D01*
X143493952Y-105878380D01*
X143351095Y-105926000D01*
X143017761Y-105878380D02*
X142779666Y-106878380D01*
X142589190Y-106164095D01*
X142398714Y-106878380D01*
X142160619Y-105878380D01*
X141874904Y-105878380D02*
X141255857Y-105878380D01*
X141589190Y-106259333D01*
X141446333Y-106259333D01*
X141351095Y-106306952D01*
X141303476Y-106354571D01*
X141255857Y-106449809D01*
X141255857Y-106687904D01*
X141303476Y-106783142D01*
X141351095Y-106830761D01*
X141446333Y-106878380D01*
X141732047Y-106878380D01*
X141827285Y-106830761D01*
X141874904Y-106783142D01*
X140922523Y-105878380D02*
X140303476Y-105878380D01*
X140636809Y-106259333D01*
X140493952Y-106259333D01*
X140398714Y-106306952D01*
X140351095Y-106354571D01*
X140303476Y-106449809D01*
X140303476Y-106687904D01*
X140351095Y-106783142D01*
X140398714Y-106830761D01*
X140493952Y-106878380D01*
X140779666Y-106878380D01*
X140874904Y-106830761D01*
X140922523Y-106783142D01*
G04 #@! TO.C,SW32*
X179641273Y-163980761D02*
X179498416Y-164028380D01*
X179260321Y-164028380D01*
X179165083Y-163980761D01*
X179117464Y-163933142D01*
X179069845Y-163837904D01*
X179069845Y-163742666D01*
X179117464Y-163647428D01*
X179165083Y-163599809D01*
X179260321Y-163552190D01*
X179450797Y-163504571D01*
X179546035Y-163456952D01*
X179593654Y-163409333D01*
X179641273Y-163314095D01*
X179641273Y-163218857D01*
X179593654Y-163123619D01*
X179546035Y-163076000D01*
X179450797Y-163028380D01*
X179212702Y-163028380D01*
X179069845Y-163076000D01*
X178736511Y-163028380D02*
X178498416Y-164028380D01*
X178307940Y-163314095D01*
X178117464Y-164028380D01*
X177879369Y-163028380D01*
X177593654Y-163028380D02*
X176974607Y-163028380D01*
X177307940Y-163409333D01*
X177165083Y-163409333D01*
X177069845Y-163456952D01*
X177022226Y-163504571D01*
X176974607Y-163599809D01*
X176974607Y-163837904D01*
X177022226Y-163933142D01*
X177069845Y-163980761D01*
X177165083Y-164028380D01*
X177450797Y-164028380D01*
X177546035Y-163980761D01*
X177593654Y-163933142D01*
X176593654Y-163123619D02*
X176546035Y-163076000D01*
X176450797Y-163028380D01*
X176212702Y-163028380D01*
X176117464Y-163076000D01*
X176069845Y-163123619D01*
X176022226Y-163218857D01*
X176022226Y-163314095D01*
X176069845Y-163456952D01*
X176641273Y-164028380D01*
X176022226Y-164028380D01*
G04 #@! TO.C,SW31*
X139160023Y-144930761D02*
X139017166Y-144978380D01*
X138779071Y-144978380D01*
X138683833Y-144930761D01*
X138636214Y-144883142D01*
X138588595Y-144787904D01*
X138588595Y-144692666D01*
X138636214Y-144597428D01*
X138683833Y-144549809D01*
X138779071Y-144502190D01*
X138969547Y-144454571D01*
X139064785Y-144406952D01*
X139112404Y-144359333D01*
X139160023Y-144264095D01*
X139160023Y-144168857D01*
X139112404Y-144073619D01*
X139064785Y-144026000D01*
X138969547Y-143978380D01*
X138731452Y-143978380D01*
X138588595Y-144026000D01*
X138255261Y-143978380D02*
X138017166Y-144978380D01*
X137826690Y-144264095D01*
X137636214Y-144978380D01*
X137398119Y-143978380D01*
X137112404Y-143978380D02*
X136493357Y-143978380D01*
X136826690Y-144359333D01*
X136683833Y-144359333D01*
X136588595Y-144406952D01*
X136540976Y-144454571D01*
X136493357Y-144549809D01*
X136493357Y-144787904D01*
X136540976Y-144883142D01*
X136588595Y-144930761D01*
X136683833Y-144978380D01*
X136969547Y-144978380D01*
X137064785Y-144930761D01*
X137112404Y-144883142D01*
X135540976Y-144978380D02*
X136112404Y-144978380D01*
X135826690Y-144978380D02*
X135826690Y-143978380D01*
X135921928Y-144121238D01*
X136017166Y-144216476D01*
X136112404Y-144264095D01*
G04 #@! TO.C,SW30*
X129635023Y-125880761D02*
X129492166Y-125928380D01*
X129254071Y-125928380D01*
X129158833Y-125880761D01*
X129111214Y-125833142D01*
X129063595Y-125737904D01*
X129063595Y-125642666D01*
X129111214Y-125547428D01*
X129158833Y-125499809D01*
X129254071Y-125452190D01*
X129444547Y-125404571D01*
X129539785Y-125356952D01*
X129587404Y-125309333D01*
X129635023Y-125214095D01*
X129635023Y-125118857D01*
X129587404Y-125023619D01*
X129539785Y-124976000D01*
X129444547Y-124928380D01*
X129206452Y-124928380D01*
X129063595Y-124976000D01*
X128730261Y-124928380D02*
X128492166Y-125928380D01*
X128301690Y-125214095D01*
X128111214Y-125928380D01*
X127873119Y-124928380D01*
X127587404Y-124928380D02*
X126968357Y-124928380D01*
X127301690Y-125309333D01*
X127158833Y-125309333D01*
X127063595Y-125356952D01*
X127015976Y-125404571D01*
X126968357Y-125499809D01*
X126968357Y-125737904D01*
X127015976Y-125833142D01*
X127063595Y-125880761D01*
X127158833Y-125928380D01*
X127444547Y-125928380D01*
X127539785Y-125880761D01*
X127587404Y-125833142D01*
X126349309Y-124928380D02*
X126254071Y-124928380D01*
X126158833Y-124976000D01*
X126111214Y-125023619D01*
X126063595Y-125118857D01*
X126015976Y-125309333D01*
X126015976Y-125547428D01*
X126063595Y-125737904D01*
X126111214Y-125833142D01*
X126158833Y-125880761D01*
X126254071Y-125928380D01*
X126349309Y-125928380D01*
X126444547Y-125880761D01*
X126492166Y-125833142D01*
X126539785Y-125737904D01*
X126587404Y-125547428D01*
X126587404Y-125309333D01*
X126539785Y-125118857D01*
X126492166Y-125023619D01*
X126444547Y-124976000D01*
X126349309Y-124928380D01*
G04 #@! TO.C,SW28*
X108203773Y-163980761D02*
X108060916Y-164028380D01*
X107822821Y-164028380D01*
X107727583Y-163980761D01*
X107679964Y-163933142D01*
X107632345Y-163837904D01*
X107632345Y-163742666D01*
X107679964Y-163647428D01*
X107727583Y-163599809D01*
X107822821Y-163552190D01*
X108013297Y-163504571D01*
X108108535Y-163456952D01*
X108156154Y-163409333D01*
X108203773Y-163314095D01*
X108203773Y-163218857D01*
X108156154Y-163123619D01*
X108108535Y-163076000D01*
X108013297Y-163028380D01*
X107775202Y-163028380D01*
X107632345Y-163076000D01*
X107299011Y-163028380D02*
X107060916Y-164028380D01*
X106870440Y-163314095D01*
X106679964Y-164028380D01*
X106441869Y-163028380D01*
X106108535Y-163123619D02*
X106060916Y-163076000D01*
X105965678Y-163028380D01*
X105727583Y-163028380D01*
X105632345Y-163076000D01*
X105584726Y-163123619D01*
X105537107Y-163218857D01*
X105537107Y-163314095D01*
X105584726Y-163456952D01*
X106156154Y-164028380D01*
X105537107Y-164028380D01*
X104965678Y-163456952D02*
X105060916Y-163409333D01*
X105108535Y-163361714D01*
X105156154Y-163266476D01*
X105156154Y-163218857D01*
X105108535Y-163123619D01*
X105060916Y-163076000D01*
X104965678Y-163028380D01*
X104775202Y-163028380D01*
X104679964Y-163076000D01*
X104632345Y-163123619D01*
X104584726Y-163218857D01*
X104584726Y-163266476D01*
X104632345Y-163361714D01*
X104679964Y-163409333D01*
X104775202Y-163456952D01*
X104965678Y-163456952D01*
X105060916Y-163504571D01*
X105108535Y-163552190D01*
X105156154Y-163647428D01*
X105156154Y-163837904D01*
X105108535Y-163933142D01*
X105060916Y-163980761D01*
X104965678Y-164028380D01*
X104775202Y-164028380D01*
X104679964Y-163980761D01*
X104632345Y-163933142D01*
X104584726Y-163837904D01*
X104584726Y-163647428D01*
X104632345Y-163552190D01*
X104679964Y-163504571D01*
X104775202Y-163456952D01*
G04 #@! TO.C,SW27*
X120110023Y-144930761D02*
X119967166Y-144978380D01*
X119729071Y-144978380D01*
X119633833Y-144930761D01*
X119586214Y-144883142D01*
X119538595Y-144787904D01*
X119538595Y-144692666D01*
X119586214Y-144597428D01*
X119633833Y-144549809D01*
X119729071Y-144502190D01*
X119919547Y-144454571D01*
X120014785Y-144406952D01*
X120062404Y-144359333D01*
X120110023Y-144264095D01*
X120110023Y-144168857D01*
X120062404Y-144073619D01*
X120014785Y-144026000D01*
X119919547Y-143978380D01*
X119681452Y-143978380D01*
X119538595Y-144026000D01*
X119205261Y-143978380D02*
X118967166Y-144978380D01*
X118776690Y-144264095D01*
X118586214Y-144978380D01*
X118348119Y-143978380D01*
X118014785Y-144073619D02*
X117967166Y-144026000D01*
X117871928Y-143978380D01*
X117633833Y-143978380D01*
X117538595Y-144026000D01*
X117490976Y-144073619D01*
X117443357Y-144168857D01*
X117443357Y-144264095D01*
X117490976Y-144406952D01*
X118062404Y-144978380D01*
X117443357Y-144978380D01*
X117110023Y-143978380D02*
X116443357Y-143978380D01*
X116871928Y-144978380D01*
G04 #@! TO.C,SW26*
X110585023Y-125880761D02*
X110442166Y-125928380D01*
X110204071Y-125928380D01*
X110108833Y-125880761D01*
X110061214Y-125833142D01*
X110013595Y-125737904D01*
X110013595Y-125642666D01*
X110061214Y-125547428D01*
X110108833Y-125499809D01*
X110204071Y-125452190D01*
X110394547Y-125404571D01*
X110489785Y-125356952D01*
X110537404Y-125309333D01*
X110585023Y-125214095D01*
X110585023Y-125118857D01*
X110537404Y-125023619D01*
X110489785Y-124976000D01*
X110394547Y-124928380D01*
X110156452Y-124928380D01*
X110013595Y-124976000D01*
X109680261Y-124928380D02*
X109442166Y-125928380D01*
X109251690Y-125214095D01*
X109061214Y-125928380D01*
X108823119Y-124928380D01*
X108489785Y-125023619D02*
X108442166Y-124976000D01*
X108346928Y-124928380D01*
X108108833Y-124928380D01*
X108013595Y-124976000D01*
X107965976Y-125023619D01*
X107918357Y-125118857D01*
X107918357Y-125214095D01*
X107965976Y-125356952D01*
X108537404Y-125928380D01*
X107918357Y-125928380D01*
X107061214Y-124928380D02*
X107251690Y-124928380D01*
X107346928Y-124976000D01*
X107394547Y-125023619D01*
X107489785Y-125166476D01*
X107537404Y-125356952D01*
X107537404Y-125737904D01*
X107489785Y-125833142D01*
X107442166Y-125880761D01*
X107346928Y-125928380D01*
X107156452Y-125928380D01*
X107061214Y-125880761D01*
X107013595Y-125833142D01*
X106965976Y-125737904D01*
X106965976Y-125499809D01*
X107013595Y-125404571D01*
X107061214Y-125356952D01*
X107156452Y-125309333D01*
X107346928Y-125309333D01*
X107442166Y-125356952D01*
X107489785Y-125404571D01*
X107537404Y-125499809D01*
G04 #@! TO.C,SW25*
X105822523Y-106830761D02*
X105679666Y-106878380D01*
X105441571Y-106878380D01*
X105346333Y-106830761D01*
X105298714Y-106783142D01*
X105251095Y-106687904D01*
X105251095Y-106592666D01*
X105298714Y-106497428D01*
X105346333Y-106449809D01*
X105441571Y-106402190D01*
X105632047Y-106354571D01*
X105727285Y-106306952D01*
X105774904Y-106259333D01*
X105822523Y-106164095D01*
X105822523Y-106068857D01*
X105774904Y-105973619D01*
X105727285Y-105926000D01*
X105632047Y-105878380D01*
X105393952Y-105878380D01*
X105251095Y-105926000D01*
X104917761Y-105878380D02*
X104679666Y-106878380D01*
X104489190Y-106164095D01*
X104298714Y-106878380D01*
X104060619Y-105878380D01*
X103727285Y-105973619D02*
X103679666Y-105926000D01*
X103584428Y-105878380D01*
X103346333Y-105878380D01*
X103251095Y-105926000D01*
X103203476Y-105973619D01*
X103155857Y-106068857D01*
X103155857Y-106164095D01*
X103203476Y-106306952D01*
X103774904Y-106878380D01*
X103155857Y-106878380D01*
X102251095Y-105878380D02*
X102727285Y-105878380D01*
X102774904Y-106354571D01*
X102727285Y-106306952D01*
X102632047Y-106259333D01*
X102393952Y-106259333D01*
X102298714Y-106306952D01*
X102251095Y-106354571D01*
X102203476Y-106449809D01*
X102203476Y-106687904D01*
X102251095Y-106783142D01*
X102298714Y-106830761D01*
X102393952Y-106878380D01*
X102632047Y-106878380D01*
X102727285Y-106830761D01*
X102774904Y-106783142D01*
G04 #@! TO.C,SW24*
X84391273Y-163980761D02*
X84248416Y-164028380D01*
X84010321Y-164028380D01*
X83915083Y-163980761D01*
X83867464Y-163933142D01*
X83819845Y-163837904D01*
X83819845Y-163742666D01*
X83867464Y-163647428D01*
X83915083Y-163599809D01*
X84010321Y-163552190D01*
X84200797Y-163504571D01*
X84296035Y-163456952D01*
X84343654Y-163409333D01*
X84391273Y-163314095D01*
X84391273Y-163218857D01*
X84343654Y-163123619D01*
X84296035Y-163076000D01*
X84200797Y-163028380D01*
X83962702Y-163028380D01*
X83819845Y-163076000D01*
X83486511Y-163028380D02*
X83248416Y-164028380D01*
X83057940Y-163314095D01*
X82867464Y-164028380D01*
X82629369Y-163028380D01*
X82296035Y-163123619D02*
X82248416Y-163076000D01*
X82153178Y-163028380D01*
X81915083Y-163028380D01*
X81819845Y-163076000D01*
X81772226Y-163123619D01*
X81724607Y-163218857D01*
X81724607Y-163314095D01*
X81772226Y-163456952D01*
X82343654Y-164028380D01*
X81724607Y-164028380D01*
X80867464Y-163361714D02*
X80867464Y-164028380D01*
X81105559Y-162980761D02*
X81343654Y-163695047D01*
X80724607Y-163695047D01*
G04 #@! TO.C,SW23*
X101060023Y-144930761D02*
X100917166Y-144978380D01*
X100679071Y-144978380D01*
X100583833Y-144930761D01*
X100536214Y-144883142D01*
X100488595Y-144787904D01*
X100488595Y-144692666D01*
X100536214Y-144597428D01*
X100583833Y-144549809D01*
X100679071Y-144502190D01*
X100869547Y-144454571D01*
X100964785Y-144406952D01*
X101012404Y-144359333D01*
X101060023Y-144264095D01*
X101060023Y-144168857D01*
X101012404Y-144073619D01*
X100964785Y-144026000D01*
X100869547Y-143978380D01*
X100631452Y-143978380D01*
X100488595Y-144026000D01*
X100155261Y-143978380D02*
X99917166Y-144978380D01*
X99726690Y-144264095D01*
X99536214Y-144978380D01*
X99298119Y-143978380D01*
X98964785Y-144073619D02*
X98917166Y-144026000D01*
X98821928Y-143978380D01*
X98583833Y-143978380D01*
X98488595Y-144026000D01*
X98440976Y-144073619D01*
X98393357Y-144168857D01*
X98393357Y-144264095D01*
X98440976Y-144406952D01*
X99012404Y-144978380D01*
X98393357Y-144978380D01*
X98060023Y-143978380D02*
X97440976Y-143978380D01*
X97774309Y-144359333D01*
X97631452Y-144359333D01*
X97536214Y-144406952D01*
X97488595Y-144454571D01*
X97440976Y-144549809D01*
X97440976Y-144787904D01*
X97488595Y-144883142D01*
X97536214Y-144930761D01*
X97631452Y-144978380D01*
X97917166Y-144978380D01*
X98012404Y-144930761D01*
X98060023Y-144883142D01*
G04 #@! TO.C,SW22*
X91535023Y-125880761D02*
X91392166Y-125928380D01*
X91154071Y-125928380D01*
X91058833Y-125880761D01*
X91011214Y-125833142D01*
X90963595Y-125737904D01*
X90963595Y-125642666D01*
X91011214Y-125547428D01*
X91058833Y-125499809D01*
X91154071Y-125452190D01*
X91344547Y-125404571D01*
X91439785Y-125356952D01*
X91487404Y-125309333D01*
X91535023Y-125214095D01*
X91535023Y-125118857D01*
X91487404Y-125023619D01*
X91439785Y-124976000D01*
X91344547Y-124928380D01*
X91106452Y-124928380D01*
X90963595Y-124976000D01*
X90630261Y-124928380D02*
X90392166Y-125928380D01*
X90201690Y-125214095D01*
X90011214Y-125928380D01*
X89773119Y-124928380D01*
X89439785Y-125023619D02*
X89392166Y-124976000D01*
X89296928Y-124928380D01*
X89058833Y-124928380D01*
X88963595Y-124976000D01*
X88915976Y-125023619D01*
X88868357Y-125118857D01*
X88868357Y-125214095D01*
X88915976Y-125356952D01*
X89487404Y-125928380D01*
X88868357Y-125928380D01*
X88487404Y-125023619D02*
X88439785Y-124976000D01*
X88344547Y-124928380D01*
X88106452Y-124928380D01*
X88011214Y-124976000D01*
X87963595Y-125023619D01*
X87915976Y-125118857D01*
X87915976Y-125214095D01*
X87963595Y-125356952D01*
X88535023Y-125928380D01*
X87915976Y-125928380D01*
G04 #@! TO.C,SW21*
X86772523Y-106830761D02*
X86629666Y-106878380D01*
X86391571Y-106878380D01*
X86296333Y-106830761D01*
X86248714Y-106783142D01*
X86201095Y-106687904D01*
X86201095Y-106592666D01*
X86248714Y-106497428D01*
X86296333Y-106449809D01*
X86391571Y-106402190D01*
X86582047Y-106354571D01*
X86677285Y-106306952D01*
X86724904Y-106259333D01*
X86772523Y-106164095D01*
X86772523Y-106068857D01*
X86724904Y-105973619D01*
X86677285Y-105926000D01*
X86582047Y-105878380D01*
X86343952Y-105878380D01*
X86201095Y-105926000D01*
X85867761Y-105878380D02*
X85629666Y-106878380D01*
X85439190Y-106164095D01*
X85248714Y-106878380D01*
X85010619Y-105878380D01*
X84677285Y-105973619D02*
X84629666Y-105926000D01*
X84534428Y-105878380D01*
X84296333Y-105878380D01*
X84201095Y-105926000D01*
X84153476Y-105973619D01*
X84105857Y-106068857D01*
X84105857Y-106164095D01*
X84153476Y-106306952D01*
X84724904Y-106878380D01*
X84105857Y-106878380D01*
X83153476Y-106878380D02*
X83724904Y-106878380D01*
X83439190Y-106878380D02*
X83439190Y-105878380D01*
X83534428Y-106021238D01*
X83629666Y-106116476D01*
X83724904Y-106164095D01*
G04 #@! TO.C,SW20*
X60578773Y-163980761D02*
X60435916Y-164028380D01*
X60197821Y-164028380D01*
X60102583Y-163980761D01*
X60054964Y-163933142D01*
X60007345Y-163837904D01*
X60007345Y-163742666D01*
X60054964Y-163647428D01*
X60102583Y-163599809D01*
X60197821Y-163552190D01*
X60388297Y-163504571D01*
X60483535Y-163456952D01*
X60531154Y-163409333D01*
X60578773Y-163314095D01*
X60578773Y-163218857D01*
X60531154Y-163123619D01*
X60483535Y-163076000D01*
X60388297Y-163028380D01*
X60150202Y-163028380D01*
X60007345Y-163076000D01*
X59674011Y-163028380D02*
X59435916Y-164028380D01*
X59245440Y-163314095D01*
X59054964Y-164028380D01*
X58816869Y-163028380D01*
X58483535Y-163123619D02*
X58435916Y-163076000D01*
X58340678Y-163028380D01*
X58102583Y-163028380D01*
X58007345Y-163076000D01*
X57959726Y-163123619D01*
X57912107Y-163218857D01*
X57912107Y-163314095D01*
X57959726Y-163456952D01*
X58531154Y-164028380D01*
X57912107Y-164028380D01*
X57293059Y-163028380D02*
X57197821Y-163028380D01*
X57102583Y-163076000D01*
X57054964Y-163123619D01*
X57007345Y-163218857D01*
X56959726Y-163409333D01*
X56959726Y-163647428D01*
X57007345Y-163837904D01*
X57054964Y-163933142D01*
X57102583Y-163980761D01*
X57197821Y-164028380D01*
X57293059Y-164028380D01*
X57388297Y-163980761D01*
X57435916Y-163933142D01*
X57483535Y-163837904D01*
X57531154Y-163647428D01*
X57531154Y-163409333D01*
X57483535Y-163218857D01*
X57435916Y-163123619D01*
X57388297Y-163076000D01*
X57293059Y-163028380D01*
G04 #@! TO.C,SW19*
X70103773Y-144930761D02*
X69960916Y-144978380D01*
X69722821Y-144978380D01*
X69627583Y-144930761D01*
X69579964Y-144883142D01*
X69532345Y-144787904D01*
X69532345Y-144692666D01*
X69579964Y-144597428D01*
X69627583Y-144549809D01*
X69722821Y-144502190D01*
X69913297Y-144454571D01*
X70008535Y-144406952D01*
X70056154Y-144359333D01*
X70103773Y-144264095D01*
X70103773Y-144168857D01*
X70056154Y-144073619D01*
X70008535Y-144026000D01*
X69913297Y-143978380D01*
X69675202Y-143978380D01*
X69532345Y-144026000D01*
X69199011Y-143978380D02*
X68960916Y-144978380D01*
X68770440Y-144264095D01*
X68579964Y-144978380D01*
X68341869Y-143978380D01*
X67437107Y-144978380D02*
X68008535Y-144978380D01*
X67722821Y-144978380D02*
X67722821Y-143978380D01*
X67818059Y-144121238D01*
X67913297Y-144216476D01*
X68008535Y-144264095D01*
X66960916Y-144978380D02*
X66770440Y-144978380D01*
X66675202Y-144930761D01*
X66627583Y-144883142D01*
X66532345Y-144740285D01*
X66484726Y-144549809D01*
X66484726Y-144168857D01*
X66532345Y-144073619D01*
X66579964Y-144026000D01*
X66675202Y-143978380D01*
X66865678Y-143978380D01*
X66960916Y-144026000D01*
X67008535Y-144073619D01*
X67056154Y-144168857D01*
X67056154Y-144406952D01*
X67008535Y-144502190D01*
X66960916Y-144549809D01*
X66865678Y-144597428D01*
X66675202Y-144597428D01*
X66579964Y-144549809D01*
X66532345Y-144502190D01*
X66484726Y-144406952D01*
G04 #@! TO.C,SW18*
X65341273Y-125880761D02*
X65198416Y-125928380D01*
X64960321Y-125928380D01*
X64865083Y-125880761D01*
X64817464Y-125833142D01*
X64769845Y-125737904D01*
X64769845Y-125642666D01*
X64817464Y-125547428D01*
X64865083Y-125499809D01*
X64960321Y-125452190D01*
X65150797Y-125404571D01*
X65246035Y-125356952D01*
X65293654Y-125309333D01*
X65341273Y-125214095D01*
X65341273Y-125118857D01*
X65293654Y-125023619D01*
X65246035Y-124976000D01*
X65150797Y-124928380D01*
X64912702Y-124928380D01*
X64769845Y-124976000D01*
X64436511Y-124928380D02*
X64198416Y-125928380D01*
X64007940Y-125214095D01*
X63817464Y-125928380D01*
X63579369Y-124928380D01*
X62674607Y-125928380D02*
X63246035Y-125928380D01*
X62960321Y-125928380D02*
X62960321Y-124928380D01*
X63055559Y-125071238D01*
X63150797Y-125166476D01*
X63246035Y-125214095D01*
X62103178Y-125356952D02*
X62198416Y-125309333D01*
X62246035Y-125261714D01*
X62293654Y-125166476D01*
X62293654Y-125118857D01*
X62246035Y-125023619D01*
X62198416Y-124976000D01*
X62103178Y-124928380D01*
X61912702Y-124928380D01*
X61817464Y-124976000D01*
X61769845Y-125023619D01*
X61722226Y-125118857D01*
X61722226Y-125166476D01*
X61769845Y-125261714D01*
X61817464Y-125309333D01*
X61912702Y-125356952D01*
X62103178Y-125356952D01*
X62198416Y-125404571D01*
X62246035Y-125452190D01*
X62293654Y-125547428D01*
X62293654Y-125737904D01*
X62246035Y-125833142D01*
X62198416Y-125880761D01*
X62103178Y-125928380D01*
X61912702Y-125928380D01*
X61817464Y-125880761D01*
X61769845Y-125833142D01*
X61722226Y-125737904D01*
X61722226Y-125547428D01*
X61769845Y-125452190D01*
X61817464Y-125404571D01*
X61912702Y-125356952D01*
G04 #@! TO.C,SW16*
X343947523Y-87780761D02*
X343804666Y-87828380D01*
X343566571Y-87828380D01*
X343471333Y-87780761D01*
X343423714Y-87733142D01*
X343376095Y-87637904D01*
X343376095Y-87542666D01*
X343423714Y-87447428D01*
X343471333Y-87399809D01*
X343566571Y-87352190D01*
X343757047Y-87304571D01*
X343852285Y-87256952D01*
X343899904Y-87209333D01*
X343947523Y-87114095D01*
X343947523Y-87018857D01*
X343899904Y-86923619D01*
X343852285Y-86876000D01*
X343757047Y-86828380D01*
X343518952Y-86828380D01*
X343376095Y-86876000D01*
X343042761Y-86828380D02*
X342804666Y-87828380D01*
X342614190Y-87114095D01*
X342423714Y-87828380D01*
X342185619Y-86828380D01*
X341280857Y-87828380D02*
X341852285Y-87828380D01*
X341566571Y-87828380D02*
X341566571Y-86828380D01*
X341661809Y-86971238D01*
X341757047Y-87066476D01*
X341852285Y-87114095D01*
X340423714Y-86828380D02*
X340614190Y-86828380D01*
X340709428Y-86876000D01*
X340757047Y-86923619D01*
X340852285Y-87066476D01*
X340899904Y-87256952D01*
X340899904Y-87637904D01*
X340852285Y-87733142D01*
X340804666Y-87780761D01*
X340709428Y-87828380D01*
X340518952Y-87828380D01*
X340423714Y-87780761D01*
X340376095Y-87733142D01*
X340328476Y-87637904D01*
X340328476Y-87399809D01*
X340376095Y-87304571D01*
X340423714Y-87256952D01*
X340518952Y-87209333D01*
X340709428Y-87209333D01*
X340804666Y-87256952D01*
X340852285Y-87304571D01*
X340899904Y-87399809D01*
G04 #@! TO.C,SW15*
X315372523Y-87780761D02*
X315229666Y-87828380D01*
X314991571Y-87828380D01*
X314896333Y-87780761D01*
X314848714Y-87733142D01*
X314801095Y-87637904D01*
X314801095Y-87542666D01*
X314848714Y-87447428D01*
X314896333Y-87399809D01*
X314991571Y-87352190D01*
X315182047Y-87304571D01*
X315277285Y-87256952D01*
X315324904Y-87209333D01*
X315372523Y-87114095D01*
X315372523Y-87018857D01*
X315324904Y-86923619D01*
X315277285Y-86876000D01*
X315182047Y-86828380D01*
X314943952Y-86828380D01*
X314801095Y-86876000D01*
X314467761Y-86828380D02*
X314229666Y-87828380D01*
X314039190Y-87114095D01*
X313848714Y-87828380D01*
X313610619Y-86828380D01*
X312705857Y-87828380D02*
X313277285Y-87828380D01*
X312991571Y-87828380D02*
X312991571Y-86828380D01*
X313086809Y-86971238D01*
X313182047Y-87066476D01*
X313277285Y-87114095D01*
X311801095Y-86828380D02*
X312277285Y-86828380D01*
X312324904Y-87304571D01*
X312277285Y-87256952D01*
X312182047Y-87209333D01*
X311943952Y-87209333D01*
X311848714Y-87256952D01*
X311801095Y-87304571D01*
X311753476Y-87399809D01*
X311753476Y-87637904D01*
X311801095Y-87733142D01*
X311848714Y-87780761D01*
X311943952Y-87828380D01*
X312182047Y-87828380D01*
X312277285Y-87780761D01*
X312324904Y-87733142D01*
G04 #@! TO.C,SW14*
X286797523Y-87780761D02*
X286654666Y-87828380D01*
X286416571Y-87828380D01*
X286321333Y-87780761D01*
X286273714Y-87733142D01*
X286226095Y-87637904D01*
X286226095Y-87542666D01*
X286273714Y-87447428D01*
X286321333Y-87399809D01*
X286416571Y-87352190D01*
X286607047Y-87304571D01*
X286702285Y-87256952D01*
X286749904Y-87209333D01*
X286797523Y-87114095D01*
X286797523Y-87018857D01*
X286749904Y-86923619D01*
X286702285Y-86876000D01*
X286607047Y-86828380D01*
X286368952Y-86828380D01*
X286226095Y-86876000D01*
X285892761Y-86828380D02*
X285654666Y-87828380D01*
X285464190Y-87114095D01*
X285273714Y-87828380D01*
X285035619Y-86828380D01*
X284130857Y-87828380D02*
X284702285Y-87828380D01*
X284416571Y-87828380D02*
X284416571Y-86828380D01*
X284511809Y-86971238D01*
X284607047Y-87066476D01*
X284702285Y-87114095D01*
X283273714Y-87161714D02*
X283273714Y-87828380D01*
X283511809Y-86780761D02*
X283749904Y-87495047D01*
X283130857Y-87495047D01*
G04 #@! TO.C,SW13*
X267747523Y-87780761D02*
X267604666Y-87828380D01*
X267366571Y-87828380D01*
X267271333Y-87780761D01*
X267223714Y-87733142D01*
X267176095Y-87637904D01*
X267176095Y-87542666D01*
X267223714Y-87447428D01*
X267271333Y-87399809D01*
X267366571Y-87352190D01*
X267557047Y-87304571D01*
X267652285Y-87256952D01*
X267699904Y-87209333D01*
X267747523Y-87114095D01*
X267747523Y-87018857D01*
X267699904Y-86923619D01*
X267652285Y-86876000D01*
X267557047Y-86828380D01*
X267318952Y-86828380D01*
X267176095Y-86876000D01*
X266842761Y-86828380D02*
X266604666Y-87828380D01*
X266414190Y-87114095D01*
X266223714Y-87828380D01*
X265985619Y-86828380D01*
X265080857Y-87828380D02*
X265652285Y-87828380D01*
X265366571Y-87828380D02*
X265366571Y-86828380D01*
X265461809Y-86971238D01*
X265557047Y-87066476D01*
X265652285Y-87114095D01*
X264747523Y-86828380D02*
X264128476Y-86828380D01*
X264461809Y-87209333D01*
X264318952Y-87209333D01*
X264223714Y-87256952D01*
X264176095Y-87304571D01*
X264128476Y-87399809D01*
X264128476Y-87637904D01*
X264176095Y-87733142D01*
X264223714Y-87780761D01*
X264318952Y-87828380D01*
X264604666Y-87828380D01*
X264699904Y-87780761D01*
X264747523Y-87733142D01*
G04 #@! TO.C,SW12*
X248697523Y-87780761D02*
X248554666Y-87828380D01*
X248316571Y-87828380D01*
X248221333Y-87780761D01*
X248173714Y-87733142D01*
X248126095Y-87637904D01*
X248126095Y-87542666D01*
X248173714Y-87447428D01*
X248221333Y-87399809D01*
X248316571Y-87352190D01*
X248507047Y-87304571D01*
X248602285Y-87256952D01*
X248649904Y-87209333D01*
X248697523Y-87114095D01*
X248697523Y-87018857D01*
X248649904Y-86923619D01*
X248602285Y-86876000D01*
X248507047Y-86828380D01*
X248268952Y-86828380D01*
X248126095Y-86876000D01*
X247792761Y-86828380D02*
X247554666Y-87828380D01*
X247364190Y-87114095D01*
X247173714Y-87828380D01*
X246935619Y-86828380D01*
X246030857Y-87828380D02*
X246602285Y-87828380D01*
X246316571Y-87828380D02*
X246316571Y-86828380D01*
X246411809Y-86971238D01*
X246507047Y-87066476D01*
X246602285Y-87114095D01*
X245649904Y-86923619D02*
X245602285Y-86876000D01*
X245507047Y-86828380D01*
X245268952Y-86828380D01*
X245173714Y-86876000D01*
X245126095Y-86923619D01*
X245078476Y-87018857D01*
X245078476Y-87114095D01*
X245126095Y-87256952D01*
X245697523Y-87828380D01*
X245078476Y-87828380D01*
G04 #@! TO.C,SW11*
X229647523Y-87780761D02*
X229504666Y-87828380D01*
X229266571Y-87828380D01*
X229171333Y-87780761D01*
X229123714Y-87733142D01*
X229076095Y-87637904D01*
X229076095Y-87542666D01*
X229123714Y-87447428D01*
X229171333Y-87399809D01*
X229266571Y-87352190D01*
X229457047Y-87304571D01*
X229552285Y-87256952D01*
X229599904Y-87209333D01*
X229647523Y-87114095D01*
X229647523Y-87018857D01*
X229599904Y-86923619D01*
X229552285Y-86876000D01*
X229457047Y-86828380D01*
X229218952Y-86828380D01*
X229076095Y-86876000D01*
X228742761Y-86828380D02*
X228504666Y-87828380D01*
X228314190Y-87114095D01*
X228123714Y-87828380D01*
X227885619Y-86828380D01*
X226980857Y-87828380D02*
X227552285Y-87828380D01*
X227266571Y-87828380D02*
X227266571Y-86828380D01*
X227361809Y-86971238D01*
X227457047Y-87066476D01*
X227552285Y-87114095D01*
X226028476Y-87828380D02*
X226599904Y-87828380D01*
X226314190Y-87828380D02*
X226314190Y-86828380D01*
X226409428Y-86971238D01*
X226504666Y-87066476D01*
X226599904Y-87114095D01*
G04 #@! TO.C,SW10*
X210597523Y-87780761D02*
X210454666Y-87828380D01*
X210216571Y-87828380D01*
X210121333Y-87780761D01*
X210073714Y-87733142D01*
X210026095Y-87637904D01*
X210026095Y-87542666D01*
X210073714Y-87447428D01*
X210121333Y-87399809D01*
X210216571Y-87352190D01*
X210407047Y-87304571D01*
X210502285Y-87256952D01*
X210549904Y-87209333D01*
X210597523Y-87114095D01*
X210597523Y-87018857D01*
X210549904Y-86923619D01*
X210502285Y-86876000D01*
X210407047Y-86828380D01*
X210168952Y-86828380D01*
X210026095Y-86876000D01*
X209692761Y-86828380D02*
X209454666Y-87828380D01*
X209264190Y-87114095D01*
X209073714Y-87828380D01*
X208835619Y-86828380D01*
X207930857Y-87828380D02*
X208502285Y-87828380D01*
X208216571Y-87828380D02*
X208216571Y-86828380D01*
X208311809Y-86971238D01*
X208407047Y-87066476D01*
X208502285Y-87114095D01*
X207311809Y-86828380D02*
X207216571Y-86828380D01*
X207121333Y-86876000D01*
X207073714Y-86923619D01*
X207026095Y-87018857D01*
X206978476Y-87209333D01*
X206978476Y-87447428D01*
X207026095Y-87637904D01*
X207073714Y-87733142D01*
X207121333Y-87780761D01*
X207216571Y-87828380D01*
X207311809Y-87828380D01*
X207407047Y-87780761D01*
X207454666Y-87733142D01*
X207502285Y-87637904D01*
X207549904Y-87447428D01*
X207549904Y-87209333D01*
X207502285Y-87018857D01*
X207454666Y-86923619D01*
X207407047Y-86876000D01*
X207311809Y-86828380D01*
G04 #@! TO.C,SW9*
X191071333Y-87780761D02*
X190928476Y-87828380D01*
X190690380Y-87828380D01*
X190595142Y-87780761D01*
X190547523Y-87733142D01*
X190499904Y-87637904D01*
X190499904Y-87542666D01*
X190547523Y-87447428D01*
X190595142Y-87399809D01*
X190690380Y-87352190D01*
X190880857Y-87304571D01*
X190976095Y-87256952D01*
X191023714Y-87209333D01*
X191071333Y-87114095D01*
X191071333Y-87018857D01*
X191023714Y-86923619D01*
X190976095Y-86876000D01*
X190880857Y-86828380D01*
X190642761Y-86828380D01*
X190499904Y-86876000D01*
X190166571Y-86828380D02*
X189928476Y-87828380D01*
X189738000Y-87114095D01*
X189547523Y-87828380D01*
X189309428Y-86828380D01*
X188880857Y-87828380D02*
X188690380Y-87828380D01*
X188595142Y-87780761D01*
X188547523Y-87733142D01*
X188452285Y-87590285D01*
X188404666Y-87399809D01*
X188404666Y-87018857D01*
X188452285Y-86923619D01*
X188499904Y-86876000D01*
X188595142Y-86828380D01*
X188785619Y-86828380D01*
X188880857Y-86876000D01*
X188928476Y-86923619D01*
X188976095Y-87018857D01*
X188976095Y-87256952D01*
X188928476Y-87352190D01*
X188880857Y-87399809D01*
X188785619Y-87447428D01*
X188595142Y-87447428D01*
X188499904Y-87399809D01*
X188452285Y-87352190D01*
X188404666Y-87256952D01*
G04 #@! TO.C,SW8*
X172021333Y-87780761D02*
X171878476Y-87828380D01*
X171640380Y-87828380D01*
X171545142Y-87780761D01*
X171497523Y-87733142D01*
X171449904Y-87637904D01*
X171449904Y-87542666D01*
X171497523Y-87447428D01*
X171545142Y-87399809D01*
X171640380Y-87352190D01*
X171830857Y-87304571D01*
X171926095Y-87256952D01*
X171973714Y-87209333D01*
X172021333Y-87114095D01*
X172021333Y-87018857D01*
X171973714Y-86923619D01*
X171926095Y-86876000D01*
X171830857Y-86828380D01*
X171592761Y-86828380D01*
X171449904Y-86876000D01*
X171116571Y-86828380D02*
X170878476Y-87828380D01*
X170688000Y-87114095D01*
X170497523Y-87828380D01*
X170259428Y-86828380D01*
X169735619Y-87256952D02*
X169830857Y-87209333D01*
X169878476Y-87161714D01*
X169926095Y-87066476D01*
X169926095Y-87018857D01*
X169878476Y-86923619D01*
X169830857Y-86876000D01*
X169735619Y-86828380D01*
X169545142Y-86828380D01*
X169449904Y-86876000D01*
X169402285Y-86923619D01*
X169354666Y-87018857D01*
X169354666Y-87066476D01*
X169402285Y-87161714D01*
X169449904Y-87209333D01*
X169545142Y-87256952D01*
X169735619Y-87256952D01*
X169830857Y-87304571D01*
X169878476Y-87352190D01*
X169926095Y-87447428D01*
X169926095Y-87637904D01*
X169878476Y-87733142D01*
X169830857Y-87780761D01*
X169735619Y-87828380D01*
X169545142Y-87828380D01*
X169449904Y-87780761D01*
X169402285Y-87733142D01*
X169354666Y-87637904D01*
X169354666Y-87447428D01*
X169402285Y-87352190D01*
X169449904Y-87304571D01*
X169545142Y-87256952D01*
G04 #@! TO.C,SW7*
X152971333Y-87780761D02*
X152828476Y-87828380D01*
X152590380Y-87828380D01*
X152495142Y-87780761D01*
X152447523Y-87733142D01*
X152399904Y-87637904D01*
X152399904Y-87542666D01*
X152447523Y-87447428D01*
X152495142Y-87399809D01*
X152590380Y-87352190D01*
X152780857Y-87304571D01*
X152876095Y-87256952D01*
X152923714Y-87209333D01*
X152971333Y-87114095D01*
X152971333Y-87018857D01*
X152923714Y-86923619D01*
X152876095Y-86876000D01*
X152780857Y-86828380D01*
X152542761Y-86828380D01*
X152399904Y-86876000D01*
X152066571Y-86828380D02*
X151828476Y-87828380D01*
X151638000Y-87114095D01*
X151447523Y-87828380D01*
X151209428Y-86828380D01*
X150923714Y-86828380D02*
X150257047Y-86828380D01*
X150685619Y-87828380D01*
G04 #@! TO.C,SW6*
X133921333Y-87780761D02*
X133778476Y-87828380D01*
X133540380Y-87828380D01*
X133445142Y-87780761D01*
X133397523Y-87733142D01*
X133349904Y-87637904D01*
X133349904Y-87542666D01*
X133397523Y-87447428D01*
X133445142Y-87399809D01*
X133540380Y-87352190D01*
X133730857Y-87304571D01*
X133826095Y-87256952D01*
X133873714Y-87209333D01*
X133921333Y-87114095D01*
X133921333Y-87018857D01*
X133873714Y-86923619D01*
X133826095Y-86876000D01*
X133730857Y-86828380D01*
X133492761Y-86828380D01*
X133349904Y-86876000D01*
X133016571Y-86828380D02*
X132778476Y-87828380D01*
X132588000Y-87114095D01*
X132397523Y-87828380D01*
X132159428Y-86828380D01*
X131349904Y-86828380D02*
X131540380Y-86828380D01*
X131635619Y-86876000D01*
X131683238Y-86923619D01*
X131778476Y-87066476D01*
X131826095Y-87256952D01*
X131826095Y-87637904D01*
X131778476Y-87733142D01*
X131730857Y-87780761D01*
X131635619Y-87828380D01*
X131445142Y-87828380D01*
X131349904Y-87780761D01*
X131302285Y-87733142D01*
X131254666Y-87637904D01*
X131254666Y-87399809D01*
X131302285Y-87304571D01*
X131349904Y-87256952D01*
X131445142Y-87209333D01*
X131635619Y-87209333D01*
X131730857Y-87256952D01*
X131778476Y-87304571D01*
X131826095Y-87399809D01*
G04 #@! TO.C,SW5*
X114871333Y-87780761D02*
X114728476Y-87828380D01*
X114490380Y-87828380D01*
X114395142Y-87780761D01*
X114347523Y-87733142D01*
X114299904Y-87637904D01*
X114299904Y-87542666D01*
X114347523Y-87447428D01*
X114395142Y-87399809D01*
X114490380Y-87352190D01*
X114680857Y-87304571D01*
X114776095Y-87256952D01*
X114823714Y-87209333D01*
X114871333Y-87114095D01*
X114871333Y-87018857D01*
X114823714Y-86923619D01*
X114776095Y-86876000D01*
X114680857Y-86828380D01*
X114442761Y-86828380D01*
X114299904Y-86876000D01*
X113966571Y-86828380D02*
X113728476Y-87828380D01*
X113538000Y-87114095D01*
X113347523Y-87828380D01*
X113109428Y-86828380D01*
X112252285Y-86828380D02*
X112728476Y-86828380D01*
X112776095Y-87304571D01*
X112728476Y-87256952D01*
X112633238Y-87209333D01*
X112395142Y-87209333D01*
X112299904Y-87256952D01*
X112252285Y-87304571D01*
X112204666Y-87399809D01*
X112204666Y-87637904D01*
X112252285Y-87733142D01*
X112299904Y-87780761D01*
X112395142Y-87828380D01*
X112633238Y-87828380D01*
X112728476Y-87780761D01*
X112776095Y-87733142D01*
G04 #@! TO.C,SW4*
X95821333Y-87780761D02*
X95678476Y-87828380D01*
X95440380Y-87828380D01*
X95345142Y-87780761D01*
X95297523Y-87733142D01*
X95249904Y-87637904D01*
X95249904Y-87542666D01*
X95297523Y-87447428D01*
X95345142Y-87399809D01*
X95440380Y-87352190D01*
X95630857Y-87304571D01*
X95726095Y-87256952D01*
X95773714Y-87209333D01*
X95821333Y-87114095D01*
X95821333Y-87018857D01*
X95773714Y-86923619D01*
X95726095Y-86876000D01*
X95630857Y-86828380D01*
X95392761Y-86828380D01*
X95249904Y-86876000D01*
X94916571Y-86828380D02*
X94678476Y-87828380D01*
X94488000Y-87114095D01*
X94297523Y-87828380D01*
X94059428Y-86828380D01*
X93249904Y-87161714D02*
X93249904Y-87828380D01*
X93488000Y-86780761D02*
X93726095Y-87495047D01*
X93107047Y-87495047D01*
G04 #@! TO.C,SW3*
X76771333Y-87780761D02*
X76628476Y-87828380D01*
X76390380Y-87828380D01*
X76295142Y-87780761D01*
X76247523Y-87733142D01*
X76199904Y-87637904D01*
X76199904Y-87542666D01*
X76247523Y-87447428D01*
X76295142Y-87399809D01*
X76390380Y-87352190D01*
X76580857Y-87304571D01*
X76676095Y-87256952D01*
X76723714Y-87209333D01*
X76771333Y-87114095D01*
X76771333Y-87018857D01*
X76723714Y-86923619D01*
X76676095Y-86876000D01*
X76580857Y-86828380D01*
X76342761Y-86828380D01*
X76199904Y-86876000D01*
X75866571Y-86828380D02*
X75628476Y-87828380D01*
X75438000Y-87114095D01*
X75247523Y-87828380D01*
X75009428Y-86828380D01*
X74723714Y-86828380D02*
X74104666Y-86828380D01*
X74438000Y-87209333D01*
X74295142Y-87209333D01*
X74199904Y-87256952D01*
X74152285Y-87304571D01*
X74104666Y-87399809D01*
X74104666Y-87637904D01*
X74152285Y-87733142D01*
X74199904Y-87780761D01*
X74295142Y-87828380D01*
X74580857Y-87828380D01*
X74676095Y-87780761D01*
X74723714Y-87733142D01*
G04 #@! TO.C,SW2*
X57721333Y-87780761D02*
X57578476Y-87828380D01*
X57340380Y-87828380D01*
X57245142Y-87780761D01*
X57197523Y-87733142D01*
X57149904Y-87637904D01*
X57149904Y-87542666D01*
X57197523Y-87447428D01*
X57245142Y-87399809D01*
X57340380Y-87352190D01*
X57530857Y-87304571D01*
X57626095Y-87256952D01*
X57673714Y-87209333D01*
X57721333Y-87114095D01*
X57721333Y-87018857D01*
X57673714Y-86923619D01*
X57626095Y-86876000D01*
X57530857Y-86828380D01*
X57292761Y-86828380D01*
X57149904Y-86876000D01*
X56816571Y-86828380D02*
X56578476Y-87828380D01*
X56388000Y-87114095D01*
X56197523Y-87828380D01*
X55959428Y-86828380D01*
X55626095Y-86923619D02*
X55578476Y-86876000D01*
X55483238Y-86828380D01*
X55245142Y-86828380D01*
X55149904Y-86876000D01*
X55102285Y-86923619D01*
X55054666Y-87018857D01*
X55054666Y-87114095D01*
X55102285Y-87256952D01*
X55673714Y-87828380D01*
X55054666Y-87828380D01*
G04 #@! TO.C,D68*
X337328380Y-105973714D02*
X336328380Y-105973714D01*
X336328380Y-106211809D01*
X336376000Y-106354666D01*
X336471238Y-106449904D01*
X336566476Y-106497523D01*
X336756952Y-106545142D01*
X336899809Y-106545142D01*
X337090285Y-106497523D01*
X337185523Y-106449904D01*
X337280761Y-106354666D01*
X337328380Y-106211809D01*
X337328380Y-105973714D01*
X336328380Y-107402285D02*
X336328380Y-107211809D01*
X336376000Y-107116571D01*
X336423619Y-107068952D01*
X336566476Y-106973714D01*
X336756952Y-106926095D01*
X337137904Y-106926095D01*
X337233142Y-106973714D01*
X337280761Y-107021333D01*
X337328380Y-107116571D01*
X337328380Y-107307047D01*
X337280761Y-107402285D01*
X337233142Y-107449904D01*
X337137904Y-107497523D01*
X336899809Y-107497523D01*
X336804571Y-107449904D01*
X336756952Y-107402285D01*
X336709333Y-107307047D01*
X336709333Y-107116571D01*
X336756952Y-107021333D01*
X336804571Y-106973714D01*
X336899809Y-106926095D01*
X336756952Y-108068952D02*
X336709333Y-107973714D01*
X336661714Y-107926095D01*
X336566476Y-107878476D01*
X336518857Y-107878476D01*
X336423619Y-107926095D01*
X336376000Y-107973714D01*
X336328380Y-108068952D01*
X336328380Y-108259428D01*
X336376000Y-108354666D01*
X336423619Y-108402285D01*
X336518857Y-108449904D01*
X336566476Y-108449904D01*
X336661714Y-108402285D01*
X336709333Y-108354666D01*
X336756952Y-108259428D01*
X336756952Y-108068952D01*
X336804571Y-107973714D01*
X336852190Y-107926095D01*
X336947428Y-107878476D01*
X337137904Y-107878476D01*
X337233142Y-107926095D01*
X337280761Y-107973714D01*
X337328380Y-108068952D01*
X337328380Y-108259428D01*
X337280761Y-108354666D01*
X337233142Y-108402285D01*
X337137904Y-108449904D01*
X336947428Y-108449904D01*
X336852190Y-108402285D01*
X336804571Y-108354666D01*
X336756952Y-108259428D01*
G04 #@! TO.C,D67*
X337328380Y-86923714D02*
X336328380Y-86923714D01*
X336328380Y-87161809D01*
X336376000Y-87304666D01*
X336471238Y-87399904D01*
X336566476Y-87447523D01*
X336756952Y-87495142D01*
X336899809Y-87495142D01*
X337090285Y-87447523D01*
X337185523Y-87399904D01*
X337280761Y-87304666D01*
X337328380Y-87161809D01*
X337328380Y-86923714D01*
X336328380Y-88352285D02*
X336328380Y-88161809D01*
X336376000Y-88066571D01*
X336423619Y-88018952D01*
X336566476Y-87923714D01*
X336756952Y-87876095D01*
X337137904Y-87876095D01*
X337233142Y-87923714D01*
X337280761Y-87971333D01*
X337328380Y-88066571D01*
X337328380Y-88257047D01*
X337280761Y-88352285D01*
X337233142Y-88399904D01*
X337137904Y-88447523D01*
X336899809Y-88447523D01*
X336804571Y-88399904D01*
X336756952Y-88352285D01*
X336709333Y-88257047D01*
X336709333Y-88066571D01*
X336756952Y-87971333D01*
X336804571Y-87923714D01*
X336899809Y-87876095D01*
X336328380Y-88780857D02*
X336328380Y-89447523D01*
X337328380Y-89018952D01*
G04 #@! TO.C,D66*
X337296630Y-145026214D02*
X336296630Y-145026214D01*
X336296630Y-145264309D01*
X336344250Y-145407166D01*
X336439488Y-145502404D01*
X336534726Y-145550023D01*
X336725202Y-145597642D01*
X336868059Y-145597642D01*
X337058535Y-145550023D01*
X337153773Y-145502404D01*
X337249011Y-145407166D01*
X337296630Y-145264309D01*
X337296630Y-145026214D01*
X336296630Y-146454785D02*
X336296630Y-146264309D01*
X336344250Y-146169071D01*
X336391869Y-146121452D01*
X336534726Y-146026214D01*
X336725202Y-145978595D01*
X337106154Y-145978595D01*
X337201392Y-146026214D01*
X337249011Y-146073833D01*
X337296630Y-146169071D01*
X337296630Y-146359547D01*
X337249011Y-146454785D01*
X337201392Y-146502404D01*
X337106154Y-146550023D01*
X336868059Y-146550023D01*
X336772821Y-146502404D01*
X336725202Y-146454785D01*
X336677583Y-146359547D01*
X336677583Y-146169071D01*
X336725202Y-146073833D01*
X336772821Y-146026214D01*
X336868059Y-145978595D01*
X336296630Y-147407166D02*
X336296630Y-147216690D01*
X336344250Y-147121452D01*
X336391869Y-147073833D01*
X336534726Y-146978595D01*
X336725202Y-146930976D01*
X337106154Y-146930976D01*
X337201392Y-146978595D01*
X337249011Y-147026214D01*
X337296630Y-147121452D01*
X337296630Y-147311928D01*
X337249011Y-147407166D01*
X337201392Y-147454785D01*
X337106154Y-147502404D01*
X336868059Y-147502404D01*
X336772821Y-147454785D01*
X336725202Y-147407166D01*
X336677583Y-147311928D01*
X336677583Y-147121452D01*
X336725202Y-147026214D01*
X336772821Y-146978595D01*
X336868059Y-146930976D01*
G04 #@! TO.C,D65*
X337296630Y-125976214D02*
X336296630Y-125976214D01*
X336296630Y-126214309D01*
X336344250Y-126357166D01*
X336439488Y-126452404D01*
X336534726Y-126500023D01*
X336725202Y-126547642D01*
X336868059Y-126547642D01*
X337058535Y-126500023D01*
X337153773Y-126452404D01*
X337249011Y-126357166D01*
X337296630Y-126214309D01*
X337296630Y-125976214D01*
X336296630Y-127404785D02*
X336296630Y-127214309D01*
X336344250Y-127119071D01*
X336391869Y-127071452D01*
X336534726Y-126976214D01*
X336725202Y-126928595D01*
X337106154Y-126928595D01*
X337201392Y-126976214D01*
X337249011Y-127023833D01*
X337296630Y-127119071D01*
X337296630Y-127309547D01*
X337249011Y-127404785D01*
X337201392Y-127452404D01*
X337106154Y-127500023D01*
X336868059Y-127500023D01*
X336772821Y-127452404D01*
X336725202Y-127404785D01*
X336677583Y-127309547D01*
X336677583Y-127119071D01*
X336725202Y-127023833D01*
X336772821Y-126976214D01*
X336868059Y-126928595D01*
X336296630Y-128404785D02*
X336296630Y-127928595D01*
X336772821Y-127880976D01*
X336725202Y-127928595D01*
X336677583Y-128023833D01*
X336677583Y-128261928D01*
X336725202Y-128357166D01*
X336772821Y-128404785D01*
X336868059Y-128452404D01*
X337106154Y-128452404D01*
X337201392Y-128404785D01*
X337249011Y-128357166D01*
X337296630Y-128261928D01*
X337296630Y-128023833D01*
X337249011Y-127928595D01*
X337201392Y-127880976D01*
G04 #@! TO.C,D64*
X313706380Y-105973714D02*
X312706380Y-105973714D01*
X312706380Y-106211809D01*
X312754000Y-106354666D01*
X312849238Y-106449904D01*
X312944476Y-106497523D01*
X313134952Y-106545142D01*
X313277809Y-106545142D01*
X313468285Y-106497523D01*
X313563523Y-106449904D01*
X313658761Y-106354666D01*
X313706380Y-106211809D01*
X313706380Y-105973714D01*
X312706380Y-107402285D02*
X312706380Y-107211809D01*
X312754000Y-107116571D01*
X312801619Y-107068952D01*
X312944476Y-106973714D01*
X313134952Y-106926095D01*
X313515904Y-106926095D01*
X313611142Y-106973714D01*
X313658761Y-107021333D01*
X313706380Y-107116571D01*
X313706380Y-107307047D01*
X313658761Y-107402285D01*
X313611142Y-107449904D01*
X313515904Y-107497523D01*
X313277809Y-107497523D01*
X313182571Y-107449904D01*
X313134952Y-107402285D01*
X313087333Y-107307047D01*
X313087333Y-107116571D01*
X313134952Y-107021333D01*
X313182571Y-106973714D01*
X313277809Y-106926095D01*
X313039714Y-108354666D02*
X313706380Y-108354666D01*
X312658761Y-108116571D02*
X313373047Y-107878476D01*
X313373047Y-108497523D01*
G04 #@! TO.C,D63*
X309157630Y-87177714D02*
X308157630Y-87177714D01*
X308157630Y-87415809D01*
X308205250Y-87558666D01*
X308300488Y-87653904D01*
X308395726Y-87701523D01*
X308586202Y-87749142D01*
X308729059Y-87749142D01*
X308919535Y-87701523D01*
X309014773Y-87653904D01*
X309110011Y-87558666D01*
X309157630Y-87415809D01*
X309157630Y-87177714D01*
X308157630Y-88606285D02*
X308157630Y-88415809D01*
X308205250Y-88320571D01*
X308252869Y-88272952D01*
X308395726Y-88177714D01*
X308586202Y-88130095D01*
X308967154Y-88130095D01*
X309062392Y-88177714D01*
X309110011Y-88225333D01*
X309157630Y-88320571D01*
X309157630Y-88511047D01*
X309110011Y-88606285D01*
X309062392Y-88653904D01*
X308967154Y-88701523D01*
X308729059Y-88701523D01*
X308633821Y-88653904D01*
X308586202Y-88606285D01*
X308538583Y-88511047D01*
X308538583Y-88320571D01*
X308586202Y-88225333D01*
X308633821Y-88177714D01*
X308729059Y-88130095D01*
X308157630Y-89034857D02*
X308157630Y-89653904D01*
X308538583Y-89320571D01*
X308538583Y-89463428D01*
X308586202Y-89558666D01*
X308633821Y-89606285D01*
X308729059Y-89653904D01*
X308967154Y-89653904D01*
X309062392Y-89606285D01*
X309110011Y-89558666D01*
X309157630Y-89463428D01*
X309157630Y-89177714D01*
X309110011Y-89082476D01*
X309062392Y-89034857D01*
G04 #@! TO.C,D62*
X315992380Y-144327714D02*
X314992380Y-144327714D01*
X314992380Y-144565809D01*
X315040000Y-144708666D01*
X315135238Y-144803904D01*
X315230476Y-144851523D01*
X315420952Y-144899142D01*
X315563809Y-144899142D01*
X315754285Y-144851523D01*
X315849523Y-144803904D01*
X315944761Y-144708666D01*
X315992380Y-144565809D01*
X315992380Y-144327714D01*
X314992380Y-145756285D02*
X314992380Y-145565809D01*
X315040000Y-145470571D01*
X315087619Y-145422952D01*
X315230476Y-145327714D01*
X315420952Y-145280095D01*
X315801904Y-145280095D01*
X315897142Y-145327714D01*
X315944761Y-145375333D01*
X315992380Y-145470571D01*
X315992380Y-145661047D01*
X315944761Y-145756285D01*
X315897142Y-145803904D01*
X315801904Y-145851523D01*
X315563809Y-145851523D01*
X315468571Y-145803904D01*
X315420952Y-145756285D01*
X315373333Y-145661047D01*
X315373333Y-145470571D01*
X315420952Y-145375333D01*
X315468571Y-145327714D01*
X315563809Y-145280095D01*
X315087619Y-146232476D02*
X315040000Y-146280095D01*
X314992380Y-146375333D01*
X314992380Y-146613428D01*
X315040000Y-146708666D01*
X315087619Y-146756285D01*
X315182857Y-146803904D01*
X315278095Y-146803904D01*
X315420952Y-146756285D01*
X315992380Y-146184857D01*
X315992380Y-146803904D01*
G04 #@! TO.C,D61*
X306340380Y-125976214D02*
X305340380Y-125976214D01*
X305340380Y-126214309D01*
X305388000Y-126357166D01*
X305483238Y-126452404D01*
X305578476Y-126500023D01*
X305768952Y-126547642D01*
X305911809Y-126547642D01*
X306102285Y-126500023D01*
X306197523Y-126452404D01*
X306292761Y-126357166D01*
X306340380Y-126214309D01*
X306340380Y-125976214D01*
X305340380Y-127404785D02*
X305340380Y-127214309D01*
X305388000Y-127119071D01*
X305435619Y-127071452D01*
X305578476Y-126976214D01*
X305768952Y-126928595D01*
X306149904Y-126928595D01*
X306245142Y-126976214D01*
X306292761Y-127023833D01*
X306340380Y-127119071D01*
X306340380Y-127309547D01*
X306292761Y-127404785D01*
X306245142Y-127452404D01*
X306149904Y-127500023D01*
X305911809Y-127500023D01*
X305816571Y-127452404D01*
X305768952Y-127404785D01*
X305721333Y-127309547D01*
X305721333Y-127119071D01*
X305768952Y-127023833D01*
X305816571Y-126976214D01*
X305911809Y-126928595D01*
X306340380Y-128452404D02*
X306340380Y-127880976D01*
X306340380Y-128166690D02*
X305340380Y-128166690D01*
X305483238Y-128071452D01*
X305578476Y-127976214D01*
X305626095Y-127880976D01*
G04 #@! TO.C,D60*
X289671630Y-105973714D02*
X288671630Y-105973714D01*
X288671630Y-106211809D01*
X288719250Y-106354666D01*
X288814488Y-106449904D01*
X288909726Y-106497523D01*
X289100202Y-106545142D01*
X289243059Y-106545142D01*
X289433535Y-106497523D01*
X289528773Y-106449904D01*
X289624011Y-106354666D01*
X289671630Y-106211809D01*
X289671630Y-105973714D01*
X288671630Y-107402285D02*
X288671630Y-107211809D01*
X288719250Y-107116571D01*
X288766869Y-107068952D01*
X288909726Y-106973714D01*
X289100202Y-106926095D01*
X289481154Y-106926095D01*
X289576392Y-106973714D01*
X289624011Y-107021333D01*
X289671630Y-107116571D01*
X289671630Y-107307047D01*
X289624011Y-107402285D01*
X289576392Y-107449904D01*
X289481154Y-107497523D01*
X289243059Y-107497523D01*
X289147821Y-107449904D01*
X289100202Y-107402285D01*
X289052583Y-107307047D01*
X289052583Y-107116571D01*
X289100202Y-107021333D01*
X289147821Y-106973714D01*
X289243059Y-106926095D01*
X288671630Y-108116571D02*
X288671630Y-108211809D01*
X288719250Y-108307047D01*
X288766869Y-108354666D01*
X288862107Y-108402285D01*
X289052583Y-108449904D01*
X289290678Y-108449904D01*
X289481154Y-108402285D01*
X289576392Y-108354666D01*
X289624011Y-108307047D01*
X289671630Y-108211809D01*
X289671630Y-108116571D01*
X289624011Y-108021333D01*
X289576392Y-107973714D01*
X289481154Y-107926095D01*
X289290678Y-107878476D01*
X289052583Y-107878476D01*
X288862107Y-107926095D01*
X288766869Y-107973714D01*
X288719250Y-108021333D01*
X288671630Y-108116571D01*
G04 #@! TO.C,D59*
X280178380Y-87177714D02*
X279178380Y-87177714D01*
X279178380Y-87415809D01*
X279226000Y-87558666D01*
X279321238Y-87653904D01*
X279416476Y-87701523D01*
X279606952Y-87749142D01*
X279749809Y-87749142D01*
X279940285Y-87701523D01*
X280035523Y-87653904D01*
X280130761Y-87558666D01*
X280178380Y-87415809D01*
X280178380Y-87177714D01*
X279178380Y-88653904D02*
X279178380Y-88177714D01*
X279654571Y-88130095D01*
X279606952Y-88177714D01*
X279559333Y-88272952D01*
X279559333Y-88511047D01*
X279606952Y-88606285D01*
X279654571Y-88653904D01*
X279749809Y-88701523D01*
X279987904Y-88701523D01*
X280083142Y-88653904D01*
X280130761Y-88606285D01*
X280178380Y-88511047D01*
X280178380Y-88272952D01*
X280130761Y-88177714D01*
X280083142Y-88130095D01*
X280178380Y-89177714D02*
X280178380Y-89368190D01*
X280130761Y-89463428D01*
X280083142Y-89511047D01*
X279940285Y-89606285D01*
X279749809Y-89653904D01*
X279368857Y-89653904D01*
X279273619Y-89606285D01*
X279226000Y-89558666D01*
X279178380Y-89463428D01*
X279178380Y-89272952D01*
X279226000Y-89177714D01*
X279273619Y-89130095D01*
X279368857Y-89082476D01*
X279606952Y-89082476D01*
X279702190Y-89130095D01*
X279749809Y-89177714D01*
X279797428Y-89272952D01*
X279797428Y-89463428D01*
X279749809Y-89558666D01*
X279702190Y-89606285D01*
X279606952Y-89653904D01*
G04 #@! TO.C,D58*
X292052880Y-145026214D02*
X291052880Y-145026214D01*
X291052880Y-145264309D01*
X291100500Y-145407166D01*
X291195738Y-145502404D01*
X291290976Y-145550023D01*
X291481452Y-145597642D01*
X291624309Y-145597642D01*
X291814785Y-145550023D01*
X291910023Y-145502404D01*
X292005261Y-145407166D01*
X292052880Y-145264309D01*
X292052880Y-145026214D01*
X291052880Y-146502404D02*
X291052880Y-146026214D01*
X291529071Y-145978595D01*
X291481452Y-146026214D01*
X291433833Y-146121452D01*
X291433833Y-146359547D01*
X291481452Y-146454785D01*
X291529071Y-146502404D01*
X291624309Y-146550023D01*
X291862404Y-146550023D01*
X291957642Y-146502404D01*
X292005261Y-146454785D01*
X292052880Y-146359547D01*
X292052880Y-146121452D01*
X292005261Y-146026214D01*
X291957642Y-145978595D01*
X291481452Y-147121452D02*
X291433833Y-147026214D01*
X291386214Y-146978595D01*
X291290976Y-146930976D01*
X291243357Y-146930976D01*
X291148119Y-146978595D01*
X291100500Y-147026214D01*
X291052880Y-147121452D01*
X291052880Y-147311928D01*
X291100500Y-147407166D01*
X291148119Y-147454785D01*
X291243357Y-147502404D01*
X291290976Y-147502404D01*
X291386214Y-147454785D01*
X291433833Y-147407166D01*
X291481452Y-147311928D01*
X291481452Y-147121452D01*
X291529071Y-147026214D01*
X291576690Y-146978595D01*
X291671928Y-146930976D01*
X291862404Y-146930976D01*
X291957642Y-146978595D01*
X292005261Y-147026214D01*
X292052880Y-147121452D01*
X292052880Y-147311928D01*
X292005261Y-147407166D01*
X291957642Y-147454785D01*
X291862404Y-147502404D01*
X291671928Y-147502404D01*
X291576690Y-147454785D01*
X291529071Y-147407166D01*
X291481452Y-147311928D01*
G04 #@! TO.C,D57*
X275384130Y-125976214D02*
X274384130Y-125976214D01*
X274384130Y-126214309D01*
X274431750Y-126357166D01*
X274526988Y-126452404D01*
X274622226Y-126500023D01*
X274812702Y-126547642D01*
X274955559Y-126547642D01*
X275146035Y-126500023D01*
X275241273Y-126452404D01*
X275336511Y-126357166D01*
X275384130Y-126214309D01*
X275384130Y-125976214D01*
X274384130Y-127452404D02*
X274384130Y-126976214D01*
X274860321Y-126928595D01*
X274812702Y-126976214D01*
X274765083Y-127071452D01*
X274765083Y-127309547D01*
X274812702Y-127404785D01*
X274860321Y-127452404D01*
X274955559Y-127500023D01*
X275193654Y-127500023D01*
X275288892Y-127452404D01*
X275336511Y-127404785D01*
X275384130Y-127309547D01*
X275384130Y-127071452D01*
X275336511Y-126976214D01*
X275288892Y-126928595D01*
X274384130Y-127833357D02*
X274384130Y-128500023D01*
X275384130Y-128071452D01*
G04 #@! TO.C,D56*
X270621630Y-105973714D02*
X269621630Y-105973714D01*
X269621630Y-106211809D01*
X269669250Y-106354666D01*
X269764488Y-106449904D01*
X269859726Y-106497523D01*
X270050202Y-106545142D01*
X270193059Y-106545142D01*
X270383535Y-106497523D01*
X270478773Y-106449904D01*
X270574011Y-106354666D01*
X270621630Y-106211809D01*
X270621630Y-105973714D01*
X269621630Y-107449904D02*
X269621630Y-106973714D01*
X270097821Y-106926095D01*
X270050202Y-106973714D01*
X270002583Y-107068952D01*
X270002583Y-107307047D01*
X270050202Y-107402285D01*
X270097821Y-107449904D01*
X270193059Y-107497523D01*
X270431154Y-107497523D01*
X270526392Y-107449904D01*
X270574011Y-107402285D01*
X270621630Y-107307047D01*
X270621630Y-107068952D01*
X270574011Y-106973714D01*
X270526392Y-106926095D01*
X269621630Y-108354666D02*
X269621630Y-108164190D01*
X269669250Y-108068952D01*
X269716869Y-108021333D01*
X269859726Y-107926095D01*
X270050202Y-107878476D01*
X270431154Y-107878476D01*
X270526392Y-107926095D01*
X270574011Y-107973714D01*
X270621630Y-108068952D01*
X270621630Y-108259428D01*
X270574011Y-108354666D01*
X270526392Y-108402285D01*
X270431154Y-108449904D01*
X270193059Y-108449904D01*
X270097821Y-108402285D01*
X270050202Y-108354666D01*
X270002583Y-108259428D01*
X270002583Y-108068952D01*
X270050202Y-107973714D01*
X270097821Y-107926095D01*
X270193059Y-107878476D01*
G04 #@! TO.C,D55*
X261128380Y-87177714D02*
X260128380Y-87177714D01*
X260128380Y-87415809D01*
X260176000Y-87558666D01*
X260271238Y-87653904D01*
X260366476Y-87701523D01*
X260556952Y-87749142D01*
X260699809Y-87749142D01*
X260890285Y-87701523D01*
X260985523Y-87653904D01*
X261080761Y-87558666D01*
X261128380Y-87415809D01*
X261128380Y-87177714D01*
X260128380Y-88653904D02*
X260128380Y-88177714D01*
X260604571Y-88130095D01*
X260556952Y-88177714D01*
X260509333Y-88272952D01*
X260509333Y-88511047D01*
X260556952Y-88606285D01*
X260604571Y-88653904D01*
X260699809Y-88701523D01*
X260937904Y-88701523D01*
X261033142Y-88653904D01*
X261080761Y-88606285D01*
X261128380Y-88511047D01*
X261128380Y-88272952D01*
X261080761Y-88177714D01*
X261033142Y-88130095D01*
X260128380Y-89606285D02*
X260128380Y-89130095D01*
X260604571Y-89082476D01*
X260556952Y-89130095D01*
X260509333Y-89225333D01*
X260509333Y-89463428D01*
X260556952Y-89558666D01*
X260604571Y-89606285D01*
X260699809Y-89653904D01*
X260937904Y-89653904D01*
X261033142Y-89606285D01*
X261080761Y-89558666D01*
X261128380Y-89463428D01*
X261128380Y-89225333D01*
X261080761Y-89130095D01*
X261033142Y-89082476D01*
G04 #@! TO.C,D54*
X265859130Y-145026214D02*
X264859130Y-145026214D01*
X264859130Y-145264309D01*
X264906750Y-145407166D01*
X265001988Y-145502404D01*
X265097226Y-145550023D01*
X265287702Y-145597642D01*
X265430559Y-145597642D01*
X265621035Y-145550023D01*
X265716273Y-145502404D01*
X265811511Y-145407166D01*
X265859130Y-145264309D01*
X265859130Y-145026214D01*
X264859130Y-146502404D02*
X264859130Y-146026214D01*
X265335321Y-145978595D01*
X265287702Y-146026214D01*
X265240083Y-146121452D01*
X265240083Y-146359547D01*
X265287702Y-146454785D01*
X265335321Y-146502404D01*
X265430559Y-146550023D01*
X265668654Y-146550023D01*
X265763892Y-146502404D01*
X265811511Y-146454785D01*
X265859130Y-146359547D01*
X265859130Y-146121452D01*
X265811511Y-146026214D01*
X265763892Y-145978595D01*
X265192464Y-147407166D02*
X265859130Y-147407166D01*
X264811511Y-147169071D02*
X265525797Y-146930976D01*
X265525797Y-147550023D01*
G04 #@! TO.C,D53*
X256334130Y-125976214D02*
X255334130Y-125976214D01*
X255334130Y-126214309D01*
X255381750Y-126357166D01*
X255476988Y-126452404D01*
X255572226Y-126500023D01*
X255762702Y-126547642D01*
X255905559Y-126547642D01*
X256096035Y-126500023D01*
X256191273Y-126452404D01*
X256286511Y-126357166D01*
X256334130Y-126214309D01*
X256334130Y-125976214D01*
X255334130Y-127452404D02*
X255334130Y-126976214D01*
X255810321Y-126928595D01*
X255762702Y-126976214D01*
X255715083Y-127071452D01*
X255715083Y-127309547D01*
X255762702Y-127404785D01*
X255810321Y-127452404D01*
X255905559Y-127500023D01*
X256143654Y-127500023D01*
X256238892Y-127452404D01*
X256286511Y-127404785D01*
X256334130Y-127309547D01*
X256334130Y-127071452D01*
X256286511Y-126976214D01*
X256238892Y-126928595D01*
X255334130Y-127833357D02*
X255334130Y-128452404D01*
X255715083Y-128119071D01*
X255715083Y-128261928D01*
X255762702Y-128357166D01*
X255810321Y-128404785D01*
X255905559Y-128452404D01*
X256143654Y-128452404D01*
X256238892Y-128404785D01*
X256286511Y-128357166D01*
X256334130Y-128261928D01*
X256334130Y-127976214D01*
X256286511Y-127880976D01*
X256238892Y-127833357D01*
G04 #@! TO.C,D52*
X251571630Y-105973714D02*
X250571630Y-105973714D01*
X250571630Y-106211809D01*
X250619250Y-106354666D01*
X250714488Y-106449904D01*
X250809726Y-106497523D01*
X251000202Y-106545142D01*
X251143059Y-106545142D01*
X251333535Y-106497523D01*
X251428773Y-106449904D01*
X251524011Y-106354666D01*
X251571630Y-106211809D01*
X251571630Y-105973714D01*
X250571630Y-107449904D02*
X250571630Y-106973714D01*
X251047821Y-106926095D01*
X251000202Y-106973714D01*
X250952583Y-107068952D01*
X250952583Y-107307047D01*
X251000202Y-107402285D01*
X251047821Y-107449904D01*
X251143059Y-107497523D01*
X251381154Y-107497523D01*
X251476392Y-107449904D01*
X251524011Y-107402285D01*
X251571630Y-107307047D01*
X251571630Y-107068952D01*
X251524011Y-106973714D01*
X251476392Y-106926095D01*
X250666869Y-107878476D02*
X250619250Y-107926095D01*
X250571630Y-108021333D01*
X250571630Y-108259428D01*
X250619250Y-108354666D01*
X250666869Y-108402285D01*
X250762107Y-108449904D01*
X250857345Y-108449904D01*
X251000202Y-108402285D01*
X251571630Y-107830857D01*
X251571630Y-108449904D01*
G04 #@! TO.C,D51*
X242078380Y-87177714D02*
X241078380Y-87177714D01*
X241078380Y-87415809D01*
X241126000Y-87558666D01*
X241221238Y-87653904D01*
X241316476Y-87701523D01*
X241506952Y-87749142D01*
X241649809Y-87749142D01*
X241840285Y-87701523D01*
X241935523Y-87653904D01*
X242030761Y-87558666D01*
X242078380Y-87415809D01*
X242078380Y-87177714D01*
X241078380Y-88653904D02*
X241078380Y-88177714D01*
X241554571Y-88130095D01*
X241506952Y-88177714D01*
X241459333Y-88272952D01*
X241459333Y-88511047D01*
X241506952Y-88606285D01*
X241554571Y-88653904D01*
X241649809Y-88701523D01*
X241887904Y-88701523D01*
X241983142Y-88653904D01*
X242030761Y-88606285D01*
X242078380Y-88511047D01*
X242078380Y-88272952D01*
X242030761Y-88177714D01*
X241983142Y-88130095D01*
X242078380Y-89653904D02*
X242078380Y-89082476D01*
X242078380Y-89368190D02*
X241078380Y-89368190D01*
X241221238Y-89272952D01*
X241316476Y-89177714D01*
X241364095Y-89082476D01*
G04 #@! TO.C,D50*
X337296630Y-164076214D02*
X336296630Y-164076214D01*
X336296630Y-164314309D01*
X336344250Y-164457166D01*
X336439488Y-164552404D01*
X336534726Y-164600023D01*
X336725202Y-164647642D01*
X336868059Y-164647642D01*
X337058535Y-164600023D01*
X337153773Y-164552404D01*
X337249011Y-164457166D01*
X337296630Y-164314309D01*
X337296630Y-164076214D01*
X336296630Y-165552404D02*
X336296630Y-165076214D01*
X336772821Y-165028595D01*
X336725202Y-165076214D01*
X336677583Y-165171452D01*
X336677583Y-165409547D01*
X336725202Y-165504785D01*
X336772821Y-165552404D01*
X336868059Y-165600023D01*
X337106154Y-165600023D01*
X337201392Y-165552404D01*
X337249011Y-165504785D01*
X337296630Y-165409547D01*
X337296630Y-165171452D01*
X337249011Y-165076214D01*
X337201392Y-165028595D01*
X336296630Y-166219071D02*
X336296630Y-166314309D01*
X336344250Y-166409547D01*
X336391869Y-166457166D01*
X336487107Y-166504785D01*
X336677583Y-166552404D01*
X336915678Y-166552404D01*
X337106154Y-166504785D01*
X337201392Y-166457166D01*
X337249011Y-166409547D01*
X337296630Y-166314309D01*
X337296630Y-166219071D01*
X337249011Y-166123833D01*
X337201392Y-166076214D01*
X337106154Y-166028595D01*
X336915678Y-165980976D01*
X336677583Y-165980976D01*
X336487107Y-166028595D01*
X336391869Y-166076214D01*
X336344250Y-166123833D01*
X336296630Y-166219071D01*
G04 #@! TO.C,D49*
X246809130Y-145026214D02*
X245809130Y-145026214D01*
X245809130Y-145264309D01*
X245856750Y-145407166D01*
X245951988Y-145502404D01*
X246047226Y-145550023D01*
X246237702Y-145597642D01*
X246380559Y-145597642D01*
X246571035Y-145550023D01*
X246666273Y-145502404D01*
X246761511Y-145407166D01*
X246809130Y-145264309D01*
X246809130Y-145026214D01*
X246142464Y-146454785D02*
X246809130Y-146454785D01*
X245761511Y-146216690D02*
X246475797Y-145978595D01*
X246475797Y-146597642D01*
X246809130Y-147026214D02*
X246809130Y-147216690D01*
X246761511Y-147311928D01*
X246713892Y-147359547D01*
X246571035Y-147454785D01*
X246380559Y-147502404D01*
X245999607Y-147502404D01*
X245904369Y-147454785D01*
X245856750Y-147407166D01*
X245809130Y-147311928D01*
X245809130Y-147121452D01*
X245856750Y-147026214D01*
X245904369Y-146978595D01*
X245999607Y-146930976D01*
X246237702Y-146930976D01*
X246332940Y-146978595D01*
X246380559Y-147026214D01*
X246428178Y-147121452D01*
X246428178Y-147311928D01*
X246380559Y-147407166D01*
X246332940Y-147454785D01*
X246237702Y-147502404D01*
G04 #@! TO.C,D48*
X237284130Y-125976214D02*
X236284130Y-125976214D01*
X236284130Y-126214309D01*
X236331750Y-126357166D01*
X236426988Y-126452404D01*
X236522226Y-126500023D01*
X236712702Y-126547642D01*
X236855559Y-126547642D01*
X237046035Y-126500023D01*
X237141273Y-126452404D01*
X237236511Y-126357166D01*
X237284130Y-126214309D01*
X237284130Y-125976214D01*
X236617464Y-127404785D02*
X237284130Y-127404785D01*
X236236511Y-127166690D02*
X236950797Y-126928595D01*
X236950797Y-127547642D01*
X236712702Y-128071452D02*
X236665083Y-127976214D01*
X236617464Y-127928595D01*
X236522226Y-127880976D01*
X236474607Y-127880976D01*
X236379369Y-127928595D01*
X236331750Y-127976214D01*
X236284130Y-128071452D01*
X236284130Y-128261928D01*
X236331750Y-128357166D01*
X236379369Y-128404785D01*
X236474607Y-128452404D01*
X236522226Y-128452404D01*
X236617464Y-128404785D01*
X236665083Y-128357166D01*
X236712702Y-128261928D01*
X236712702Y-128071452D01*
X236760321Y-127976214D01*
X236807940Y-127928595D01*
X236903178Y-127880976D01*
X237093654Y-127880976D01*
X237188892Y-127928595D01*
X237236511Y-127976214D01*
X237284130Y-128071452D01*
X237284130Y-128261928D01*
X237236511Y-128357166D01*
X237188892Y-128404785D01*
X237093654Y-128452404D01*
X236903178Y-128452404D01*
X236807940Y-128404785D01*
X236760321Y-128357166D01*
X236712702Y-128261928D01*
G04 #@! TO.C,D47*
X232521630Y-105973714D02*
X231521630Y-105973714D01*
X231521630Y-106211809D01*
X231569250Y-106354666D01*
X231664488Y-106449904D01*
X231759726Y-106497523D01*
X231950202Y-106545142D01*
X232093059Y-106545142D01*
X232283535Y-106497523D01*
X232378773Y-106449904D01*
X232474011Y-106354666D01*
X232521630Y-106211809D01*
X232521630Y-105973714D01*
X231854964Y-107402285D02*
X232521630Y-107402285D01*
X231474011Y-107164190D02*
X232188297Y-106926095D01*
X232188297Y-107545142D01*
X231521630Y-107830857D02*
X231521630Y-108497523D01*
X232521630Y-108068952D01*
G04 #@! TO.C,D46*
X221250380Y-86415714D02*
X220250380Y-86415714D01*
X220250380Y-86653809D01*
X220298000Y-86796666D01*
X220393238Y-86891904D01*
X220488476Y-86939523D01*
X220678952Y-86987142D01*
X220821809Y-86987142D01*
X221012285Y-86939523D01*
X221107523Y-86891904D01*
X221202761Y-86796666D01*
X221250380Y-86653809D01*
X221250380Y-86415714D01*
X220583714Y-87844285D02*
X221250380Y-87844285D01*
X220202761Y-87606190D02*
X220917047Y-87368095D01*
X220917047Y-87987142D01*
X220250380Y-88796666D02*
X220250380Y-88606190D01*
X220298000Y-88510952D01*
X220345619Y-88463333D01*
X220488476Y-88368095D01*
X220678952Y-88320476D01*
X221059904Y-88320476D01*
X221155142Y-88368095D01*
X221202761Y-88415714D01*
X221250380Y-88510952D01*
X221250380Y-88701428D01*
X221202761Y-88796666D01*
X221155142Y-88844285D01*
X221059904Y-88891904D01*
X220821809Y-88891904D01*
X220726571Y-88844285D01*
X220678952Y-88796666D01*
X220631333Y-88701428D01*
X220631333Y-88510952D01*
X220678952Y-88415714D01*
X220726571Y-88368095D01*
X220821809Y-88320476D01*
G04 #@! TO.C,D45*
X318246630Y-164076214D02*
X317246630Y-164076214D01*
X317246630Y-164314309D01*
X317294250Y-164457166D01*
X317389488Y-164552404D01*
X317484726Y-164600023D01*
X317675202Y-164647642D01*
X317818059Y-164647642D01*
X318008535Y-164600023D01*
X318103773Y-164552404D01*
X318199011Y-164457166D01*
X318246630Y-164314309D01*
X318246630Y-164076214D01*
X317579964Y-165504785D02*
X318246630Y-165504785D01*
X317199011Y-165266690D02*
X317913297Y-165028595D01*
X317913297Y-165647642D01*
X317246630Y-166504785D02*
X317246630Y-166028595D01*
X317722821Y-165980976D01*
X317675202Y-166028595D01*
X317627583Y-166123833D01*
X317627583Y-166361928D01*
X317675202Y-166457166D01*
X317722821Y-166504785D01*
X317818059Y-166552404D01*
X318056154Y-166552404D01*
X318151392Y-166504785D01*
X318199011Y-166457166D01*
X318246630Y-166361928D01*
X318246630Y-166123833D01*
X318199011Y-166028595D01*
X318151392Y-165980976D01*
G04 #@! TO.C,D44*
X227759130Y-145026214D02*
X226759130Y-145026214D01*
X226759130Y-145264309D01*
X226806750Y-145407166D01*
X226901988Y-145502404D01*
X226997226Y-145550023D01*
X227187702Y-145597642D01*
X227330559Y-145597642D01*
X227521035Y-145550023D01*
X227616273Y-145502404D01*
X227711511Y-145407166D01*
X227759130Y-145264309D01*
X227759130Y-145026214D01*
X227092464Y-146454785D02*
X227759130Y-146454785D01*
X226711511Y-146216690D02*
X227425797Y-145978595D01*
X227425797Y-146597642D01*
X227092464Y-147407166D02*
X227759130Y-147407166D01*
X226711511Y-147169071D02*
X227425797Y-146930976D01*
X227425797Y-147550023D01*
G04 #@! TO.C,D43*
X218234130Y-125976214D02*
X217234130Y-125976214D01*
X217234130Y-126214309D01*
X217281750Y-126357166D01*
X217376988Y-126452404D01*
X217472226Y-126500023D01*
X217662702Y-126547642D01*
X217805559Y-126547642D01*
X217996035Y-126500023D01*
X218091273Y-126452404D01*
X218186511Y-126357166D01*
X218234130Y-126214309D01*
X218234130Y-125976214D01*
X217567464Y-127404785D02*
X218234130Y-127404785D01*
X217186511Y-127166690D02*
X217900797Y-126928595D01*
X217900797Y-127547642D01*
X217234130Y-127833357D02*
X217234130Y-128452404D01*
X217615083Y-128119071D01*
X217615083Y-128261928D01*
X217662702Y-128357166D01*
X217710321Y-128404785D01*
X217805559Y-128452404D01*
X218043654Y-128452404D01*
X218138892Y-128404785D01*
X218186511Y-128357166D01*
X218234130Y-128261928D01*
X218234130Y-127976214D01*
X218186511Y-127880976D01*
X218138892Y-127833357D01*
G04 #@! TO.C,D42*
X213471630Y-105973714D02*
X212471630Y-105973714D01*
X212471630Y-106211809D01*
X212519250Y-106354666D01*
X212614488Y-106449904D01*
X212709726Y-106497523D01*
X212900202Y-106545142D01*
X213043059Y-106545142D01*
X213233535Y-106497523D01*
X213328773Y-106449904D01*
X213424011Y-106354666D01*
X213471630Y-106211809D01*
X213471630Y-105973714D01*
X212804964Y-107402285D02*
X213471630Y-107402285D01*
X212424011Y-107164190D02*
X213138297Y-106926095D01*
X213138297Y-107545142D01*
X212566869Y-107878476D02*
X212519250Y-107926095D01*
X212471630Y-108021333D01*
X212471630Y-108259428D01*
X212519250Y-108354666D01*
X212566869Y-108402285D01*
X212662107Y-108449904D01*
X212757345Y-108449904D01*
X212900202Y-108402285D01*
X213471630Y-107830857D01*
X213471630Y-108449904D01*
G04 #@! TO.C,D41*
X203978380Y-87177714D02*
X202978380Y-87177714D01*
X202978380Y-87415809D01*
X203026000Y-87558666D01*
X203121238Y-87653904D01*
X203216476Y-87701523D01*
X203406952Y-87749142D01*
X203549809Y-87749142D01*
X203740285Y-87701523D01*
X203835523Y-87653904D01*
X203930761Y-87558666D01*
X203978380Y-87415809D01*
X203978380Y-87177714D01*
X203311714Y-88606285D02*
X203978380Y-88606285D01*
X202930761Y-88368190D02*
X203645047Y-88130095D01*
X203645047Y-88749142D01*
X203978380Y-89653904D02*
X203978380Y-89082476D01*
X203978380Y-89368190D02*
X202978380Y-89368190D01*
X203121238Y-89272952D01*
X203216476Y-89177714D01*
X203264095Y-89082476D01*
G04 #@! TO.C,D40*
X299196630Y-164076214D02*
X298196630Y-164076214D01*
X298196630Y-164314309D01*
X298244250Y-164457166D01*
X298339488Y-164552404D01*
X298434726Y-164600023D01*
X298625202Y-164647642D01*
X298768059Y-164647642D01*
X298958535Y-164600023D01*
X299053773Y-164552404D01*
X299149011Y-164457166D01*
X299196630Y-164314309D01*
X299196630Y-164076214D01*
X298529964Y-165504785D02*
X299196630Y-165504785D01*
X298149011Y-165266690D02*
X298863297Y-165028595D01*
X298863297Y-165647642D01*
X298196630Y-166219071D02*
X298196630Y-166314309D01*
X298244250Y-166409547D01*
X298291869Y-166457166D01*
X298387107Y-166504785D01*
X298577583Y-166552404D01*
X298815678Y-166552404D01*
X299006154Y-166504785D01*
X299101392Y-166457166D01*
X299149011Y-166409547D01*
X299196630Y-166314309D01*
X299196630Y-166219071D01*
X299149011Y-166123833D01*
X299101392Y-166076214D01*
X299006154Y-166028595D01*
X298815678Y-165980976D01*
X298577583Y-165980976D01*
X298387107Y-166028595D01*
X298291869Y-166076214D01*
X298244250Y-166123833D01*
X298196630Y-166219071D01*
G04 #@! TO.C,D39*
X208709130Y-145026214D02*
X207709130Y-145026214D01*
X207709130Y-145264309D01*
X207756750Y-145407166D01*
X207851988Y-145502404D01*
X207947226Y-145550023D01*
X208137702Y-145597642D01*
X208280559Y-145597642D01*
X208471035Y-145550023D01*
X208566273Y-145502404D01*
X208661511Y-145407166D01*
X208709130Y-145264309D01*
X208709130Y-145026214D01*
X207709130Y-145930976D02*
X207709130Y-146550023D01*
X208090083Y-146216690D01*
X208090083Y-146359547D01*
X208137702Y-146454785D01*
X208185321Y-146502404D01*
X208280559Y-146550023D01*
X208518654Y-146550023D01*
X208613892Y-146502404D01*
X208661511Y-146454785D01*
X208709130Y-146359547D01*
X208709130Y-146073833D01*
X208661511Y-145978595D01*
X208613892Y-145930976D01*
X208709130Y-147026214D02*
X208709130Y-147216690D01*
X208661511Y-147311928D01*
X208613892Y-147359547D01*
X208471035Y-147454785D01*
X208280559Y-147502404D01*
X207899607Y-147502404D01*
X207804369Y-147454785D01*
X207756750Y-147407166D01*
X207709130Y-147311928D01*
X207709130Y-147121452D01*
X207756750Y-147026214D01*
X207804369Y-146978595D01*
X207899607Y-146930976D01*
X208137702Y-146930976D01*
X208232940Y-146978595D01*
X208280559Y-147026214D01*
X208328178Y-147121452D01*
X208328178Y-147311928D01*
X208280559Y-147407166D01*
X208232940Y-147454785D01*
X208137702Y-147502404D01*
G04 #@! TO.C,D38*
X199184130Y-125976214D02*
X198184130Y-125976214D01*
X198184130Y-126214309D01*
X198231750Y-126357166D01*
X198326988Y-126452404D01*
X198422226Y-126500023D01*
X198612702Y-126547642D01*
X198755559Y-126547642D01*
X198946035Y-126500023D01*
X199041273Y-126452404D01*
X199136511Y-126357166D01*
X199184130Y-126214309D01*
X199184130Y-125976214D01*
X198184130Y-126880976D02*
X198184130Y-127500023D01*
X198565083Y-127166690D01*
X198565083Y-127309547D01*
X198612702Y-127404785D01*
X198660321Y-127452404D01*
X198755559Y-127500023D01*
X198993654Y-127500023D01*
X199088892Y-127452404D01*
X199136511Y-127404785D01*
X199184130Y-127309547D01*
X199184130Y-127023833D01*
X199136511Y-126928595D01*
X199088892Y-126880976D01*
X198612702Y-128071452D02*
X198565083Y-127976214D01*
X198517464Y-127928595D01*
X198422226Y-127880976D01*
X198374607Y-127880976D01*
X198279369Y-127928595D01*
X198231750Y-127976214D01*
X198184130Y-128071452D01*
X198184130Y-128261928D01*
X198231750Y-128357166D01*
X198279369Y-128404785D01*
X198374607Y-128452404D01*
X198422226Y-128452404D01*
X198517464Y-128404785D01*
X198565083Y-128357166D01*
X198612702Y-128261928D01*
X198612702Y-128071452D01*
X198660321Y-127976214D01*
X198707940Y-127928595D01*
X198803178Y-127880976D01*
X198993654Y-127880976D01*
X199088892Y-127928595D01*
X199136511Y-127976214D01*
X199184130Y-128071452D01*
X199184130Y-128261928D01*
X199136511Y-128357166D01*
X199088892Y-128404785D01*
X198993654Y-128452404D01*
X198803178Y-128452404D01*
X198707940Y-128404785D01*
X198660321Y-128357166D01*
X198612702Y-128261928D01*
G04 #@! TO.C,D37*
X194421630Y-105973714D02*
X193421630Y-105973714D01*
X193421630Y-106211809D01*
X193469250Y-106354666D01*
X193564488Y-106449904D01*
X193659726Y-106497523D01*
X193850202Y-106545142D01*
X193993059Y-106545142D01*
X194183535Y-106497523D01*
X194278773Y-106449904D01*
X194374011Y-106354666D01*
X194421630Y-106211809D01*
X194421630Y-105973714D01*
X193421630Y-106878476D02*
X193421630Y-107497523D01*
X193802583Y-107164190D01*
X193802583Y-107307047D01*
X193850202Y-107402285D01*
X193897821Y-107449904D01*
X193993059Y-107497523D01*
X194231154Y-107497523D01*
X194326392Y-107449904D01*
X194374011Y-107402285D01*
X194421630Y-107307047D01*
X194421630Y-107021333D01*
X194374011Y-106926095D01*
X194326392Y-106878476D01*
X193421630Y-107830857D02*
X193421630Y-108497523D01*
X194421630Y-108068952D01*
G04 #@! TO.C,D36*
X184928380Y-87177714D02*
X183928380Y-87177714D01*
X183928380Y-87415809D01*
X183976000Y-87558666D01*
X184071238Y-87653904D01*
X184166476Y-87701523D01*
X184356952Y-87749142D01*
X184499809Y-87749142D01*
X184690285Y-87701523D01*
X184785523Y-87653904D01*
X184880761Y-87558666D01*
X184928380Y-87415809D01*
X184928380Y-87177714D01*
X183928380Y-88082476D02*
X183928380Y-88701523D01*
X184309333Y-88368190D01*
X184309333Y-88511047D01*
X184356952Y-88606285D01*
X184404571Y-88653904D01*
X184499809Y-88701523D01*
X184737904Y-88701523D01*
X184833142Y-88653904D01*
X184880761Y-88606285D01*
X184928380Y-88511047D01*
X184928380Y-88225333D01*
X184880761Y-88130095D01*
X184833142Y-88082476D01*
X183928380Y-89558666D02*
X183928380Y-89368190D01*
X183976000Y-89272952D01*
X184023619Y-89225333D01*
X184166476Y-89130095D01*
X184356952Y-89082476D01*
X184737904Y-89082476D01*
X184833142Y-89130095D01*
X184880761Y-89177714D01*
X184928380Y-89272952D01*
X184928380Y-89463428D01*
X184880761Y-89558666D01*
X184833142Y-89606285D01*
X184737904Y-89653904D01*
X184499809Y-89653904D01*
X184404571Y-89606285D01*
X184356952Y-89558666D01*
X184309333Y-89463428D01*
X184309333Y-89272952D01*
X184356952Y-89177714D01*
X184404571Y-89130095D01*
X184499809Y-89082476D01*
G04 #@! TO.C,D35*
X280146630Y-164076214D02*
X279146630Y-164076214D01*
X279146630Y-164314309D01*
X279194250Y-164457166D01*
X279289488Y-164552404D01*
X279384726Y-164600023D01*
X279575202Y-164647642D01*
X279718059Y-164647642D01*
X279908535Y-164600023D01*
X280003773Y-164552404D01*
X280099011Y-164457166D01*
X280146630Y-164314309D01*
X280146630Y-164076214D01*
X279146630Y-164980976D02*
X279146630Y-165600023D01*
X279527583Y-165266690D01*
X279527583Y-165409547D01*
X279575202Y-165504785D01*
X279622821Y-165552404D01*
X279718059Y-165600023D01*
X279956154Y-165600023D01*
X280051392Y-165552404D01*
X280099011Y-165504785D01*
X280146630Y-165409547D01*
X280146630Y-165123833D01*
X280099011Y-165028595D01*
X280051392Y-164980976D01*
X279146630Y-166504785D02*
X279146630Y-166028595D01*
X279622821Y-165980976D01*
X279575202Y-166028595D01*
X279527583Y-166123833D01*
X279527583Y-166361928D01*
X279575202Y-166457166D01*
X279622821Y-166504785D01*
X279718059Y-166552404D01*
X279956154Y-166552404D01*
X280051392Y-166504785D01*
X280099011Y-166457166D01*
X280146630Y-166361928D01*
X280146630Y-166123833D01*
X280099011Y-166028595D01*
X280051392Y-165980976D01*
G04 #@! TO.C,D34*
X189659130Y-145026214D02*
X188659130Y-145026214D01*
X188659130Y-145264309D01*
X188706750Y-145407166D01*
X188801988Y-145502404D01*
X188897226Y-145550023D01*
X189087702Y-145597642D01*
X189230559Y-145597642D01*
X189421035Y-145550023D01*
X189516273Y-145502404D01*
X189611511Y-145407166D01*
X189659130Y-145264309D01*
X189659130Y-145026214D01*
X188659130Y-145930976D02*
X188659130Y-146550023D01*
X189040083Y-146216690D01*
X189040083Y-146359547D01*
X189087702Y-146454785D01*
X189135321Y-146502404D01*
X189230559Y-146550023D01*
X189468654Y-146550023D01*
X189563892Y-146502404D01*
X189611511Y-146454785D01*
X189659130Y-146359547D01*
X189659130Y-146073833D01*
X189611511Y-145978595D01*
X189563892Y-145930976D01*
X188992464Y-147407166D02*
X189659130Y-147407166D01*
X188611511Y-147169071D02*
X189325797Y-146930976D01*
X189325797Y-147550023D01*
G04 #@! TO.C,D33*
X180134130Y-125976214D02*
X179134130Y-125976214D01*
X179134130Y-126214309D01*
X179181750Y-126357166D01*
X179276988Y-126452404D01*
X179372226Y-126500023D01*
X179562702Y-126547642D01*
X179705559Y-126547642D01*
X179896035Y-126500023D01*
X179991273Y-126452404D01*
X180086511Y-126357166D01*
X180134130Y-126214309D01*
X180134130Y-125976214D01*
X179134130Y-126880976D02*
X179134130Y-127500023D01*
X179515083Y-127166690D01*
X179515083Y-127309547D01*
X179562702Y-127404785D01*
X179610321Y-127452404D01*
X179705559Y-127500023D01*
X179943654Y-127500023D01*
X180038892Y-127452404D01*
X180086511Y-127404785D01*
X180134130Y-127309547D01*
X180134130Y-127023833D01*
X180086511Y-126928595D01*
X180038892Y-126880976D01*
X179134130Y-127833357D02*
X179134130Y-128452404D01*
X179515083Y-128119071D01*
X179515083Y-128261928D01*
X179562702Y-128357166D01*
X179610321Y-128404785D01*
X179705559Y-128452404D01*
X179943654Y-128452404D01*
X180038892Y-128404785D01*
X180086511Y-128357166D01*
X180134130Y-128261928D01*
X180134130Y-127976214D01*
X180086511Y-127880976D01*
X180038892Y-127833357D01*
G04 #@! TO.C,D32*
X175371630Y-105973714D02*
X174371630Y-105973714D01*
X174371630Y-106211809D01*
X174419250Y-106354666D01*
X174514488Y-106449904D01*
X174609726Y-106497523D01*
X174800202Y-106545142D01*
X174943059Y-106545142D01*
X175133535Y-106497523D01*
X175228773Y-106449904D01*
X175324011Y-106354666D01*
X175371630Y-106211809D01*
X175371630Y-105973714D01*
X174371630Y-106878476D02*
X174371630Y-107497523D01*
X174752583Y-107164190D01*
X174752583Y-107307047D01*
X174800202Y-107402285D01*
X174847821Y-107449904D01*
X174943059Y-107497523D01*
X175181154Y-107497523D01*
X175276392Y-107449904D01*
X175324011Y-107402285D01*
X175371630Y-107307047D01*
X175371630Y-107021333D01*
X175324011Y-106926095D01*
X175276392Y-106878476D01*
X174466869Y-107878476D02*
X174419250Y-107926095D01*
X174371630Y-108021333D01*
X174371630Y-108259428D01*
X174419250Y-108354666D01*
X174466869Y-108402285D01*
X174562107Y-108449904D01*
X174657345Y-108449904D01*
X174800202Y-108402285D01*
X175371630Y-107830857D01*
X175371630Y-108449904D01*
G04 #@! TO.C,D31*
X165878380Y-87177714D02*
X164878380Y-87177714D01*
X164878380Y-87415809D01*
X164926000Y-87558666D01*
X165021238Y-87653904D01*
X165116476Y-87701523D01*
X165306952Y-87749142D01*
X165449809Y-87749142D01*
X165640285Y-87701523D01*
X165735523Y-87653904D01*
X165830761Y-87558666D01*
X165878380Y-87415809D01*
X165878380Y-87177714D01*
X164878380Y-88082476D02*
X164878380Y-88701523D01*
X165259333Y-88368190D01*
X165259333Y-88511047D01*
X165306952Y-88606285D01*
X165354571Y-88653904D01*
X165449809Y-88701523D01*
X165687904Y-88701523D01*
X165783142Y-88653904D01*
X165830761Y-88606285D01*
X165878380Y-88511047D01*
X165878380Y-88225333D01*
X165830761Y-88130095D01*
X165783142Y-88082476D01*
X165878380Y-89653904D02*
X165878380Y-89082476D01*
X165878380Y-89368190D02*
X164878380Y-89368190D01*
X165021238Y-89272952D01*
X165116476Y-89177714D01*
X165164095Y-89082476D01*
G04 #@! TO.C,D30*
X261096630Y-164076214D02*
X260096630Y-164076214D01*
X260096630Y-164314309D01*
X260144250Y-164457166D01*
X260239488Y-164552404D01*
X260334726Y-164600023D01*
X260525202Y-164647642D01*
X260668059Y-164647642D01*
X260858535Y-164600023D01*
X260953773Y-164552404D01*
X261049011Y-164457166D01*
X261096630Y-164314309D01*
X261096630Y-164076214D01*
X260096630Y-164980976D02*
X260096630Y-165600023D01*
X260477583Y-165266690D01*
X260477583Y-165409547D01*
X260525202Y-165504785D01*
X260572821Y-165552404D01*
X260668059Y-165600023D01*
X260906154Y-165600023D01*
X261001392Y-165552404D01*
X261049011Y-165504785D01*
X261096630Y-165409547D01*
X261096630Y-165123833D01*
X261049011Y-165028595D01*
X261001392Y-164980976D01*
X260096630Y-166219071D02*
X260096630Y-166314309D01*
X260144250Y-166409547D01*
X260191869Y-166457166D01*
X260287107Y-166504785D01*
X260477583Y-166552404D01*
X260715678Y-166552404D01*
X260906154Y-166504785D01*
X261001392Y-166457166D01*
X261049011Y-166409547D01*
X261096630Y-166314309D01*
X261096630Y-166219071D01*
X261049011Y-166123833D01*
X261001392Y-166076214D01*
X260906154Y-166028595D01*
X260715678Y-165980976D01*
X260477583Y-165980976D01*
X260287107Y-166028595D01*
X260191869Y-166076214D01*
X260144250Y-166123833D01*
X260096630Y-166219071D01*
G04 #@! TO.C,D29*
X170609130Y-145026214D02*
X169609130Y-145026214D01*
X169609130Y-145264309D01*
X169656750Y-145407166D01*
X169751988Y-145502404D01*
X169847226Y-145550023D01*
X170037702Y-145597642D01*
X170180559Y-145597642D01*
X170371035Y-145550023D01*
X170466273Y-145502404D01*
X170561511Y-145407166D01*
X170609130Y-145264309D01*
X170609130Y-145026214D01*
X169704369Y-145978595D02*
X169656750Y-146026214D01*
X169609130Y-146121452D01*
X169609130Y-146359547D01*
X169656750Y-146454785D01*
X169704369Y-146502404D01*
X169799607Y-146550023D01*
X169894845Y-146550023D01*
X170037702Y-146502404D01*
X170609130Y-145930976D01*
X170609130Y-146550023D01*
X170609130Y-147026214D02*
X170609130Y-147216690D01*
X170561511Y-147311928D01*
X170513892Y-147359547D01*
X170371035Y-147454785D01*
X170180559Y-147502404D01*
X169799607Y-147502404D01*
X169704369Y-147454785D01*
X169656750Y-147407166D01*
X169609130Y-147311928D01*
X169609130Y-147121452D01*
X169656750Y-147026214D01*
X169704369Y-146978595D01*
X169799607Y-146930976D01*
X170037702Y-146930976D01*
X170132940Y-146978595D01*
X170180559Y-147026214D01*
X170228178Y-147121452D01*
X170228178Y-147311928D01*
X170180559Y-147407166D01*
X170132940Y-147454785D01*
X170037702Y-147502404D01*
G04 #@! TO.C,D28*
X161084130Y-125976214D02*
X160084130Y-125976214D01*
X160084130Y-126214309D01*
X160131750Y-126357166D01*
X160226988Y-126452404D01*
X160322226Y-126500023D01*
X160512702Y-126547642D01*
X160655559Y-126547642D01*
X160846035Y-126500023D01*
X160941273Y-126452404D01*
X161036511Y-126357166D01*
X161084130Y-126214309D01*
X161084130Y-125976214D01*
X160179369Y-126928595D02*
X160131750Y-126976214D01*
X160084130Y-127071452D01*
X160084130Y-127309547D01*
X160131750Y-127404785D01*
X160179369Y-127452404D01*
X160274607Y-127500023D01*
X160369845Y-127500023D01*
X160512702Y-127452404D01*
X161084130Y-126880976D01*
X161084130Y-127500023D01*
X160512702Y-128071452D02*
X160465083Y-127976214D01*
X160417464Y-127928595D01*
X160322226Y-127880976D01*
X160274607Y-127880976D01*
X160179369Y-127928595D01*
X160131750Y-127976214D01*
X160084130Y-128071452D01*
X160084130Y-128261928D01*
X160131750Y-128357166D01*
X160179369Y-128404785D01*
X160274607Y-128452404D01*
X160322226Y-128452404D01*
X160417464Y-128404785D01*
X160465083Y-128357166D01*
X160512702Y-128261928D01*
X160512702Y-128071452D01*
X160560321Y-127976214D01*
X160607940Y-127928595D01*
X160703178Y-127880976D01*
X160893654Y-127880976D01*
X160988892Y-127928595D01*
X161036511Y-127976214D01*
X161084130Y-128071452D01*
X161084130Y-128261928D01*
X161036511Y-128357166D01*
X160988892Y-128404785D01*
X160893654Y-128452404D01*
X160703178Y-128452404D01*
X160607940Y-128404785D01*
X160560321Y-128357166D01*
X160512702Y-128261928D01*
G04 #@! TO.C,D27*
X156321630Y-105973714D02*
X155321630Y-105973714D01*
X155321630Y-106211809D01*
X155369250Y-106354666D01*
X155464488Y-106449904D01*
X155559726Y-106497523D01*
X155750202Y-106545142D01*
X155893059Y-106545142D01*
X156083535Y-106497523D01*
X156178773Y-106449904D01*
X156274011Y-106354666D01*
X156321630Y-106211809D01*
X156321630Y-105973714D01*
X155416869Y-106926095D02*
X155369250Y-106973714D01*
X155321630Y-107068952D01*
X155321630Y-107307047D01*
X155369250Y-107402285D01*
X155416869Y-107449904D01*
X155512107Y-107497523D01*
X155607345Y-107497523D01*
X155750202Y-107449904D01*
X156321630Y-106878476D01*
X156321630Y-107497523D01*
X155321630Y-107830857D02*
X155321630Y-108497523D01*
X156321630Y-108068952D01*
G04 #@! TO.C,D26*
X146828380Y-87177714D02*
X145828380Y-87177714D01*
X145828380Y-87415809D01*
X145876000Y-87558666D01*
X145971238Y-87653904D01*
X146066476Y-87701523D01*
X146256952Y-87749142D01*
X146399809Y-87749142D01*
X146590285Y-87701523D01*
X146685523Y-87653904D01*
X146780761Y-87558666D01*
X146828380Y-87415809D01*
X146828380Y-87177714D01*
X145923619Y-88130095D02*
X145876000Y-88177714D01*
X145828380Y-88272952D01*
X145828380Y-88511047D01*
X145876000Y-88606285D01*
X145923619Y-88653904D01*
X146018857Y-88701523D01*
X146114095Y-88701523D01*
X146256952Y-88653904D01*
X146828380Y-88082476D01*
X146828380Y-88701523D01*
X145828380Y-89558666D02*
X145828380Y-89368190D01*
X145876000Y-89272952D01*
X145923619Y-89225333D01*
X146066476Y-89130095D01*
X146256952Y-89082476D01*
X146637904Y-89082476D01*
X146733142Y-89130095D01*
X146780761Y-89177714D01*
X146828380Y-89272952D01*
X146828380Y-89463428D01*
X146780761Y-89558666D01*
X146733142Y-89606285D01*
X146637904Y-89653904D01*
X146399809Y-89653904D01*
X146304571Y-89606285D01*
X146256952Y-89558666D01*
X146209333Y-89463428D01*
X146209333Y-89272952D01*
X146256952Y-89177714D01*
X146304571Y-89130095D01*
X146399809Y-89082476D01*
G04 #@! TO.C,D25*
X242046630Y-164076214D02*
X241046630Y-164076214D01*
X241046630Y-164314309D01*
X241094250Y-164457166D01*
X241189488Y-164552404D01*
X241284726Y-164600023D01*
X241475202Y-164647642D01*
X241618059Y-164647642D01*
X241808535Y-164600023D01*
X241903773Y-164552404D01*
X241999011Y-164457166D01*
X242046630Y-164314309D01*
X242046630Y-164076214D01*
X241141869Y-165028595D02*
X241094250Y-165076214D01*
X241046630Y-165171452D01*
X241046630Y-165409547D01*
X241094250Y-165504785D01*
X241141869Y-165552404D01*
X241237107Y-165600023D01*
X241332345Y-165600023D01*
X241475202Y-165552404D01*
X242046630Y-164980976D01*
X242046630Y-165600023D01*
X241046630Y-166504785D02*
X241046630Y-166028595D01*
X241522821Y-165980976D01*
X241475202Y-166028595D01*
X241427583Y-166123833D01*
X241427583Y-166361928D01*
X241475202Y-166457166D01*
X241522821Y-166504785D01*
X241618059Y-166552404D01*
X241856154Y-166552404D01*
X241951392Y-166504785D01*
X241999011Y-166457166D01*
X242046630Y-166361928D01*
X242046630Y-166123833D01*
X241999011Y-166028595D01*
X241951392Y-165980976D01*
G04 #@! TO.C,D24*
X151559130Y-145026214D02*
X150559130Y-145026214D01*
X150559130Y-145264309D01*
X150606750Y-145407166D01*
X150701988Y-145502404D01*
X150797226Y-145550023D01*
X150987702Y-145597642D01*
X151130559Y-145597642D01*
X151321035Y-145550023D01*
X151416273Y-145502404D01*
X151511511Y-145407166D01*
X151559130Y-145264309D01*
X151559130Y-145026214D01*
X150654369Y-145978595D02*
X150606750Y-146026214D01*
X150559130Y-146121452D01*
X150559130Y-146359547D01*
X150606750Y-146454785D01*
X150654369Y-146502404D01*
X150749607Y-146550023D01*
X150844845Y-146550023D01*
X150987702Y-146502404D01*
X151559130Y-145930976D01*
X151559130Y-146550023D01*
X150892464Y-147407166D02*
X151559130Y-147407166D01*
X150511511Y-147169071D02*
X151225797Y-146930976D01*
X151225797Y-147550023D01*
G04 #@! TO.C,D23*
X142034130Y-125976214D02*
X141034130Y-125976214D01*
X141034130Y-126214309D01*
X141081750Y-126357166D01*
X141176988Y-126452404D01*
X141272226Y-126500023D01*
X141462702Y-126547642D01*
X141605559Y-126547642D01*
X141796035Y-126500023D01*
X141891273Y-126452404D01*
X141986511Y-126357166D01*
X142034130Y-126214309D01*
X142034130Y-125976214D01*
X141129369Y-126928595D02*
X141081750Y-126976214D01*
X141034130Y-127071452D01*
X141034130Y-127309547D01*
X141081750Y-127404785D01*
X141129369Y-127452404D01*
X141224607Y-127500023D01*
X141319845Y-127500023D01*
X141462702Y-127452404D01*
X142034130Y-126880976D01*
X142034130Y-127500023D01*
X141034130Y-127833357D02*
X141034130Y-128452404D01*
X141415083Y-128119071D01*
X141415083Y-128261928D01*
X141462702Y-128357166D01*
X141510321Y-128404785D01*
X141605559Y-128452404D01*
X141843654Y-128452404D01*
X141938892Y-128404785D01*
X141986511Y-128357166D01*
X142034130Y-128261928D01*
X142034130Y-127976214D01*
X141986511Y-127880976D01*
X141938892Y-127833357D01*
G04 #@! TO.C,D22*
X137271630Y-105973714D02*
X136271630Y-105973714D01*
X136271630Y-106211809D01*
X136319250Y-106354666D01*
X136414488Y-106449904D01*
X136509726Y-106497523D01*
X136700202Y-106545142D01*
X136843059Y-106545142D01*
X137033535Y-106497523D01*
X137128773Y-106449904D01*
X137224011Y-106354666D01*
X137271630Y-106211809D01*
X137271630Y-105973714D01*
X136366869Y-106926095D02*
X136319250Y-106973714D01*
X136271630Y-107068952D01*
X136271630Y-107307047D01*
X136319250Y-107402285D01*
X136366869Y-107449904D01*
X136462107Y-107497523D01*
X136557345Y-107497523D01*
X136700202Y-107449904D01*
X137271630Y-106878476D01*
X137271630Y-107497523D01*
X136366869Y-107878476D02*
X136319250Y-107926095D01*
X136271630Y-108021333D01*
X136271630Y-108259428D01*
X136319250Y-108354666D01*
X136366869Y-108402285D01*
X136462107Y-108449904D01*
X136557345Y-108449904D01*
X136700202Y-108402285D01*
X137271630Y-107830857D01*
X137271630Y-108449904D01*
G04 #@! TO.C,D21*
X127778380Y-87177714D02*
X126778380Y-87177714D01*
X126778380Y-87415809D01*
X126826000Y-87558666D01*
X126921238Y-87653904D01*
X127016476Y-87701523D01*
X127206952Y-87749142D01*
X127349809Y-87749142D01*
X127540285Y-87701523D01*
X127635523Y-87653904D01*
X127730761Y-87558666D01*
X127778380Y-87415809D01*
X127778380Y-87177714D01*
X126873619Y-88130095D02*
X126826000Y-88177714D01*
X126778380Y-88272952D01*
X126778380Y-88511047D01*
X126826000Y-88606285D01*
X126873619Y-88653904D01*
X126968857Y-88701523D01*
X127064095Y-88701523D01*
X127206952Y-88653904D01*
X127778380Y-88082476D01*
X127778380Y-88701523D01*
X127778380Y-89653904D02*
X127778380Y-89082476D01*
X127778380Y-89368190D02*
X126778380Y-89368190D01*
X126921238Y-89272952D01*
X127016476Y-89177714D01*
X127064095Y-89082476D01*
G04 #@! TO.C,D20*
X172990380Y-164076214D02*
X171990380Y-164076214D01*
X171990380Y-164314309D01*
X172038000Y-164457166D01*
X172133238Y-164552404D01*
X172228476Y-164600023D01*
X172418952Y-164647642D01*
X172561809Y-164647642D01*
X172752285Y-164600023D01*
X172847523Y-164552404D01*
X172942761Y-164457166D01*
X172990380Y-164314309D01*
X172990380Y-164076214D01*
X172085619Y-165028595D02*
X172038000Y-165076214D01*
X171990380Y-165171452D01*
X171990380Y-165409547D01*
X172038000Y-165504785D01*
X172085619Y-165552404D01*
X172180857Y-165600023D01*
X172276095Y-165600023D01*
X172418952Y-165552404D01*
X172990380Y-164980976D01*
X172990380Y-165600023D01*
X171990380Y-166219071D02*
X171990380Y-166314309D01*
X172038000Y-166409547D01*
X172085619Y-166457166D01*
X172180857Y-166504785D01*
X172371333Y-166552404D01*
X172609428Y-166552404D01*
X172799904Y-166504785D01*
X172895142Y-166457166D01*
X172942761Y-166409547D01*
X172990380Y-166314309D01*
X172990380Y-166219071D01*
X172942761Y-166123833D01*
X172895142Y-166076214D01*
X172799904Y-166028595D01*
X172609428Y-165980976D01*
X172371333Y-165980976D01*
X172180857Y-166028595D01*
X172085619Y-166076214D01*
X172038000Y-166123833D01*
X171990380Y-166219071D01*
G04 #@! TO.C,D19*
X132509130Y-145026214D02*
X131509130Y-145026214D01*
X131509130Y-145264309D01*
X131556750Y-145407166D01*
X131651988Y-145502404D01*
X131747226Y-145550023D01*
X131937702Y-145597642D01*
X132080559Y-145597642D01*
X132271035Y-145550023D01*
X132366273Y-145502404D01*
X132461511Y-145407166D01*
X132509130Y-145264309D01*
X132509130Y-145026214D01*
X132509130Y-146550023D02*
X132509130Y-145978595D01*
X132509130Y-146264309D02*
X131509130Y-146264309D01*
X131651988Y-146169071D01*
X131747226Y-146073833D01*
X131794845Y-145978595D01*
X132509130Y-147026214D02*
X132509130Y-147216690D01*
X132461511Y-147311928D01*
X132413892Y-147359547D01*
X132271035Y-147454785D01*
X132080559Y-147502404D01*
X131699607Y-147502404D01*
X131604369Y-147454785D01*
X131556750Y-147407166D01*
X131509130Y-147311928D01*
X131509130Y-147121452D01*
X131556750Y-147026214D01*
X131604369Y-146978595D01*
X131699607Y-146930976D01*
X131937702Y-146930976D01*
X132032940Y-146978595D01*
X132080559Y-147026214D01*
X132128178Y-147121452D01*
X132128178Y-147311928D01*
X132080559Y-147407166D01*
X132032940Y-147454785D01*
X131937702Y-147502404D01*
G04 #@! TO.C,D18*
X122984130Y-125976214D02*
X121984130Y-125976214D01*
X121984130Y-126214309D01*
X122031750Y-126357166D01*
X122126988Y-126452404D01*
X122222226Y-126500023D01*
X122412702Y-126547642D01*
X122555559Y-126547642D01*
X122746035Y-126500023D01*
X122841273Y-126452404D01*
X122936511Y-126357166D01*
X122984130Y-126214309D01*
X122984130Y-125976214D01*
X122984130Y-127500023D02*
X122984130Y-126928595D01*
X122984130Y-127214309D02*
X121984130Y-127214309D01*
X122126988Y-127119071D01*
X122222226Y-127023833D01*
X122269845Y-126928595D01*
X122412702Y-128071452D02*
X122365083Y-127976214D01*
X122317464Y-127928595D01*
X122222226Y-127880976D01*
X122174607Y-127880976D01*
X122079369Y-127928595D01*
X122031750Y-127976214D01*
X121984130Y-128071452D01*
X121984130Y-128261928D01*
X122031750Y-128357166D01*
X122079369Y-128404785D01*
X122174607Y-128452404D01*
X122222226Y-128452404D01*
X122317464Y-128404785D01*
X122365083Y-128357166D01*
X122412702Y-128261928D01*
X122412702Y-128071452D01*
X122460321Y-127976214D01*
X122507940Y-127928595D01*
X122603178Y-127880976D01*
X122793654Y-127880976D01*
X122888892Y-127928595D01*
X122936511Y-127976214D01*
X122984130Y-128071452D01*
X122984130Y-128261928D01*
X122936511Y-128357166D01*
X122888892Y-128404785D01*
X122793654Y-128452404D01*
X122603178Y-128452404D01*
X122507940Y-128404785D01*
X122460321Y-128357166D01*
X122412702Y-128261928D01*
G04 #@! TO.C,D17*
X118221630Y-105973714D02*
X117221630Y-105973714D01*
X117221630Y-106211809D01*
X117269250Y-106354666D01*
X117364488Y-106449904D01*
X117459726Y-106497523D01*
X117650202Y-106545142D01*
X117793059Y-106545142D01*
X117983535Y-106497523D01*
X118078773Y-106449904D01*
X118174011Y-106354666D01*
X118221630Y-106211809D01*
X118221630Y-105973714D01*
X118221630Y-107497523D02*
X118221630Y-106926095D01*
X118221630Y-107211809D02*
X117221630Y-107211809D01*
X117364488Y-107116571D01*
X117459726Y-107021333D01*
X117507345Y-106926095D01*
X117221630Y-107830857D02*
X117221630Y-108497523D01*
X118221630Y-108068952D01*
G04 #@! TO.C,D16*
X107823619Y-89606285D02*
X108823619Y-89606285D01*
X108823619Y-89368190D01*
X108776000Y-89225333D01*
X108680761Y-89130095D01*
X108585523Y-89082476D01*
X108395047Y-89034857D01*
X108252190Y-89034857D01*
X108061714Y-89082476D01*
X107966476Y-89130095D01*
X107871238Y-89225333D01*
X107823619Y-89368190D01*
X107823619Y-89606285D01*
X107823619Y-88082476D02*
X107823619Y-88653904D01*
X107823619Y-88368190D02*
X108823619Y-88368190D01*
X108680761Y-88463428D01*
X108585523Y-88558666D01*
X108537904Y-88653904D01*
X108823619Y-87225333D02*
X108823619Y-87415809D01*
X108776000Y-87511047D01*
X108728380Y-87558666D01*
X108585523Y-87653904D01*
X108395047Y-87701523D01*
X108014095Y-87701523D01*
X107918857Y-87653904D01*
X107871238Y-87606285D01*
X107823619Y-87511047D01*
X107823619Y-87320571D01*
X107871238Y-87225333D01*
X107918857Y-87177714D01*
X108014095Y-87130095D01*
X108252190Y-87130095D01*
X108347428Y-87177714D01*
X108395047Y-87225333D01*
X108442666Y-87320571D01*
X108442666Y-87511047D01*
X108395047Y-87606285D01*
X108347428Y-87653904D01*
X108252190Y-87701523D01*
G04 #@! TO.C,D15*
X101552880Y-164076214D02*
X100552880Y-164076214D01*
X100552880Y-164314309D01*
X100600500Y-164457166D01*
X100695738Y-164552404D01*
X100790976Y-164600023D01*
X100981452Y-164647642D01*
X101124309Y-164647642D01*
X101314785Y-164600023D01*
X101410023Y-164552404D01*
X101505261Y-164457166D01*
X101552880Y-164314309D01*
X101552880Y-164076214D01*
X101552880Y-165600023D02*
X101552880Y-165028595D01*
X101552880Y-165314309D02*
X100552880Y-165314309D01*
X100695738Y-165219071D01*
X100790976Y-165123833D01*
X100838595Y-165028595D01*
X100552880Y-166504785D02*
X100552880Y-166028595D01*
X101029071Y-165980976D01*
X100981452Y-166028595D01*
X100933833Y-166123833D01*
X100933833Y-166361928D01*
X100981452Y-166457166D01*
X101029071Y-166504785D01*
X101124309Y-166552404D01*
X101362404Y-166552404D01*
X101457642Y-166504785D01*
X101505261Y-166457166D01*
X101552880Y-166361928D01*
X101552880Y-166123833D01*
X101505261Y-166028595D01*
X101457642Y-165980976D01*
G04 #@! TO.C,D14*
X113459130Y-144581714D02*
X112459130Y-144581714D01*
X112459130Y-144819809D01*
X112506750Y-144962666D01*
X112601988Y-145057904D01*
X112697226Y-145105523D01*
X112887702Y-145153142D01*
X113030559Y-145153142D01*
X113221035Y-145105523D01*
X113316273Y-145057904D01*
X113411511Y-144962666D01*
X113459130Y-144819809D01*
X113459130Y-144581714D01*
X113459130Y-146105523D02*
X113459130Y-145534095D01*
X113459130Y-145819809D02*
X112459130Y-145819809D01*
X112601988Y-145724571D01*
X112697226Y-145629333D01*
X112744845Y-145534095D01*
X112792464Y-146962666D02*
X113459130Y-146962666D01*
X112411511Y-146724571D02*
X113125797Y-146486476D01*
X113125797Y-147105523D01*
G04 #@! TO.C,D13*
X103934130Y-125976214D02*
X102934130Y-125976214D01*
X102934130Y-126214309D01*
X102981750Y-126357166D01*
X103076988Y-126452404D01*
X103172226Y-126500023D01*
X103362702Y-126547642D01*
X103505559Y-126547642D01*
X103696035Y-126500023D01*
X103791273Y-126452404D01*
X103886511Y-126357166D01*
X103934130Y-126214309D01*
X103934130Y-125976214D01*
X103934130Y-127500023D02*
X103934130Y-126928595D01*
X103934130Y-127214309D02*
X102934130Y-127214309D01*
X103076988Y-127119071D01*
X103172226Y-127023833D01*
X103219845Y-126928595D01*
X102934130Y-127833357D02*
X102934130Y-128452404D01*
X103315083Y-128119071D01*
X103315083Y-128261928D01*
X103362702Y-128357166D01*
X103410321Y-128404785D01*
X103505559Y-128452404D01*
X103743654Y-128452404D01*
X103838892Y-128404785D01*
X103886511Y-128357166D01*
X103934130Y-128261928D01*
X103934130Y-127976214D01*
X103886511Y-127880976D01*
X103838892Y-127833357D01*
G04 #@! TO.C,D12*
X99076380Y-105973714D02*
X98076380Y-105973714D01*
X98076380Y-106211809D01*
X98124000Y-106354666D01*
X98219238Y-106449904D01*
X98314476Y-106497523D01*
X98504952Y-106545142D01*
X98647809Y-106545142D01*
X98838285Y-106497523D01*
X98933523Y-106449904D01*
X99028761Y-106354666D01*
X99076380Y-106211809D01*
X99076380Y-105973714D01*
X99076380Y-107497523D02*
X99076380Y-106926095D01*
X99076380Y-107211809D02*
X98076380Y-107211809D01*
X98219238Y-107116571D01*
X98314476Y-107021333D01*
X98362095Y-106926095D01*
X98171619Y-107878476D02*
X98124000Y-107926095D01*
X98076380Y-108021333D01*
X98076380Y-108259428D01*
X98124000Y-108354666D01*
X98171619Y-108402285D01*
X98266857Y-108449904D01*
X98362095Y-108449904D01*
X98504952Y-108402285D01*
X99076380Y-107830857D01*
X99076380Y-108449904D01*
G04 #@! TO.C,D11*
X88773619Y-89606285D02*
X89773619Y-89606285D01*
X89773619Y-89368190D01*
X89726000Y-89225333D01*
X89630761Y-89130095D01*
X89535523Y-89082476D01*
X89345047Y-89034857D01*
X89202190Y-89034857D01*
X89011714Y-89082476D01*
X88916476Y-89130095D01*
X88821238Y-89225333D01*
X88773619Y-89368190D01*
X88773619Y-89606285D01*
X88773619Y-88082476D02*
X88773619Y-88653904D01*
X88773619Y-88368190D02*
X89773619Y-88368190D01*
X89630761Y-88463428D01*
X89535523Y-88558666D01*
X89487904Y-88653904D01*
X88773619Y-87130095D02*
X88773619Y-87701523D01*
X88773619Y-87415809D02*
X89773619Y-87415809D01*
X89630761Y-87511047D01*
X89535523Y-87606285D01*
X89487904Y-87701523D01*
G04 #@! TO.C,D10*
X77740380Y-164076214D02*
X76740380Y-164076214D01*
X76740380Y-164314309D01*
X76788000Y-164457166D01*
X76883238Y-164552404D01*
X76978476Y-164600023D01*
X77168952Y-164647642D01*
X77311809Y-164647642D01*
X77502285Y-164600023D01*
X77597523Y-164552404D01*
X77692761Y-164457166D01*
X77740380Y-164314309D01*
X77740380Y-164076214D01*
X77740380Y-165600023D02*
X77740380Y-165028595D01*
X77740380Y-165314309D02*
X76740380Y-165314309D01*
X76883238Y-165219071D01*
X76978476Y-165123833D01*
X77026095Y-165028595D01*
X76740380Y-166219071D02*
X76740380Y-166314309D01*
X76788000Y-166409547D01*
X76835619Y-166457166D01*
X76930857Y-166504785D01*
X77121333Y-166552404D01*
X77359428Y-166552404D01*
X77549904Y-166504785D01*
X77645142Y-166457166D01*
X77692761Y-166409547D01*
X77740380Y-166314309D01*
X77740380Y-166219071D01*
X77692761Y-166123833D01*
X77645142Y-166076214D01*
X77549904Y-166028595D01*
X77359428Y-165980976D01*
X77121333Y-165980976D01*
X76930857Y-166028595D01*
X76835619Y-166076214D01*
X76788000Y-166123833D01*
X76740380Y-166219071D01*
G04 #@! TO.C,D9*
X94409130Y-145502404D02*
X93409130Y-145502404D01*
X93409130Y-145740500D01*
X93456750Y-145883357D01*
X93551988Y-145978595D01*
X93647226Y-146026214D01*
X93837702Y-146073833D01*
X93980559Y-146073833D01*
X94171035Y-146026214D01*
X94266273Y-145978595D01*
X94361511Y-145883357D01*
X94409130Y-145740500D01*
X94409130Y-145502404D01*
X94409130Y-146550023D02*
X94409130Y-146740500D01*
X94361511Y-146835738D01*
X94313892Y-146883357D01*
X94171035Y-146978595D01*
X93980559Y-147026214D01*
X93599607Y-147026214D01*
X93504369Y-146978595D01*
X93456750Y-146930976D01*
X93409130Y-146835738D01*
X93409130Y-146645261D01*
X93456750Y-146550023D01*
X93504369Y-146502404D01*
X93599607Y-146454785D01*
X93837702Y-146454785D01*
X93932940Y-146502404D01*
X93980559Y-146550023D01*
X94028178Y-146645261D01*
X94028178Y-146835738D01*
X93980559Y-146930976D01*
X93932940Y-146978595D01*
X93837702Y-147026214D01*
G04 #@! TO.C,D8*
X84884130Y-126452404D02*
X83884130Y-126452404D01*
X83884130Y-126690500D01*
X83931750Y-126833357D01*
X84026988Y-126928595D01*
X84122226Y-126976214D01*
X84312702Y-127023833D01*
X84455559Y-127023833D01*
X84646035Y-126976214D01*
X84741273Y-126928595D01*
X84836511Y-126833357D01*
X84884130Y-126690500D01*
X84884130Y-126452404D01*
X84312702Y-127595261D02*
X84265083Y-127500023D01*
X84217464Y-127452404D01*
X84122226Y-127404785D01*
X84074607Y-127404785D01*
X83979369Y-127452404D01*
X83931750Y-127500023D01*
X83884130Y-127595261D01*
X83884130Y-127785738D01*
X83931750Y-127880976D01*
X83979369Y-127928595D01*
X84074607Y-127976214D01*
X84122226Y-127976214D01*
X84217464Y-127928595D01*
X84265083Y-127880976D01*
X84312702Y-127785738D01*
X84312702Y-127595261D01*
X84360321Y-127500023D01*
X84407940Y-127452404D01*
X84503178Y-127404785D01*
X84693654Y-127404785D01*
X84788892Y-127452404D01*
X84836511Y-127500023D01*
X84884130Y-127595261D01*
X84884130Y-127785738D01*
X84836511Y-127880976D01*
X84788892Y-127928595D01*
X84693654Y-127976214D01*
X84503178Y-127976214D01*
X84407940Y-127928595D01*
X84360321Y-127880976D01*
X84312702Y-127785738D01*
G04 #@! TO.C,D7*
X80280380Y-106449904D02*
X79280380Y-106449904D01*
X79280380Y-106688000D01*
X79328000Y-106830857D01*
X79423238Y-106926095D01*
X79518476Y-106973714D01*
X79708952Y-107021333D01*
X79851809Y-107021333D01*
X80042285Y-106973714D01*
X80137523Y-106926095D01*
X80232761Y-106830857D01*
X80280380Y-106688000D01*
X80280380Y-106449904D01*
X79280380Y-107354666D02*
X79280380Y-108021333D01*
X80280380Y-107592761D01*
G04 #@! TO.C,D6*
X70628380Y-87653904D02*
X69628380Y-87653904D01*
X69628380Y-87892000D01*
X69676000Y-88034857D01*
X69771238Y-88130095D01*
X69866476Y-88177714D01*
X70056952Y-88225333D01*
X70199809Y-88225333D01*
X70390285Y-88177714D01*
X70485523Y-88130095D01*
X70580761Y-88034857D01*
X70628380Y-87892000D01*
X70628380Y-87653904D01*
X69628380Y-89082476D02*
X69628380Y-88892000D01*
X69676000Y-88796761D01*
X69723619Y-88749142D01*
X69866476Y-88653904D01*
X70056952Y-88606285D01*
X70437904Y-88606285D01*
X70533142Y-88653904D01*
X70580761Y-88701523D01*
X70628380Y-88796761D01*
X70628380Y-88987238D01*
X70580761Y-89082476D01*
X70533142Y-89130095D01*
X70437904Y-89177714D01*
X70199809Y-89177714D01*
X70104571Y-89130095D01*
X70056952Y-89082476D01*
X70009333Y-88987238D01*
X70009333Y-88796761D01*
X70056952Y-88701523D01*
X70104571Y-88653904D01*
X70199809Y-88606285D01*
G04 #@! TO.C,D5*
X53927880Y-164552404D02*
X52927880Y-164552404D01*
X52927880Y-164790500D01*
X52975500Y-164933357D01*
X53070738Y-165028595D01*
X53165976Y-165076214D01*
X53356452Y-165123833D01*
X53499309Y-165123833D01*
X53689785Y-165076214D01*
X53785023Y-165028595D01*
X53880261Y-164933357D01*
X53927880Y-164790500D01*
X53927880Y-164552404D01*
X52927880Y-166028595D02*
X52927880Y-165552404D01*
X53404071Y-165504785D01*
X53356452Y-165552404D01*
X53308833Y-165647642D01*
X53308833Y-165885738D01*
X53356452Y-165980976D01*
X53404071Y-166028595D01*
X53499309Y-166076214D01*
X53737404Y-166076214D01*
X53832642Y-166028595D01*
X53880261Y-165980976D01*
X53927880Y-165885738D01*
X53927880Y-165647642D01*
X53880261Y-165552404D01*
X53832642Y-165504785D01*
G04 #@! TO.C,D4*
X63452880Y-145502404D02*
X62452880Y-145502404D01*
X62452880Y-145740500D01*
X62500500Y-145883357D01*
X62595738Y-145978595D01*
X62690976Y-146026214D01*
X62881452Y-146073833D01*
X63024309Y-146073833D01*
X63214785Y-146026214D01*
X63310023Y-145978595D01*
X63405261Y-145883357D01*
X63452880Y-145740500D01*
X63452880Y-145502404D01*
X62786214Y-146930976D02*
X63452880Y-146930976D01*
X62405261Y-146692880D02*
X63119547Y-146454785D01*
X63119547Y-147073833D01*
G04 #@! TO.C,D3*
X58690380Y-126452404D02*
X57690380Y-126452404D01*
X57690380Y-126690500D01*
X57738000Y-126833357D01*
X57833238Y-126928595D01*
X57928476Y-126976214D01*
X58118952Y-127023833D01*
X58261809Y-127023833D01*
X58452285Y-126976214D01*
X58547523Y-126928595D01*
X58642761Y-126833357D01*
X58690380Y-126690500D01*
X58690380Y-126452404D01*
X57690380Y-127357166D02*
X57690380Y-127976214D01*
X58071333Y-127642880D01*
X58071333Y-127785738D01*
X58118952Y-127880976D01*
X58166571Y-127928595D01*
X58261809Y-127976214D01*
X58499904Y-127976214D01*
X58595142Y-127928595D01*
X58642761Y-127880976D01*
X58690380Y-127785738D01*
X58690380Y-127500023D01*
X58642761Y-127404785D01*
X58595142Y-127357166D01*
G04 #@! TO.C,D2*
X56404380Y-106449904D02*
X55404380Y-106449904D01*
X55404380Y-106688000D01*
X55452000Y-106830857D01*
X55547238Y-106926095D01*
X55642476Y-106973714D01*
X55832952Y-107021333D01*
X55975809Y-107021333D01*
X56166285Y-106973714D01*
X56261523Y-106926095D01*
X56356761Y-106830857D01*
X56404380Y-106688000D01*
X56404380Y-106449904D01*
X55499619Y-107402285D02*
X55452000Y-107449904D01*
X55404380Y-107545142D01*
X55404380Y-107783238D01*
X55452000Y-107878476D01*
X55499619Y-107926095D01*
X55594857Y-107973714D01*
X55690095Y-107973714D01*
X55832952Y-107926095D01*
X56404380Y-107354666D01*
X56404380Y-107973714D01*
G04 #@! TO.C,D1*
X51578380Y-87653904D02*
X50578380Y-87653904D01*
X50578380Y-87892000D01*
X50626000Y-88034857D01*
X50721238Y-88130095D01*
X50816476Y-88177714D01*
X51006952Y-88225333D01*
X51149809Y-88225333D01*
X51340285Y-88177714D01*
X51435523Y-88130095D01*
X51530761Y-88034857D01*
X51578380Y-87892000D01*
X51578380Y-87653904D01*
X51578380Y-89177714D02*
X51578380Y-88606285D01*
X51578380Y-88892000D02*
X50578380Y-88892000D01*
X50721238Y-88796761D01*
X50816476Y-88701523D01*
X50864095Y-88606285D01*
G04 #@! TD*
M02*
