G04 #@! TF.GenerationSoftware,KiCad,Pcbnew,(5.1.5)-3*
G04 #@! TF.CreationDate,2020-05-26T07:58:25-06:00*
G04 #@! TF.ProjectId,keeb,6b656562-2e6b-4696-9361-645f70636258,rev?*
G04 #@! TF.SameCoordinates,Original*
G04 #@! TF.FileFunction,Copper,L1,Top*
G04 #@! TF.FilePolarity,Positive*
%FSLAX46Y46*%
G04 Gerber Fmt 4.6, Leading zero omitted, Abs format (unit mm)*
G04 Created by KiCad (PCBNEW (5.1.5)-3) date 2020-05-26 07:58:25*
%MOMM*%
%LPD*%
G04 APERTURE LIST*
G04 #@! TA.AperFunction,ComponentPad*
%ADD10C,3.500000*%
G04 #@! TD*
G04 #@! TA.AperFunction,ComponentPad*
%ADD11O,1.700000X1.700000*%
G04 #@! TD*
G04 #@! TA.AperFunction,ComponentPad*
%ADD12R,1.700000X1.700000*%
G04 #@! TD*
G04 #@! TA.AperFunction,ComponentPad*
%ADD13C,1.500000*%
G04 #@! TD*
G04 #@! TA.AperFunction,SMDPad,CuDef*
%ADD14R,1.550000X1.300000*%
G04 #@! TD*
G04 #@! TA.AperFunction,SMDPad,CuDef*
%ADD15C,0.150000*%
G04 #@! TD*
G04 #@! TA.AperFunction,SMDPad,CuDef*
%ADD16R,1.500000X5.080000*%
G04 #@! TD*
G04 #@! TA.AperFunction,SMDPad,CuDef*
%ADD17R,0.740000X2.400000*%
G04 #@! TD*
G04 #@! TA.AperFunction,ComponentPad*
%ADD18R,2.500000X1.500000*%
G04 #@! TD*
G04 #@! TA.AperFunction,ComponentPad*
%ADD19O,2.500000X1.500000*%
G04 #@! TD*
G04 #@! TA.AperFunction,ComponentPad*
%ADD20O,3.500000X2.200000*%
G04 #@! TD*
G04 #@! TA.AperFunction,ViaPad*
%ADD21C,0.450000*%
G04 #@! TD*
G04 #@! TA.AperFunction,ViaPad*
%ADD22C,0.800000*%
G04 #@! TD*
G04 #@! TA.AperFunction,ViaPad*
%ADD23C,0.600000*%
G04 #@! TD*
G04 #@! TA.AperFunction,ViaPad*
%ADD24C,1.016000*%
G04 #@! TD*
G04 #@! TA.AperFunction,Conductor*
%ADD25C,0.381000*%
G04 #@! TD*
G04 #@! TA.AperFunction,Conductor*
%ADD26C,0.250000*%
G04 #@! TD*
G04 #@! TA.AperFunction,Conductor*
%ADD27C,0.293370*%
G04 #@! TD*
G04 APERTURE END LIST*
D10*
G04 #@! TO.P,J6,*
G04 #@! TO.N,*
X102709000Y-67734000D03*
X79409000Y-67734000D03*
X79409000Y-43934000D03*
X102709000Y-43934000D03*
D11*
G04 #@! TO.P,J6,4*
G04 #@! TO.N,/MCU/SDA_MON*
X94869000Y-43434000D03*
G04 #@! TO.P,J6,3*
G04 #@! TO.N,/MCU/SCL_MON*
X92329000Y-43434000D03*
G04 #@! TO.P,J6,2*
G04 #@! TO.N,+3V3*
X89789000Y-43434000D03*
D12*
G04 #@! TO.P,J6,1*
G04 #@! TO.N,GND*
X87249000Y-43434000D03*
G04 #@! TD*
D10*
G04 #@! TO.P,J3,6*
G04 #@! TO.N,N/C*
X62052000Y-44196000D03*
G04 #@! TO.P,J3,5*
G04 #@! TO.N,Net-(J3-Pad5)*
X74092000Y-44196000D03*
D13*
G04 #@! TO.P,J3,4*
G04 #@! TO.N,GND*
X66822000Y-46906000D03*
G04 #@! TO.P,J3,3*
G04 #@! TO.N,/USB and Power Management/USB+*
X69322000Y-46906000D03*
G04 #@! TO.P,J3,2*
G04 #@! TO.N,/USB and Power Management/USB-*
X69322000Y-48906000D03*
G04 #@! TO.P,J3,1*
G04 #@! TO.N,Net-(FB1-Pad2)*
X66822000Y-48906000D03*
G04 #@! TD*
D14*
G04 #@! TO.P,SW70,2*
G04 #@! TO.N,+3V3*
X42507000Y-68108000D03*
X50457000Y-68108000D03*
G04 #@! TO.P,SW70,1*
G04 #@! TO.N,/MCU/BOOT0*
X42507000Y-72608000D03*
X50457000Y-72608000D03*
G04 #@! TD*
G04 #@! TO.P,SW1,2*
G04 #@! TO.N,/MCU/NRST*
X67221000Y-57876000D03*
X59271000Y-57876000D03*
G04 #@! TO.P,SW1,1*
G04 #@! TO.N,GND*
X67221000Y-53376000D03*
X59271000Y-53376000D03*
G04 #@! TD*
G04 #@! TA.AperFunction,SMDPad,CuDef*
D15*
G04 #@! TO.P,D70,2*
G04 #@! TO.N,+5V*
G36*
X76223691Y-47036053D02*
G01*
X76244926Y-47039203D01*
X76265750Y-47044419D01*
X76285962Y-47051651D01*
X76305368Y-47060830D01*
X76323781Y-47071866D01*
X76341024Y-47084654D01*
X76356930Y-47099070D01*
X76371346Y-47114976D01*
X76384134Y-47132219D01*
X76395170Y-47150632D01*
X76404349Y-47170038D01*
X76411581Y-47190250D01*
X76416797Y-47211074D01*
X76419947Y-47232309D01*
X76421000Y-47253750D01*
X76421000Y-47691250D01*
X76419947Y-47712691D01*
X76416797Y-47733926D01*
X76411581Y-47754750D01*
X76404349Y-47774962D01*
X76395170Y-47794368D01*
X76384134Y-47812781D01*
X76371346Y-47830024D01*
X76356930Y-47845930D01*
X76341024Y-47860346D01*
X76323781Y-47873134D01*
X76305368Y-47884170D01*
X76285962Y-47893349D01*
X76265750Y-47900581D01*
X76244926Y-47905797D01*
X76223691Y-47908947D01*
X76202250Y-47910000D01*
X75689750Y-47910000D01*
X75668309Y-47908947D01*
X75647074Y-47905797D01*
X75626250Y-47900581D01*
X75606038Y-47893349D01*
X75586632Y-47884170D01*
X75568219Y-47873134D01*
X75550976Y-47860346D01*
X75535070Y-47845930D01*
X75520654Y-47830024D01*
X75507866Y-47812781D01*
X75496830Y-47794368D01*
X75487651Y-47774962D01*
X75480419Y-47754750D01*
X75475203Y-47733926D01*
X75472053Y-47712691D01*
X75471000Y-47691250D01*
X75471000Y-47253750D01*
X75472053Y-47232309D01*
X75475203Y-47211074D01*
X75480419Y-47190250D01*
X75487651Y-47170038D01*
X75496830Y-47150632D01*
X75507866Y-47132219D01*
X75520654Y-47114976D01*
X75535070Y-47099070D01*
X75550976Y-47084654D01*
X75568219Y-47071866D01*
X75586632Y-47060830D01*
X75606038Y-47051651D01*
X75626250Y-47044419D01*
X75647074Y-47039203D01*
X75668309Y-47036053D01*
X75689750Y-47035000D01*
X76202250Y-47035000D01*
X76223691Y-47036053D01*
G37*
G04 #@! TD.AperFunction*
G04 #@! TA.AperFunction,SMDPad,CuDef*
G04 #@! TO.P,D70,1*
G04 #@! TO.N,Net-(D70-Pad1)*
G36*
X76223691Y-48611053D02*
G01*
X76244926Y-48614203D01*
X76265750Y-48619419D01*
X76285962Y-48626651D01*
X76305368Y-48635830D01*
X76323781Y-48646866D01*
X76341024Y-48659654D01*
X76356930Y-48674070D01*
X76371346Y-48689976D01*
X76384134Y-48707219D01*
X76395170Y-48725632D01*
X76404349Y-48745038D01*
X76411581Y-48765250D01*
X76416797Y-48786074D01*
X76419947Y-48807309D01*
X76421000Y-48828750D01*
X76421000Y-49266250D01*
X76419947Y-49287691D01*
X76416797Y-49308926D01*
X76411581Y-49329750D01*
X76404349Y-49349962D01*
X76395170Y-49369368D01*
X76384134Y-49387781D01*
X76371346Y-49405024D01*
X76356930Y-49420930D01*
X76341024Y-49435346D01*
X76323781Y-49448134D01*
X76305368Y-49459170D01*
X76285962Y-49468349D01*
X76265750Y-49475581D01*
X76244926Y-49480797D01*
X76223691Y-49483947D01*
X76202250Y-49485000D01*
X75689750Y-49485000D01*
X75668309Y-49483947D01*
X75647074Y-49480797D01*
X75626250Y-49475581D01*
X75606038Y-49468349D01*
X75586632Y-49459170D01*
X75568219Y-49448134D01*
X75550976Y-49435346D01*
X75535070Y-49420930D01*
X75520654Y-49405024D01*
X75507866Y-49387781D01*
X75496830Y-49369368D01*
X75487651Y-49349962D01*
X75480419Y-49329750D01*
X75475203Y-49308926D01*
X75472053Y-49287691D01*
X75471000Y-49266250D01*
X75471000Y-48828750D01*
X75472053Y-48807309D01*
X75475203Y-48786074D01*
X75480419Y-48765250D01*
X75487651Y-48745038D01*
X75496830Y-48725632D01*
X75507866Y-48707219D01*
X75520654Y-48689976D01*
X75535070Y-48674070D01*
X75550976Y-48659654D01*
X75568219Y-48646866D01*
X75586632Y-48635830D01*
X75606038Y-48626651D01*
X75626250Y-48619419D01*
X75647074Y-48614203D01*
X75668309Y-48611053D01*
X75689750Y-48610000D01*
X76202250Y-48610000D01*
X76223691Y-48611053D01*
G37*
G04 #@! TD.AperFunction*
G04 #@! TD*
D16*
G04 #@! TO.P,J2,2*
G04 #@! TO.N,GND*
X56828000Y-43942000D03*
X48328000Y-43942000D03*
G04 #@! TD*
D17*
G04 #@! TO.P,J1,10*
G04 #@! TO.N,/MCU/NRST*
X75438000Y-68154000D03*
G04 #@! TO.P,J1,9*
G04 #@! TO.N,GND*
X75438000Y-72054000D03*
G04 #@! TO.P,J1,8*
G04 #@! TO.N,Net-(J1-Pad8)*
X74168000Y-68154000D03*
G04 #@! TO.P,J1,7*
G04 #@! TO.N,Net-(J1-Pad7)*
X74168000Y-72054000D03*
G04 #@! TO.P,J1,6*
G04 #@! TO.N,/MCU/COL3*
X72898000Y-68154000D03*
G04 #@! TO.P,J1,5*
G04 #@! TO.N,GND*
X72898000Y-72054000D03*
G04 #@! TO.P,J1,4*
G04 #@! TO.N,/MCU/SWDCLK*
X71628000Y-68154000D03*
G04 #@! TO.P,J1,3*
G04 #@! TO.N,GND*
X71628000Y-72054000D03*
G04 #@! TO.P,J1,2*
G04 #@! TO.N,/MCU/SWDIO*
X70358000Y-68154000D03*
G04 #@! TO.P,J1,1*
G04 #@! TO.N,+3V3*
X70358000Y-72054000D03*
G04 #@! TD*
G04 #@! TA.AperFunction,SMDPad,CuDef*
D15*
G04 #@! TO.P,D71,1*
G04 #@! TO.N,Net-(D71-Pad1)*
G36*
X94511691Y-69388053D02*
G01*
X94532926Y-69391203D01*
X94553750Y-69396419D01*
X94573962Y-69403651D01*
X94593368Y-69412830D01*
X94611781Y-69423866D01*
X94629024Y-69436654D01*
X94644930Y-69451070D01*
X94659346Y-69466976D01*
X94672134Y-69484219D01*
X94683170Y-69502632D01*
X94692349Y-69522038D01*
X94699581Y-69542250D01*
X94704797Y-69563074D01*
X94707947Y-69584309D01*
X94709000Y-69605750D01*
X94709000Y-70043250D01*
X94707947Y-70064691D01*
X94704797Y-70085926D01*
X94699581Y-70106750D01*
X94692349Y-70126962D01*
X94683170Y-70146368D01*
X94672134Y-70164781D01*
X94659346Y-70182024D01*
X94644930Y-70197930D01*
X94629024Y-70212346D01*
X94611781Y-70225134D01*
X94593368Y-70236170D01*
X94573962Y-70245349D01*
X94553750Y-70252581D01*
X94532926Y-70257797D01*
X94511691Y-70260947D01*
X94490250Y-70262000D01*
X93977750Y-70262000D01*
X93956309Y-70260947D01*
X93935074Y-70257797D01*
X93914250Y-70252581D01*
X93894038Y-70245349D01*
X93874632Y-70236170D01*
X93856219Y-70225134D01*
X93838976Y-70212346D01*
X93823070Y-70197930D01*
X93808654Y-70182024D01*
X93795866Y-70164781D01*
X93784830Y-70146368D01*
X93775651Y-70126962D01*
X93768419Y-70106750D01*
X93763203Y-70085926D01*
X93760053Y-70064691D01*
X93759000Y-70043250D01*
X93759000Y-69605750D01*
X93760053Y-69584309D01*
X93763203Y-69563074D01*
X93768419Y-69542250D01*
X93775651Y-69522038D01*
X93784830Y-69502632D01*
X93795866Y-69484219D01*
X93808654Y-69466976D01*
X93823070Y-69451070D01*
X93838976Y-69436654D01*
X93856219Y-69423866D01*
X93874632Y-69412830D01*
X93894038Y-69403651D01*
X93914250Y-69396419D01*
X93935074Y-69391203D01*
X93956309Y-69388053D01*
X93977750Y-69387000D01*
X94490250Y-69387000D01*
X94511691Y-69388053D01*
G37*
G04 #@! TD.AperFunction*
G04 #@! TA.AperFunction,SMDPad,CuDef*
G04 #@! TO.P,D71,2*
G04 #@! TO.N,+BATT*
G36*
X94511691Y-70963053D02*
G01*
X94532926Y-70966203D01*
X94553750Y-70971419D01*
X94573962Y-70978651D01*
X94593368Y-70987830D01*
X94611781Y-70998866D01*
X94629024Y-71011654D01*
X94644930Y-71026070D01*
X94659346Y-71041976D01*
X94672134Y-71059219D01*
X94683170Y-71077632D01*
X94692349Y-71097038D01*
X94699581Y-71117250D01*
X94704797Y-71138074D01*
X94707947Y-71159309D01*
X94709000Y-71180750D01*
X94709000Y-71618250D01*
X94707947Y-71639691D01*
X94704797Y-71660926D01*
X94699581Y-71681750D01*
X94692349Y-71701962D01*
X94683170Y-71721368D01*
X94672134Y-71739781D01*
X94659346Y-71757024D01*
X94644930Y-71772930D01*
X94629024Y-71787346D01*
X94611781Y-71800134D01*
X94593368Y-71811170D01*
X94573962Y-71820349D01*
X94553750Y-71827581D01*
X94532926Y-71832797D01*
X94511691Y-71835947D01*
X94490250Y-71837000D01*
X93977750Y-71837000D01*
X93956309Y-71835947D01*
X93935074Y-71832797D01*
X93914250Y-71827581D01*
X93894038Y-71820349D01*
X93874632Y-71811170D01*
X93856219Y-71800134D01*
X93838976Y-71787346D01*
X93823070Y-71772930D01*
X93808654Y-71757024D01*
X93795866Y-71739781D01*
X93784830Y-71721368D01*
X93775651Y-71701962D01*
X93768419Y-71681750D01*
X93763203Y-71660926D01*
X93760053Y-71639691D01*
X93759000Y-71618250D01*
X93759000Y-71180750D01*
X93760053Y-71159309D01*
X93763203Y-71138074D01*
X93768419Y-71117250D01*
X93775651Y-71097038D01*
X93784830Y-71077632D01*
X93795866Y-71059219D01*
X93808654Y-71041976D01*
X93823070Y-71026070D01*
X93838976Y-71011654D01*
X93856219Y-70998866D01*
X93874632Y-70987830D01*
X93894038Y-70978651D01*
X93914250Y-70971419D01*
X93935074Y-70966203D01*
X93956309Y-70963053D01*
X93977750Y-70962000D01*
X94490250Y-70962000D01*
X94511691Y-70963053D01*
G37*
G04 #@! TD.AperFunction*
G04 #@! TD*
G04 #@! TA.AperFunction,SMDPad,CuDef*
G04 #@! TO.P,D72,2*
G04 #@! TO.N,+BATT*
G36*
X91971691Y-70963053D02*
G01*
X91992926Y-70966203D01*
X92013750Y-70971419D01*
X92033962Y-70978651D01*
X92053368Y-70987830D01*
X92071781Y-70998866D01*
X92089024Y-71011654D01*
X92104930Y-71026070D01*
X92119346Y-71041976D01*
X92132134Y-71059219D01*
X92143170Y-71077632D01*
X92152349Y-71097038D01*
X92159581Y-71117250D01*
X92164797Y-71138074D01*
X92167947Y-71159309D01*
X92169000Y-71180750D01*
X92169000Y-71618250D01*
X92167947Y-71639691D01*
X92164797Y-71660926D01*
X92159581Y-71681750D01*
X92152349Y-71701962D01*
X92143170Y-71721368D01*
X92132134Y-71739781D01*
X92119346Y-71757024D01*
X92104930Y-71772930D01*
X92089024Y-71787346D01*
X92071781Y-71800134D01*
X92053368Y-71811170D01*
X92033962Y-71820349D01*
X92013750Y-71827581D01*
X91992926Y-71832797D01*
X91971691Y-71835947D01*
X91950250Y-71837000D01*
X91437750Y-71837000D01*
X91416309Y-71835947D01*
X91395074Y-71832797D01*
X91374250Y-71827581D01*
X91354038Y-71820349D01*
X91334632Y-71811170D01*
X91316219Y-71800134D01*
X91298976Y-71787346D01*
X91283070Y-71772930D01*
X91268654Y-71757024D01*
X91255866Y-71739781D01*
X91244830Y-71721368D01*
X91235651Y-71701962D01*
X91228419Y-71681750D01*
X91223203Y-71660926D01*
X91220053Y-71639691D01*
X91219000Y-71618250D01*
X91219000Y-71180750D01*
X91220053Y-71159309D01*
X91223203Y-71138074D01*
X91228419Y-71117250D01*
X91235651Y-71097038D01*
X91244830Y-71077632D01*
X91255866Y-71059219D01*
X91268654Y-71041976D01*
X91283070Y-71026070D01*
X91298976Y-71011654D01*
X91316219Y-70998866D01*
X91334632Y-70987830D01*
X91354038Y-70978651D01*
X91374250Y-70971419D01*
X91395074Y-70966203D01*
X91416309Y-70963053D01*
X91437750Y-70962000D01*
X91950250Y-70962000D01*
X91971691Y-70963053D01*
G37*
G04 #@! TD.AperFunction*
G04 #@! TA.AperFunction,SMDPad,CuDef*
G04 #@! TO.P,D72,1*
G04 #@! TO.N,Net-(D72-Pad1)*
G36*
X91971691Y-69388053D02*
G01*
X91992926Y-69391203D01*
X92013750Y-69396419D01*
X92033962Y-69403651D01*
X92053368Y-69412830D01*
X92071781Y-69423866D01*
X92089024Y-69436654D01*
X92104930Y-69451070D01*
X92119346Y-69466976D01*
X92132134Y-69484219D01*
X92143170Y-69502632D01*
X92152349Y-69522038D01*
X92159581Y-69542250D01*
X92164797Y-69563074D01*
X92167947Y-69584309D01*
X92169000Y-69605750D01*
X92169000Y-70043250D01*
X92167947Y-70064691D01*
X92164797Y-70085926D01*
X92159581Y-70106750D01*
X92152349Y-70126962D01*
X92143170Y-70146368D01*
X92132134Y-70164781D01*
X92119346Y-70182024D01*
X92104930Y-70197930D01*
X92089024Y-70212346D01*
X92071781Y-70225134D01*
X92053368Y-70236170D01*
X92033962Y-70245349D01*
X92013750Y-70252581D01*
X91992926Y-70257797D01*
X91971691Y-70260947D01*
X91950250Y-70262000D01*
X91437750Y-70262000D01*
X91416309Y-70260947D01*
X91395074Y-70257797D01*
X91374250Y-70252581D01*
X91354038Y-70245349D01*
X91334632Y-70236170D01*
X91316219Y-70225134D01*
X91298976Y-70212346D01*
X91283070Y-70197930D01*
X91268654Y-70182024D01*
X91255866Y-70164781D01*
X91244830Y-70146368D01*
X91235651Y-70126962D01*
X91228419Y-70106750D01*
X91223203Y-70085926D01*
X91220053Y-70064691D01*
X91219000Y-70043250D01*
X91219000Y-69605750D01*
X91220053Y-69584309D01*
X91223203Y-69563074D01*
X91228419Y-69542250D01*
X91235651Y-69522038D01*
X91244830Y-69502632D01*
X91255866Y-69484219D01*
X91268654Y-69466976D01*
X91283070Y-69451070D01*
X91298976Y-69436654D01*
X91316219Y-69423866D01*
X91334632Y-69412830D01*
X91354038Y-69403651D01*
X91374250Y-69396419D01*
X91395074Y-69391203D01*
X91416309Y-69388053D01*
X91437750Y-69387000D01*
X91950250Y-69387000D01*
X91971691Y-69388053D01*
G37*
G04 #@! TD.AperFunction*
G04 #@! TD*
D18*
G04 #@! TO.P,SW71,1*
G04 #@! TO.N,Net-(R9-Pad2)*
X108458000Y-56642000D03*
D19*
G04 #@! TO.P,SW71,2*
G04 #@! TO.N,/USB and Power Management/SYS_OFF*
X108458000Y-54642000D03*
G04 #@! TO.P,SW71,3*
G04 #@! TO.N,GND*
X108458000Y-52642000D03*
D20*
G04 #@! TO.P,SW71,*
G04 #@! TO.N,*
X108458000Y-58742000D03*
X108458000Y-50542000D03*
G04 #@! TD*
D21*
G04 #@! TO.N,GND*
X53215000Y-56996000D03*
X54215000Y-56996000D03*
X54715000Y-57996000D03*
X53715000Y-57996000D03*
X54215000Y-58996000D03*
X53215000Y-58996000D03*
X82500000Y-72496000D03*
X81715000Y-71496000D03*
X81500000Y-72496000D03*
X82500000Y-71500000D03*
X92398000Y-52316000D03*
X92398000Y-53308000D03*
X92398000Y-54308000D03*
X93398000Y-52308000D03*
X93398000Y-53308000D03*
X93398000Y-54308000D03*
X57715000Y-70496000D03*
X56715000Y-70496000D03*
X55715000Y-70496000D03*
X54715000Y-70496000D03*
X57715000Y-69496000D03*
X56715000Y-69496000D03*
X55715000Y-69496000D03*
X54715000Y-69496000D03*
X57715000Y-68496000D03*
X56715000Y-68496000D03*
X55715000Y-68496000D03*
X54715000Y-68496000D03*
X57715000Y-67496000D03*
X56715000Y-67496000D03*
X55715000Y-67496000D03*
X54715000Y-67496000D03*
X53715000Y-70496000D03*
X53715000Y-69496000D03*
X53715000Y-68496000D03*
X53715000Y-67496000D03*
X57715000Y-66496000D03*
X56715000Y-66496000D03*
X55715000Y-66496000D03*
X54715000Y-66496000D03*
X53715000Y-66496000D03*
D22*
X42545000Y-58420000D03*
D21*
X93900000Y-63536000D03*
X92900000Y-62536000D03*
X92900000Y-63536000D03*
D22*
X42545000Y-55245000D03*
X46990000Y-55905000D03*
X45720000Y-44450000D03*
X59055000Y-45085000D03*
D23*
X49530000Y-50800000D03*
X50165000Y-50165000D03*
X56515000Y-49530000D03*
X55880000Y-53848000D03*
X50593233Y-58011229D03*
X58500000Y-60500000D03*
X62000000Y-58000000D03*
X58500000Y-56000000D03*
X60000000Y-55000000D03*
X69871571Y-57371571D03*
X65500000Y-53500000D03*
X67500000Y-45000000D03*
X69000000Y-45000000D03*
X73000000Y-51500000D03*
X62980999Y-64500000D03*
X63000000Y-71049000D03*
X63500000Y-73000000D03*
X47000000Y-66500000D03*
X71500000Y-73722978D03*
X73500000Y-70000000D03*
D22*
X77500000Y-73500000D03*
X89000000Y-72000000D03*
X88500000Y-73500000D03*
X86500000Y-73500000D03*
X88499976Y-71000000D03*
X100838000Y-62992000D03*
X91996040Y-56471000D03*
X89408000Y-52324000D03*
X70866000Y-92710000D03*
X81280000Y-92456000D03*
X115316000Y-92964000D03*
X126238000Y-92456000D03*
X171196000Y-92964000D03*
X181864000Y-92456000D03*
X225044000Y-92202000D03*
X232664000Y-92456000D03*
X265430000Y-92964000D03*
X272796000Y-91948000D03*
X317500000Y-91694000D03*
X317754000Y-89408000D03*
X319278000Y-148590000D03*
X322072000Y-148336000D03*
X272288000Y-148336000D03*
X269748000Y-148336000D03*
X221742000Y-148590000D03*
X217170000Y-148590000D03*
X176276000Y-147574000D03*
X173736000Y-148590000D03*
X123190000Y-146812000D03*
X78740000Y-146050000D03*
X67056000Y-147574000D03*
D23*
X92710000Y-68834000D03*
X48768000Y-71882000D03*
X52832000Y-74422000D03*
X60198000Y-64077000D03*
X89154000Y-66294000D03*
D24*
X102108000Y-52578000D03*
D23*
X98044000Y-54864000D03*
X44196000Y-68072000D03*
X95758000Y-52070000D03*
D22*
X115570000Y-148590000D03*
D23*
X50733992Y-61733992D03*
D22*
X88392000Y-58420946D03*
X91440000Y-58420946D03*
D23*
X95605600Y-61468000D03*
X55803800Y-59588400D03*
D22*
G04 #@! TO.N,+3V3*
X68326000Y-72136000D03*
D23*
X64000000Y-55000000D03*
X59500000Y-64585000D03*
X42500000Y-66000000D03*
D22*
X79500000Y-74000000D03*
X77500000Y-72000000D03*
X79500000Y-70500000D03*
X78500004Y-70500000D03*
X77500000Y-71000000D03*
X78500000Y-74500000D03*
D23*
X59690000Y-59944000D03*
X61976000Y-73152000D03*
X51098685Y-74168000D03*
X52070000Y-74168000D03*
X78994000Y-65024000D03*
X75889599Y-66344851D03*
X79756000Y-89662000D03*
X121412000Y-90932000D03*
X176530000Y-90424000D03*
X226314000Y-90170000D03*
X270256000Y-90424000D03*
X323596000Y-88900000D03*
X321310000Y-149606000D03*
X271526000Y-149860000D03*
X219202000Y-149860000D03*
X175768000Y-149352000D03*
X118110000Y-149352000D03*
X71882000Y-148844000D03*
X51857492Y-60610492D03*
X49303008Y-65559008D03*
X57000000Y-53500000D03*
G04 #@! TO.N,/MCU/ROW0*
X60960000Y-89662000D03*
X64008000Y-89662000D03*
G04 #@! TO.N,/MCU/ROW1*
X330454000Y-108458000D03*
X332232000Y-108458000D03*
G04 #@! TO.N,/MCU/ROW2*
X330454000Y-127508000D03*
X332486000Y-127508000D03*
G04 #@! TO.N,/MCU/ROW3*
X328422000Y-145542000D03*
X330200000Y-146558000D03*
D22*
G04 #@! TO.N,+5V*
X76708000Y-44196000D03*
D23*
G04 #@! TO.N,/MCU/SWDCLK*
X68834000Y-70358000D03*
G04 #@! TO.N,/MCU/SWDIO*
X68834000Y-69088000D03*
G04 #@! TO.N,+BATT*
X89408000Y-70866000D03*
X97028000Y-71882000D03*
G04 #@! TO.N,/MCU/COL0*
X64262000Y-83820000D03*
X67056000Y-94742000D03*
X71374000Y-114046000D03*
X74168000Y-133350000D03*
X67310000Y-155448000D03*
G04 #@! TO.N,/MCU/COL1*
X83312000Y-83566000D03*
X90932000Y-94996000D03*
X95504000Y-113792000D03*
X104902000Y-133096000D03*
X91948000Y-155448000D03*
G04 #@! TO.N,/MCU/COL2*
X101854000Y-82550000D03*
X109728000Y-94996000D03*
X112522000Y-113792000D03*
X116586000Y-120904000D03*
X123952000Y-132842000D03*
X119380000Y-155702000D03*
G04 #@! TO.N,/MCU/COL3*
X121158000Y-83058000D03*
X128778000Y-95250000D03*
X133858000Y-114046000D03*
X143256000Y-133096000D03*
D22*
X66802000Y-75677010D03*
D23*
G04 #@! TO.N,/MCU/COL4*
X140462000Y-82804000D03*
X147828000Y-95250000D03*
X152908000Y-114046000D03*
X162306000Y-133350000D03*
G04 #@! TO.N,/MCU/COL5*
X65729030Y-65558610D03*
X156210000Y-73152000D03*
X167132000Y-95250000D03*
X171958000Y-114046000D03*
X178054000Y-132588000D03*
X183642000Y-152400000D03*
G04 #@! TO.N,/MCU/COL6*
X65279020Y-64886872D03*
X173990000Y-72644000D03*
X185928000Y-94996000D03*
X190754000Y-114046000D03*
X199898000Y-133096000D03*
G04 #@! TO.N,/MCU/COL7*
X64829010Y-64216312D03*
X194564000Y-72389990D03*
X204978000Y-95250000D03*
X209804000Y-114046000D03*
X219202000Y-133096000D03*
G04 #@! TO.N,/MCU/COL8*
X64383688Y-63519733D03*
X213106012Y-71882000D03*
X219710000Y-94742000D03*
X228854000Y-113792000D03*
X238506000Y-133096000D03*
X252476000Y-151892000D03*
G04 #@! TO.N,/MCU/COL9*
X64058711Y-62788711D03*
X231139990Y-71628000D03*
X243078000Y-95250000D03*
X245872000Y-113792000D03*
X257556000Y-132842000D03*
X271526000Y-152146000D03*
G04 #@! TO.N,/MCU/COL10*
X62809213Y-63154325D03*
X249428000Y-71120000D03*
X260350000Y-95250000D03*
X264922000Y-113792000D03*
X276606000Y-132842000D03*
X290576000Y-151892000D03*
G04 #@! TO.N,/MCU/COL11*
X62800833Y-62278821D03*
X270510006Y-70866000D03*
X278892000Y-95250000D03*
X302514000Y-129794000D03*
X310134000Y-152146000D03*
X286003996Y-113538000D03*
G04 #@! TO.N,/MCU/COL12*
X62798086Y-61397684D03*
X289560000Y-70358000D03*
X298196000Y-95504000D03*
X314452000Y-114300000D03*
G04 #@! TO.N,/MCU/COL13*
X62779941Y-60531944D03*
X316230000Y-69850000D03*
X328422000Y-101346000D03*
X328422000Y-132842000D03*
X331216000Y-152908000D03*
G04 #@! TO.N,/MCU/COL14*
X62738000Y-59690000D03*
X343916000Y-68580000D03*
G04 #@! TO.N,/MCU/SPI_SCK*
X51054000Y-65024000D03*
X54905031Y-62738000D03*
G04 #@! TO.N,/MCU/SPI_NSS*
X52578000Y-63363010D03*
X56115423Y-62759238D03*
G04 #@! TO.N,/MCU/CE*
X52970955Y-62093010D03*
X56642000Y-62156963D03*
D22*
G04 #@! TO.N,/MCU/NRST*
X64008000Y-56642000D03*
X48006000Y-67564000D03*
G04 #@! TO.N,/MCU/BOOT0*
X50800000Y-76962000D03*
X44155028Y-69499982D03*
G04 #@! TO.N,Net-(D70-Pad1)*
X74676000Y-49276000D03*
D23*
G04 #@! TO.N,/USB and Power Management/TS*
X87584012Y-58150614D03*
X96350286Y-58118935D03*
G04 #@! TO.N,Net-(C20-Pad1)*
X92964000Y-56522990D03*
X95120237Y-56409553D03*
G04 #@! TO.N,Net-(D71-Pad1)*
X93218000Y-68183032D03*
G04 #@! TO.N,Net-(D72-Pad1)*
X91948000Y-68183032D03*
G04 #@! TO.N,/USB and Power Management/SYS_OFF*
X95360222Y-58520946D03*
G04 #@! TO.N,/MCU/~CE~*
X96774000Y-68326000D03*
X45000000Y-70666647D03*
G04 #@! TO.N,/MCU/EN2*
X96149000Y-67131354D03*
X46482000Y-68580000D03*
G04 #@! TO.N,/MCU/EN1*
X45734534Y-69338811D03*
X95250000Y-67379010D03*
G04 #@! TO.N,/MCU/SCL_MON*
X91440000Y-51816000D03*
X74676000Y-55118000D03*
X84004356Y-46447025D03*
X65682224Y-66594448D03*
X70612000Y-64398990D03*
G04 #@! TO.N,/MCU/SDA_MON*
X92954000Y-51308000D03*
X75692000Y-55118000D03*
X84074000Y-47244000D03*
X66040000Y-67310000D03*
X74929986Y-64516000D03*
G04 #@! TD*
D25*
G04 #@! TO.N,GND*
X48328000Y-43942000D02*
X46228000Y-43942000D01*
X46228000Y-43942000D02*
X45720000Y-44450000D01*
X56828000Y-43942000D02*
X57912000Y-43942000D01*
X57912000Y-43942000D02*
X59055000Y-45085000D01*
D26*
X59271000Y-54271000D02*
X60000000Y-55000000D01*
X59271000Y-53376000D02*
X59271000Y-54271000D01*
X67221000Y-53376000D02*
X65624000Y-53376000D01*
X65624000Y-53376000D02*
X65500000Y-53500000D01*
X71628000Y-72054000D02*
X71628000Y-73594978D01*
X71628000Y-73594978D02*
X71500000Y-73722978D01*
X72898000Y-72054000D02*
X72898000Y-70602000D01*
X72898000Y-70602000D02*
X73500000Y-70000000D01*
X73924264Y-70000000D02*
X73500000Y-70000000D01*
X74834000Y-70000000D02*
X73924264Y-70000000D01*
X75438000Y-70604000D02*
X74834000Y-70000000D01*
X75438000Y-72054000D02*
X75438000Y-70604000D01*
D25*
G04 #@! TO.N,+3V3*
X68408000Y-72054000D02*
X68326000Y-72136000D01*
X70358000Y-72054000D02*
X68408000Y-72054000D01*
D26*
X42507000Y-68108000D02*
X42507000Y-66007000D01*
X42507000Y-66007000D02*
X42500000Y-66000000D01*
X50457000Y-66713000D02*
X49303008Y-65559008D01*
X50457000Y-68108000D02*
X50457000Y-66713000D01*
G04 #@! TO.N,/MCU/ROW0*
X60960000Y-89662000D02*
X64008000Y-89662000D01*
G04 #@! TO.N,/MCU/ROW1*
X330454000Y-108458000D02*
X332232000Y-108458000D01*
G04 #@! TO.N,/MCU/ROW2*
X330454000Y-127508000D02*
X332486000Y-127508000D01*
G04 #@! TO.N,/MCU/ROW3*
X328422000Y-145542000D02*
X329184000Y-145542000D01*
X329184000Y-145542000D02*
X330200000Y-146558000D01*
D27*
G04 #@! TO.N,+5V*
X76708000Y-46931500D02*
X76708000Y-44196000D01*
X75692000Y-47472500D02*
X76167000Y-47472500D01*
X76167000Y-47472500D02*
X76708000Y-46931500D01*
D26*
G04 #@! TO.N,/MCU/SWDCLK*
X68834000Y-70316132D02*
X68834000Y-70358000D01*
X69300132Y-69850000D02*
X68834000Y-70316132D01*
X71382000Y-69850000D02*
X69300132Y-69850000D01*
X71628000Y-69604000D02*
X71382000Y-69850000D01*
X71628000Y-68154000D02*
X71628000Y-69604000D01*
G04 #@! TO.N,/MCU/SWDIO*
X68834000Y-69058000D02*
X68834000Y-69088000D01*
X69738000Y-68154000D02*
X68834000Y-69058000D01*
X70358000Y-68154000D02*
X69738000Y-68154000D01*
D27*
G04 #@! TO.N,+BATT*
X91694000Y-71399500D02*
X89941500Y-71399500D01*
X89941500Y-71399500D02*
X89408000Y-70866000D01*
X94716500Y-71882000D02*
X97028000Y-71882000D01*
X94234000Y-71399500D02*
X94716500Y-71882000D01*
D26*
G04 #@! TO.N,/MCU/COL0*
X64262000Y-83820000D02*
X67056000Y-86614000D01*
X67056000Y-86614000D02*
X67056000Y-94742000D01*
X71374000Y-114046000D02*
X71374000Y-130556000D01*
X71374000Y-130556000D02*
X74168000Y-133350000D01*
X75692000Y-147066000D02*
X67310000Y-155448000D01*
X74168000Y-133350000D02*
X75692000Y-134874000D01*
X75692000Y-134874000D02*
X75692000Y-147066000D01*
X67056000Y-94742000D02*
X71374000Y-99060000D01*
X71374000Y-99060000D02*
X71374000Y-114046000D01*
G04 #@! TO.N,/MCU/COL1*
X83312000Y-83566000D02*
X83312000Y-87376000D01*
X83312000Y-87376000D02*
X90932000Y-94996000D01*
X90932000Y-94996000D02*
X95504000Y-99568000D01*
X95504000Y-99568000D02*
X95504000Y-113792000D01*
X95504000Y-113792000D02*
X95504000Y-118364000D01*
X95504000Y-118364000D02*
X104902000Y-127762000D01*
X104902000Y-127762000D02*
X104902000Y-133096000D01*
X104902000Y-133520264D02*
X107442000Y-136060264D01*
X104902000Y-133096000D02*
X104902000Y-133520264D01*
X107442000Y-136060264D02*
X107442000Y-144526000D01*
X107442000Y-144526000D02*
X96520000Y-155448000D01*
X96520000Y-155448000D02*
X91948000Y-155448000D01*
G04 #@! TO.N,/MCU/COL2*
X101854000Y-82550000D02*
X109728000Y-90424000D01*
X109728000Y-90424000D02*
X109728000Y-94996000D01*
X109728000Y-94996000D02*
X112522000Y-97790000D01*
X112522000Y-97790000D02*
X112522000Y-113792000D01*
X116586000Y-120904000D02*
X116586000Y-125476000D01*
X116586000Y-125476000D02*
X123952000Y-132842000D01*
X126238000Y-148844000D02*
X119380000Y-155702000D01*
X123952000Y-132842000D02*
X126238000Y-135128000D01*
X126238000Y-135128000D02*
X126238000Y-148844000D01*
G04 #@! TO.N,/MCU/COL3*
X121158000Y-83058000D02*
X128778000Y-90678000D01*
X128778000Y-90678000D02*
X128778000Y-95250000D01*
X129343001Y-95815001D02*
X129343001Y-97593001D01*
X128778000Y-95250000D02*
X129343001Y-95815001D01*
X129343001Y-97593001D02*
X133858000Y-102108000D01*
X133858000Y-102108000D02*
X133858000Y-114046000D01*
X143256000Y-128778000D02*
X143256000Y-133096000D01*
X133858000Y-114046000D02*
X133858000Y-119380000D01*
X133858000Y-119380000D02*
X143256000Y-128778000D01*
X72201991Y-70300009D02*
X69956988Y-70300010D01*
X72898000Y-69604000D02*
X72201991Y-70300009D01*
X69956988Y-70300010D02*
X69273997Y-70983001D01*
X66802000Y-72586998D02*
X66802000Y-75111325D01*
X72898000Y-68154000D02*
X72898000Y-69604000D01*
X66802000Y-75111325D02*
X66802000Y-75677010D01*
X68405997Y-70983001D02*
X66802000Y-72586998D01*
X69273997Y-70983001D02*
X68405997Y-70983001D01*
G04 #@! TO.N,/MCU/COL4*
X140462000Y-82804000D02*
X147828000Y-90170000D01*
X147828000Y-90170000D02*
X147828000Y-95250000D01*
X147828000Y-95250000D02*
X152908000Y-100330000D01*
X152908000Y-100330000D02*
X152908000Y-114046000D01*
X152908000Y-114046000D02*
X152908000Y-119380000D01*
X152908000Y-119380000D02*
X162306000Y-128778000D01*
X162306000Y-128778000D02*
X162306000Y-133350000D01*
G04 #@! TO.N,/MCU/COL5*
X156634264Y-73152000D02*
X163576000Y-80093736D01*
X156210000Y-73152000D02*
X156634264Y-73152000D01*
X163576000Y-80093736D02*
X163576000Y-91694000D01*
X163576000Y-91694000D02*
X167132000Y-95250000D01*
X167132000Y-95250000D02*
X171958000Y-100076000D01*
X171958000Y-100076000D02*
X171958000Y-114046000D01*
X171958000Y-114046000D02*
X178054000Y-120142000D01*
X178054000Y-120142000D02*
X178054000Y-132588000D01*
X183642000Y-138684000D02*
X183642000Y-152400000D01*
X178054000Y-132588000D02*
X178054000Y-133096000D01*
X178054000Y-133096000D02*
X183642000Y-138684000D01*
X90051449Y-66103033D02*
X96046209Y-66103033D01*
X96046209Y-66103033D02*
X103095176Y-73152000D01*
X103095176Y-73152000D02*
X155785736Y-73152000D01*
X65729030Y-65558610D02*
X67513651Y-63773989D01*
X87722405Y-63773989D02*
X90051449Y-66103033D01*
X67513651Y-63773989D02*
X87722405Y-63773989D01*
X155785736Y-73152000D02*
X156210000Y-73152000D01*
G04 #@! TO.N,/MCU/COL6*
X174414264Y-72644000D02*
X182372000Y-80601736D01*
X173990000Y-72644000D02*
X174414264Y-72644000D01*
X182372000Y-80601736D02*
X182372000Y-91440000D01*
X182372000Y-91440000D02*
X185928000Y-94996000D01*
X185928000Y-94996000D02*
X190754000Y-99822000D01*
X190754000Y-99822000D02*
X190754000Y-114046000D01*
X190754000Y-114046000D02*
X195580000Y-118872000D01*
X195580000Y-118872000D02*
X195580000Y-128778000D01*
X195580000Y-128778000D02*
X199898000Y-133096000D01*
X66841914Y-63323978D02*
X87840923Y-63323978D01*
X65279020Y-64886872D02*
X66841914Y-63323978D01*
X87840923Y-63323978D02*
X90217967Y-65701022D01*
X90217967Y-65701022D02*
X105567742Y-65701022D01*
X105567742Y-65701022D02*
X112210721Y-72344001D01*
X112210721Y-72344001D02*
X173690001Y-72344001D01*
X173690001Y-72344001D02*
X173990000Y-72644000D01*
G04 #@! TO.N,/MCU/COL7*
X194564000Y-72389990D02*
X199644000Y-77469990D01*
X199644000Y-77469990D02*
X199644000Y-89916000D01*
X199644000Y-89916000D02*
X204978000Y-95250000D01*
X204978000Y-95250000D02*
X209804000Y-100076000D01*
X209804000Y-100076000D02*
X209804000Y-114046000D01*
X209804000Y-114046000D02*
X215392000Y-119634000D01*
X215392000Y-119634000D02*
X215392000Y-129286000D01*
X215392000Y-129286000D02*
X219202000Y-133096000D01*
X87959441Y-62873967D02*
X90384485Y-65299011D01*
X64829010Y-64216312D02*
X66171355Y-62873967D01*
X66171355Y-62873967D02*
X87959441Y-62873967D01*
X105802141Y-65299011D02*
X112233199Y-71730069D01*
X90384485Y-65299011D02*
X105802141Y-65299011D01*
X112233199Y-71730069D02*
X193904079Y-71730069D01*
X193904079Y-71730069D02*
X194264001Y-72089991D01*
X194264001Y-72089991D02*
X194564000Y-72389990D01*
G04 #@! TO.N,/MCU/COL8*
X213106012Y-71882000D02*
X219710000Y-78485988D01*
X219710000Y-78485988D02*
X219710000Y-94742000D01*
X227076000Y-112014000D02*
X228854000Y-113792000D01*
X220392001Y-95424001D02*
X221916001Y-95424001D01*
X225298000Y-98806000D02*
X225298000Y-102616000D01*
X227076000Y-104394000D02*
X227076000Y-112014000D01*
X225298000Y-102616000D02*
X227076000Y-104394000D01*
X219710000Y-94742000D02*
X220392001Y-95424001D01*
X221916001Y-95424001D02*
X225298000Y-98806000D01*
X228854000Y-113792000D02*
X228854000Y-117094000D01*
X228854000Y-117094000D02*
X238506000Y-126746000D01*
X238506000Y-126746000D02*
X238506000Y-133096000D01*
X238506000Y-133096000D02*
X238506000Y-137922000D01*
X238506000Y-137922000D02*
X252476000Y-151892000D01*
X212806013Y-71582001D02*
X213106012Y-71882000D01*
X90551003Y-64897000D02*
X106036540Y-64897000D01*
X65479465Y-62423956D02*
X88077959Y-62423956D01*
X112419599Y-71280059D02*
X212504071Y-71280059D01*
X212504071Y-71280059D02*
X212806013Y-71582001D01*
X64383688Y-63519733D02*
X65479465Y-62423956D01*
X106036540Y-64897000D02*
X112419599Y-71280059D01*
X88077959Y-62423956D02*
X90551003Y-64897000D01*
G04 #@! TO.N,/MCU/COL9*
X243078000Y-95250000D02*
X245872000Y-98044000D01*
X245872000Y-98044000D02*
X245872000Y-113792000D01*
X245872000Y-113792000D02*
X245872000Y-115316000D01*
X257556000Y-127000000D02*
X257556000Y-132842000D01*
X245872000Y-115316000D02*
X257556000Y-127000000D01*
X257556000Y-132842000D02*
X257556000Y-138176000D01*
X257556000Y-138176000D02*
X271526000Y-152146000D01*
X236220000Y-88392000D02*
X243078000Y-95250000D01*
X236220000Y-76708000D02*
X236220000Y-88392000D01*
X231139990Y-71628000D02*
X231140000Y-71628000D01*
X231140000Y-71628000D02*
X236220000Y-76708000D01*
X230839991Y-71328001D02*
X231139990Y-71628000D01*
X230342045Y-70830055D02*
X230839991Y-71328001D01*
X106270940Y-64494990D02*
X112606005Y-70830055D01*
X90783990Y-64494990D02*
X106270940Y-64494990D01*
X64873477Y-61973945D02*
X66164945Y-61973945D01*
X64058711Y-62788711D02*
X64873477Y-61973945D01*
X66164945Y-61973945D02*
X66167000Y-61976000D01*
X66167000Y-61976000D02*
X88265000Y-61976000D01*
X112606005Y-70830055D02*
X230342045Y-70830055D01*
X88265000Y-61976000D02*
X90783990Y-64494990D01*
G04 #@! TO.N,/MCU/COL10*
X249428000Y-71120000D02*
X254762000Y-76454000D01*
X254762000Y-76454000D02*
X254762000Y-89662000D01*
X254762000Y-89662000D02*
X260350000Y-95250000D01*
X260350000Y-95250000D02*
X264922000Y-99822000D01*
X264922000Y-99822000D02*
X264922000Y-113792000D01*
X276606000Y-127537498D02*
X276606000Y-132842000D01*
X264922000Y-113792000D02*
X264922000Y-115853498D01*
X264922000Y-115853498D02*
X276606000Y-127537498D01*
X276606000Y-132842000D02*
X276606000Y-137922000D01*
X276606000Y-137922000D02*
X290576000Y-151892000D01*
X248688039Y-70380039D02*
X249128001Y-70820001D01*
X112792399Y-70380039D02*
X248688039Y-70380039D01*
X65257538Y-60706000D02*
X103118360Y-60706000D01*
X62809213Y-63154325D02*
X65257538Y-60706000D01*
X103118360Y-60706000D02*
X112792399Y-70380039D01*
X249128001Y-70820001D02*
X249428000Y-71120000D01*
G04 #@! TO.N,/MCU/COL11*
X270510006Y-70866000D02*
X271018000Y-70866000D01*
X271018000Y-70866000D02*
X275844000Y-75692000D01*
X275844000Y-75692000D02*
X275844000Y-92202000D01*
X275844000Y-92202000D02*
X278892000Y-95250000D01*
X302514000Y-129794000D02*
X310134000Y-137414000D01*
X310134000Y-137414000D02*
X310134000Y-152146000D01*
X278892000Y-95250000D02*
X286003996Y-102361996D01*
X286003996Y-102361996D02*
X286003996Y-113113736D01*
X286258000Y-113538000D02*
X286003996Y-113538000D01*
X302514000Y-129794000D02*
X286258000Y-113538000D01*
X286003996Y-113113736D02*
X286003996Y-113538000D01*
X269574035Y-69930029D02*
X270210007Y-70566001D01*
X270210007Y-70566001D02*
X270510006Y-70866000D01*
X62800833Y-62278821D02*
X64775665Y-60303989D01*
X112978799Y-69930029D02*
X269574035Y-69930029D01*
X103352759Y-60303989D02*
X112978799Y-69930029D01*
X64775665Y-60303989D02*
X103352759Y-60303989D01*
G04 #@! TO.N,/MCU/COL12*
X294132000Y-91440000D02*
X298196000Y-95504000D01*
X289560000Y-70358000D02*
X294132000Y-74930000D01*
X294132000Y-74930000D02*
X294132000Y-91440000D01*
X298196000Y-95504000D02*
X299974000Y-95504000D01*
X299974000Y-95504000D02*
X308102000Y-103632000D01*
X308102000Y-103632000D02*
X308102000Y-107950000D01*
X308102000Y-107950000D02*
X314452000Y-114300000D01*
X113165199Y-69480019D02*
X288682019Y-69480019D01*
X62798086Y-61397684D02*
X64293792Y-59901978D01*
X64293792Y-59901978D02*
X103587158Y-59901978D01*
X103587158Y-59901978D02*
X113165199Y-69480019D01*
X289260001Y-70058001D02*
X289560000Y-70358000D01*
X288682019Y-69480019D02*
X289260001Y-70058001D01*
G04 #@! TO.N,/MCU/COL13*
X328422000Y-84074000D02*
X328422000Y-101346000D01*
X316230000Y-69850000D02*
X316230000Y-71882000D01*
X316230000Y-71882000D02*
X328422000Y-84074000D01*
X328422000Y-101346000D02*
X328422000Y-132842000D01*
X329368001Y-133788001D02*
X329368001Y-138106001D01*
X328422000Y-132842000D02*
X329368001Y-133788001D01*
X329368001Y-138106001D02*
X331216000Y-139954000D01*
X331216000Y-139954000D02*
X331216000Y-152908000D01*
X113351599Y-69030009D02*
X315410009Y-69030009D01*
X315930001Y-69550001D02*
X316230000Y-69850000D01*
X62779941Y-60531944D02*
X63811918Y-59499967D01*
X315410009Y-69030009D02*
X315930001Y-69550001D01*
X103821557Y-59499967D02*
X113351599Y-69030009D01*
X63811918Y-59499967D02*
X103821557Y-59499967D01*
G04 #@! TO.N,/MCU/COL14*
X63330044Y-59097956D02*
X104055956Y-59097956D01*
X113538000Y-68580000D02*
X343491736Y-68580000D01*
X343491736Y-68580000D02*
X343916000Y-68580000D01*
X62738000Y-59690000D02*
X63330044Y-59097956D01*
X104055956Y-59097956D02*
X113538000Y-68580000D01*
G04 #@! TO.N,/MCU/SPI_SCK*
X51054000Y-65024000D02*
X51054000Y-63560528D01*
X51054000Y-63560528D02*
X51876528Y-62738000D01*
X51876528Y-62738000D02*
X54480767Y-62738000D01*
X54480767Y-62738000D02*
X54905031Y-62738000D01*
G04 #@! TO.N,/MCU/SPI_NSS*
X55511651Y-63363010D02*
X56115423Y-62759238D01*
X52578000Y-63363010D02*
X55511651Y-63363010D01*
G04 #@! TO.N,/MCU/CE*
X52970955Y-62093010D02*
X56578047Y-62093010D01*
X56578047Y-62093010D02*
X56642000Y-62156963D01*
D25*
G04 #@! TO.N,/MCU/NRST*
X64008000Y-56642000D02*
X63807000Y-56642000D01*
D26*
X65242000Y-57876000D02*
X67221000Y-57876000D01*
X64008000Y-56642000D02*
X65242000Y-57876000D01*
X61849000Y-56515000D02*
X63881000Y-56515000D01*
X63881000Y-56515000D02*
X64008000Y-56642000D01*
X59271000Y-57876000D02*
X60488000Y-57876000D01*
X60488000Y-57876000D02*
X61849000Y-56515000D01*
X64728998Y-71628000D02*
X52070000Y-71628000D01*
X74520000Y-65786000D02*
X70570998Y-65786000D01*
X75438000Y-68154000D02*
X75438000Y-66704000D01*
X75438000Y-66704000D02*
X74520000Y-65786000D01*
X70570998Y-65786000D02*
X64728998Y-71628000D01*
X48405999Y-67963999D02*
X48006000Y-67564000D01*
X52070000Y-71628000D02*
X48405999Y-67963999D01*
X48006000Y-66040000D02*
X48006000Y-66998315D01*
X57404000Y-56642000D02*
X48006000Y-66040000D01*
X64008000Y-56642000D02*
X57404000Y-56642000D01*
X48006000Y-66998315D02*
X48006000Y-67564000D01*
D27*
G04 #@! TO.N,/MCU/BOOT0*
X50500000Y-72651000D02*
X50457000Y-72608000D01*
X50800000Y-76962000D02*
X50500000Y-76662000D01*
X50500000Y-76662000D02*
X50500000Y-72651000D01*
D26*
X42507000Y-72608000D02*
X42507000Y-71148010D01*
X43755029Y-69899981D02*
X44155028Y-69499982D01*
X42507000Y-71148010D02*
X43755029Y-69899981D01*
X50457000Y-71708000D02*
X50457000Y-72608000D01*
X50457000Y-71457000D02*
X50457000Y-71708000D01*
X47002999Y-68002999D02*
X50457000Y-71457000D01*
X44155028Y-69499982D02*
X45652011Y-68002999D01*
X45652011Y-68002999D02*
X47002999Y-68002999D01*
D27*
G04 #@! TO.N,Net-(D70-Pad1)*
X75241685Y-49276000D02*
X74676000Y-49276000D01*
X75463500Y-49276000D02*
X75241685Y-49276000D01*
X75692000Y-49047500D02*
X75463500Y-49276000D01*
G04 #@! TO.N,/USB and Power Management/TS*
X87884011Y-57850615D02*
X87584012Y-58150614D01*
X96350286Y-58118935D02*
X95953611Y-57722260D01*
X88012366Y-57722260D02*
X87884011Y-57850615D01*
X95953611Y-57722260D02*
X88012366Y-57722260D01*
D26*
G04 #@! TO.N,Net-(C20-Pad1)*
X92964000Y-56522990D02*
X95006800Y-56522990D01*
X95006800Y-56522990D02*
X95120237Y-56409553D01*
D27*
G04 #@! TO.N,Net-(D71-Pad1)*
X94234000Y-69199032D02*
X93517999Y-68483031D01*
X94234000Y-69824500D02*
X94234000Y-69199032D01*
X93517999Y-68483031D02*
X93218000Y-68183032D01*
G04 #@! TO.N,Net-(D72-Pad1)*
X91694000Y-68437032D02*
X91948000Y-68183032D01*
X91694000Y-69824500D02*
X91694000Y-68437032D01*
D26*
G04 #@! TO.N,/USB and Power Management/SYS_OFF*
X102904055Y-58695945D02*
X95959485Y-58695945D01*
X95959485Y-58695945D02*
X95784486Y-58520946D01*
X106958000Y-54642000D02*
X102904055Y-58695945D01*
X108458000Y-54642000D02*
X106958000Y-54642000D01*
X95784486Y-58520946D02*
X95360222Y-58520946D01*
G04 #@! TO.N,/MCU/~CE~*
X96774000Y-68326000D02*
X95250000Y-68326000D01*
X90893978Y-67606022D02*
X82000000Y-76500000D01*
X49597600Y-78936011D02*
X45000000Y-74338411D01*
X45000000Y-74338411D02*
X45000000Y-71090911D01*
X77089000Y-76500000D02*
X74652989Y-78936011D01*
X45000000Y-71090911D02*
X45000000Y-70666647D01*
X82000000Y-76500000D02*
X77089000Y-76500000D01*
X94530022Y-67606022D02*
X90893978Y-67606022D01*
X58166000Y-76962000D02*
X56191990Y-78936011D01*
X56191990Y-78936011D02*
X49597600Y-78936011D01*
X95250000Y-68326000D02*
X94530022Y-67606022D01*
X61664010Y-78936011D02*
X59690000Y-76962000D01*
X59690000Y-76962000D02*
X58166000Y-76962000D01*
X74652989Y-78936011D02*
X61664010Y-78936011D01*
G04 #@! TO.N,/MCU/EN2*
X46482000Y-69004264D02*
X46482000Y-68580000D01*
X46482000Y-74547590D02*
X46482000Y-69004264D01*
X49970400Y-78035990D02*
X46482000Y-74547590D01*
X57793199Y-76061980D02*
X55819189Y-78035990D01*
X55819189Y-78035990D02*
X49970400Y-78035990D01*
X96149000Y-67131354D02*
X95819646Y-66802000D01*
X74395482Y-78035990D02*
X62036810Y-78035990D01*
X62036810Y-78035990D02*
X60062800Y-76061979D01*
X60062800Y-76061979D02*
X57793199Y-76061980D01*
X95819646Y-66802000D02*
X89698000Y-66802000D01*
X89698000Y-66802000D02*
X81000000Y-75500000D01*
X81000000Y-75500000D02*
X76931472Y-75500000D01*
X76931472Y-75500000D02*
X74395482Y-78035990D01*
G04 #@! TO.N,/MCU/EN1*
X49784000Y-78486000D02*
X56005590Y-78486000D01*
X45734534Y-74436534D02*
X49784000Y-78486000D01*
X56005590Y-78486000D02*
X57979600Y-76511989D01*
X57979600Y-76511989D02*
X59876400Y-76511989D01*
X77000000Y-76000000D02*
X81429509Y-76000000D01*
X81429509Y-76000000D02*
X90225498Y-67204011D01*
X95075001Y-67204011D02*
X95250000Y-67379010D01*
X90225498Y-67204011D02*
X95075001Y-67204011D01*
X45734534Y-69338811D02*
X45734534Y-74436534D01*
X59876400Y-76511989D02*
X61850410Y-78486000D01*
X74514000Y-78486000D02*
X77000000Y-76000000D01*
X61850410Y-78486000D02*
X74514000Y-78486000D01*
G04 #@! TO.N,/MCU/SCL_MON*
X92329000Y-50927000D02*
X91440000Y-51816000D01*
X92329000Y-43434000D02*
X92329000Y-50927000D01*
X83346975Y-46447025D02*
X83580092Y-46447025D01*
X74676000Y-55118000D02*
X83346975Y-46447025D01*
X83580092Y-46447025D02*
X84004356Y-46447025D01*
X65982223Y-66294449D02*
X65682224Y-66594448D01*
X70612000Y-64398990D02*
X67877682Y-64398990D01*
X67877682Y-64398990D02*
X65982223Y-66294449D01*
G04 #@! TO.N,/MCU/SDA_MON*
X94869000Y-43434000D02*
X94869000Y-49393000D01*
X94869000Y-49393000D02*
X93253999Y-51008001D01*
X93253999Y-51008001D02*
X92954000Y-51308000D01*
X83566000Y-47244000D02*
X84074000Y-47244000D01*
X75692000Y-55118000D02*
X83566000Y-47244000D01*
X68326000Y-65024000D02*
X66339999Y-67010001D01*
X74929986Y-64516000D02*
X74421986Y-65024000D01*
X66339999Y-67010001D02*
X66040000Y-67310000D01*
X74421986Y-65024000D02*
X68326000Y-65024000D01*
G04 #@! TD*
M02*
