G04 #@! TF.GenerationSoftware,KiCad,Pcbnew,(5.1.5)-3*
G04 #@! TF.CreationDate,2020-05-26T07:58:25-06:00*
G04 #@! TF.ProjectId,keeb,6b656562-2e6b-4696-9361-645f70636258,rev?*
G04 #@! TF.SameCoordinates,Original*
G04 #@! TF.FileFunction,Legend,Top*
G04 #@! TF.FilePolarity,Positive*
%FSLAX46Y46*%
G04 Gerber Fmt 4.6, Leading zero omitted, Abs format (unit mm)*
G04 Created by KiCad (PCBNEW (5.1.5)-3) date 2020-05-26 07:58:25*
%MOMM*%
%LPD*%
G04 APERTURE LIST*
%ADD10C,0.120000*%
%ADD11C,0.254000*%
%ADD12C,0.150000*%
%ADD13C,0.127000*%
G04 APERTURE END LIST*
D10*
G04 #@! TO.C,J6*
X85919000Y-43434000D02*
X85919000Y-42104000D01*
X85919000Y-42104000D02*
X87249000Y-42104000D01*
X88519000Y-42104000D02*
X96199000Y-42104000D01*
X96199000Y-44764000D02*
X96199000Y-42104000D01*
X88519000Y-44764000D02*
X96199000Y-44764000D01*
X88519000Y-44764000D02*
X88519000Y-42104000D01*
D11*
G04 #@! TO.C,J3*
X66920000Y-51133000D02*
G75*
G03X66920000Y-51133000I-67000J0D01*
G01*
X62022000Y-50396000D02*
X62022000Y-46246000D01*
X74122000Y-50396000D02*
X74122000Y-46246000D01*
X74122000Y-50396000D02*
X62022000Y-50396000D01*
D10*
G04 #@! TO.C,SW70*
X43332000Y-71658000D02*
X43332000Y-69058000D01*
X49632000Y-66908000D02*
X49632000Y-67158000D01*
X43332000Y-66908000D02*
X49632000Y-66908000D01*
X43332000Y-67158000D02*
X43332000Y-66908000D01*
X49632000Y-69058000D02*
X49632000Y-71658000D01*
X43332000Y-73808000D02*
X43332000Y-73558000D01*
X49632000Y-73808000D02*
X43332000Y-73808000D01*
X49632000Y-73558000D02*
X49632000Y-73808000D01*
G04 #@! TO.C,SW1*
X66396000Y-54326000D02*
X66396000Y-56926000D01*
X60096000Y-59076000D02*
X60096000Y-58826000D01*
X66396000Y-59076000D02*
X60096000Y-59076000D01*
X66396000Y-58826000D02*
X66396000Y-59076000D01*
X60096000Y-56926000D02*
X60096000Y-54326000D01*
X66396000Y-52176000D02*
X66396000Y-52426000D01*
X60096000Y-52176000D02*
X66396000Y-52176000D01*
X60096000Y-52426000D02*
X60096000Y-52176000D01*
G04 #@! TO.C,D70*
X76681000Y-49745000D02*
X76681000Y-47460000D01*
X75211000Y-49745000D02*
X76681000Y-49745000D01*
X75211000Y-47460000D02*
X75211000Y-49745000D01*
G04 #@! TO.C,J1*
X76068000Y-68339000D02*
X76133000Y-68339000D01*
X76068000Y-71869000D02*
X76133000Y-71869000D01*
X69663000Y-68339000D02*
X69728000Y-68339000D01*
X69663000Y-71869000D02*
X69728000Y-71869000D01*
X69728000Y-73194000D02*
X69728000Y-71869000D01*
X76133000Y-71869000D02*
X76133000Y-68339000D01*
X69663000Y-71869000D02*
X69663000Y-68339000D01*
G04 #@! TO.C,D71*
X94969000Y-71412000D02*
X94969000Y-69127000D01*
X94969000Y-69127000D02*
X93499000Y-69127000D01*
X93499000Y-69127000D02*
X93499000Y-71412000D01*
G04 #@! TO.C,D72*
X90959000Y-69127000D02*
X90959000Y-71412000D01*
X92429000Y-69127000D02*
X90959000Y-69127000D01*
X92429000Y-71412000D02*
X92429000Y-69127000D01*
D12*
G04 #@! TO.C,SW71*
X106158000Y-58942000D02*
X106158000Y-50342000D01*
X110758000Y-58942000D02*
X110758000Y-56742000D01*
X110758000Y-52642000D02*
X110758000Y-50342000D01*
G04 #@! TO.C,H4*
X282981495Y-129391380D02*
X282981495Y-128391380D01*
X282981495Y-128867571D02*
X283552923Y-128867571D01*
X283552923Y-129391380D02*
X283552923Y-128391380D01*
X284457685Y-128724714D02*
X284457685Y-129391380D01*
X284219590Y-128343761D02*
X283981495Y-129058047D01*
X284600542Y-129058047D01*
G04 #@! TO.C,H3*
X141097095Y-154791380D02*
X141097095Y-153791380D01*
X141097095Y-154267571D02*
X141668523Y-154267571D01*
X141668523Y-154791380D02*
X141668523Y-153791380D01*
X142049476Y-153791380D02*
X142668523Y-153791380D01*
X142335190Y-154172333D01*
X142478047Y-154172333D01*
X142573285Y-154219952D01*
X142620904Y-154267571D01*
X142668523Y-154362809D01*
X142668523Y-154600904D01*
X142620904Y-154696142D01*
X142573285Y-154743761D01*
X142478047Y-154791380D01*
X142192333Y-154791380D01*
X142097095Y-154743761D01*
X142049476Y-154696142D01*
G04 #@! TO.C,H2*
X296265695Y-79674980D02*
X296265695Y-78674980D01*
X296265695Y-79151171D02*
X296837123Y-79151171D01*
X296837123Y-79674980D02*
X296837123Y-78674980D01*
X297265695Y-78770219D02*
X297313314Y-78722600D01*
X297408552Y-78674980D01*
X297646647Y-78674980D01*
X297741885Y-78722600D01*
X297789504Y-78770219D01*
X297837123Y-78865457D01*
X297837123Y-78960695D01*
X297789504Y-79103552D01*
X297218076Y-79674980D01*
X297837123Y-79674980D01*
G04 #@! TO.C,H1*
X75717495Y-118926580D02*
X75717495Y-117926580D01*
X75717495Y-118402771D02*
X76288923Y-118402771D01*
X76288923Y-118926580D02*
X76288923Y-117926580D01*
X77288923Y-118926580D02*
X76717495Y-118926580D01*
X77003209Y-118926580D02*
X77003209Y-117926580D01*
X76907971Y-118069438D01*
X76812733Y-118164676D01*
X76717495Y-118212295D01*
G04 #@! TO.C,SW70*
X45124857Y-74858571D02*
X45267714Y-74906190D01*
X45315333Y-74953809D01*
X45362952Y-75049047D01*
X45362952Y-75191904D01*
X45315333Y-75287142D01*
X45267714Y-75334761D01*
X45172476Y-75382380D01*
X44791523Y-75382380D01*
X44791523Y-74382380D01*
X45124857Y-74382380D01*
X45220095Y-74430000D01*
X45267714Y-74477619D01*
X45315333Y-74572857D01*
X45315333Y-74668095D01*
X45267714Y-74763333D01*
X45220095Y-74810952D01*
X45124857Y-74858571D01*
X44791523Y-74858571D01*
X45982000Y-74382380D02*
X46172476Y-74382380D01*
X46267714Y-74430000D01*
X46362952Y-74525238D01*
X46410571Y-74715714D01*
X46410571Y-75049047D01*
X46362952Y-75239523D01*
X46267714Y-75334761D01*
X46172476Y-75382380D01*
X45982000Y-75382380D01*
X45886761Y-75334761D01*
X45791523Y-75239523D01*
X45743904Y-75049047D01*
X45743904Y-74715714D01*
X45791523Y-74525238D01*
X45886761Y-74430000D01*
X45982000Y-74382380D01*
X47029619Y-74382380D02*
X47220095Y-74382380D01*
X47315333Y-74430000D01*
X47410571Y-74525238D01*
X47458190Y-74715714D01*
X47458190Y-75049047D01*
X47410571Y-75239523D01*
X47315333Y-75334761D01*
X47220095Y-75382380D01*
X47029619Y-75382380D01*
X46934380Y-75334761D01*
X46839142Y-75239523D01*
X46791523Y-75049047D01*
X46791523Y-74715714D01*
X46839142Y-74525238D01*
X46934380Y-74430000D01*
X47029619Y-74382380D01*
X47743904Y-74382380D02*
X48315333Y-74382380D01*
X48029619Y-75382380D02*
X48029619Y-74382380D01*
G04 #@! TO.C,SW1*
X67635619Y-56078380D02*
X67302285Y-55602190D01*
X67064190Y-56078380D02*
X67064190Y-55078380D01*
X67445142Y-55078380D01*
X67540380Y-55126000D01*
X67588000Y-55173619D01*
X67635619Y-55268857D01*
X67635619Y-55411714D01*
X67588000Y-55506952D01*
X67540380Y-55554571D01*
X67445142Y-55602190D01*
X67064190Y-55602190D01*
X68064190Y-55554571D02*
X68397523Y-55554571D01*
X68540380Y-56078380D02*
X68064190Y-56078380D01*
X68064190Y-55078380D01*
X68540380Y-55078380D01*
X68921333Y-56030761D02*
X69064190Y-56078380D01*
X69302285Y-56078380D01*
X69397523Y-56030761D01*
X69445142Y-55983142D01*
X69492761Y-55887904D01*
X69492761Y-55792666D01*
X69445142Y-55697428D01*
X69397523Y-55649809D01*
X69302285Y-55602190D01*
X69111809Y-55554571D01*
X69016571Y-55506952D01*
X68968952Y-55459333D01*
X68921333Y-55364095D01*
X68921333Y-55268857D01*
X68968952Y-55173619D01*
X69016571Y-55126000D01*
X69111809Y-55078380D01*
X69349904Y-55078380D01*
X69492761Y-55126000D01*
X69921333Y-55554571D02*
X70254666Y-55554571D01*
X70397523Y-56078380D02*
X69921333Y-56078380D01*
X69921333Y-55078380D01*
X70397523Y-55078380D01*
X70683238Y-55078380D02*
X71254666Y-55078380D01*
X70968952Y-56078380D02*
X70968952Y-55078380D01*
G04 #@! TO.C,D70*
X73898285Y-51633428D02*
X74660190Y-51633428D01*
X74279238Y-52014380D02*
X74279238Y-51252476D01*
X75612571Y-51014380D02*
X75136380Y-51014380D01*
X75088761Y-51490571D01*
X75136380Y-51442952D01*
X75231619Y-51395333D01*
X75469714Y-51395333D01*
X75564952Y-51442952D01*
X75612571Y-51490571D01*
X75660190Y-51585809D01*
X75660190Y-51823904D01*
X75612571Y-51919142D01*
X75564952Y-51966761D01*
X75469714Y-52014380D01*
X75231619Y-52014380D01*
X75136380Y-51966761D01*
X75088761Y-51919142D01*
X75945904Y-51014380D02*
X76279238Y-52014380D01*
X76612571Y-51014380D01*
X72366476Y-53538380D02*
X72366476Y-52538380D01*
X72747428Y-52538380D01*
X72842666Y-52586000D01*
X72890285Y-52633619D01*
X72937904Y-52728857D01*
X72937904Y-52871714D01*
X72890285Y-52966952D01*
X72842666Y-53014571D01*
X72747428Y-53062190D01*
X72366476Y-53062190D01*
X73556952Y-52538380D02*
X73747428Y-52538380D01*
X73842666Y-52586000D01*
X73937904Y-52681238D01*
X73985523Y-52871714D01*
X73985523Y-53205047D01*
X73937904Y-53395523D01*
X73842666Y-53490761D01*
X73747428Y-53538380D01*
X73556952Y-53538380D01*
X73461714Y-53490761D01*
X73366476Y-53395523D01*
X73318857Y-53205047D01*
X73318857Y-52871714D01*
X73366476Y-52681238D01*
X73461714Y-52586000D01*
X73556952Y-52538380D01*
X74318857Y-52538380D02*
X74556952Y-53538380D01*
X74747428Y-52824095D01*
X74937904Y-53538380D01*
X75176000Y-52538380D01*
X75556952Y-53014571D02*
X75890285Y-53014571D01*
X76033142Y-53538380D02*
X75556952Y-53538380D01*
X75556952Y-52538380D01*
X76033142Y-52538380D01*
X77033142Y-53538380D02*
X76699809Y-53062190D01*
X76461714Y-53538380D02*
X76461714Y-52538380D01*
X76842666Y-52538380D01*
X76937904Y-52586000D01*
X76985523Y-52633619D01*
X77033142Y-52728857D01*
X77033142Y-52871714D01*
X76985523Y-52966952D01*
X76937904Y-53014571D01*
X76842666Y-53062190D01*
X76461714Y-53062190D01*
G04 #@! TO.C,J1*
X71642857Y-65404761D02*
X71785714Y-65452380D01*
X72023809Y-65452380D01*
X72119047Y-65404761D01*
X72166666Y-65357142D01*
X72214285Y-65261904D01*
X72214285Y-65166666D01*
X72166666Y-65071428D01*
X72119047Y-65023809D01*
X72023809Y-64976190D01*
X71833333Y-64928571D01*
X71738095Y-64880952D01*
X71690476Y-64833333D01*
X71642857Y-64738095D01*
X71642857Y-64642857D01*
X71690476Y-64547619D01*
X71738095Y-64500000D01*
X71833333Y-64452380D01*
X72071428Y-64452380D01*
X72214285Y-64500000D01*
X72547619Y-64452380D02*
X72785714Y-65452380D01*
X72976190Y-64738095D01*
X73166666Y-65452380D01*
X73404761Y-64452380D01*
X73785714Y-65452380D02*
X73785714Y-64452380D01*
X74023809Y-64452380D01*
X74166666Y-64500000D01*
X74261904Y-64595238D01*
X74309523Y-64690476D01*
X74357142Y-64880952D01*
X74357142Y-65023809D01*
X74309523Y-65214285D01*
X74261904Y-65309523D01*
X74166666Y-65404761D01*
X74023809Y-65452380D01*
X73785714Y-65452380D01*
X69699142Y-73660000D02*
X69746761Y-73612380D01*
X69794380Y-73660000D01*
X69746761Y-73707619D01*
X69699142Y-73660000D01*
X69794380Y-73660000D01*
G04 #@! TO.C,D71*
D13*
X95310476Y-70518261D02*
X95522142Y-71153261D01*
X95733809Y-70518261D01*
X95915238Y-70971833D02*
X96217619Y-70971833D01*
X95854761Y-71153261D02*
X96066428Y-70518261D01*
X96278095Y-71153261D01*
X96792142Y-71153261D02*
X96489761Y-71153261D01*
X96489761Y-70518261D01*
X97003809Y-71153261D02*
X97003809Y-70518261D01*
X97306190Y-71153261D02*
X97306190Y-70518261D01*
X97457380Y-70518261D01*
X97548095Y-70548500D01*
X97608571Y-70608976D01*
X97638809Y-70669452D01*
X97669047Y-70790404D01*
X97669047Y-70881119D01*
X97638809Y-71002071D01*
X97608571Y-71062547D01*
X97548095Y-71123023D01*
X97457380Y-71153261D01*
X97306190Y-71153261D01*
X95295357Y-70137261D02*
X95295357Y-69502261D01*
X95597738Y-70137261D02*
X95597738Y-69502261D01*
X95960595Y-70137261D01*
X95960595Y-69502261D01*
X96262976Y-70137261D02*
X96262976Y-69502261D01*
X96504880Y-69502261D01*
X96565357Y-69532500D01*
X96595595Y-69562738D01*
X96625833Y-69623214D01*
X96625833Y-69713928D01*
X96595595Y-69774404D01*
X96565357Y-69804642D01*
X96504880Y-69834880D01*
X96262976Y-69834880D01*
X96897976Y-69502261D02*
X96897976Y-70016309D01*
X96928214Y-70076785D01*
X96958452Y-70107023D01*
X97018928Y-70137261D01*
X97139880Y-70137261D01*
X97200357Y-70107023D01*
X97230595Y-70076785D01*
X97260833Y-70016309D01*
X97260833Y-69502261D01*
X97472500Y-69502261D02*
X97835357Y-69502261D01*
X97653928Y-70137261D02*
X97653928Y-69502261D01*
G04 #@! TO.C,D72*
X86547476Y-69822785D02*
X86517238Y-69853023D01*
X86426523Y-69883261D01*
X86366047Y-69883261D01*
X86275333Y-69853023D01*
X86214857Y-69792547D01*
X86184619Y-69732071D01*
X86154380Y-69611119D01*
X86154380Y-69520404D01*
X86184619Y-69399452D01*
X86214857Y-69338976D01*
X86275333Y-69278500D01*
X86366047Y-69248261D01*
X86426523Y-69248261D01*
X86517238Y-69278500D01*
X86547476Y-69308738D01*
X86819619Y-69883261D02*
X86819619Y-69248261D01*
X86819619Y-69550642D02*
X87182476Y-69550642D01*
X87182476Y-69883261D02*
X87182476Y-69248261D01*
X87454619Y-69701833D02*
X87757000Y-69701833D01*
X87394142Y-69883261D02*
X87605809Y-69248261D01*
X87817476Y-69883261D01*
X88392000Y-69883261D02*
X88180333Y-69580880D01*
X88029142Y-69883261D02*
X88029142Y-69248261D01*
X88271047Y-69248261D01*
X88331523Y-69278500D01*
X88361761Y-69308738D01*
X88392000Y-69369214D01*
X88392000Y-69459928D01*
X88361761Y-69520404D01*
X88331523Y-69550642D01*
X88271047Y-69580880D01*
X88029142Y-69580880D01*
X88996761Y-69278500D02*
X88936285Y-69248261D01*
X88845571Y-69248261D01*
X88754857Y-69278500D01*
X88694380Y-69338976D01*
X88664142Y-69399452D01*
X88633904Y-69520404D01*
X88633904Y-69611119D01*
X88664142Y-69732071D01*
X88694380Y-69792547D01*
X88754857Y-69853023D01*
X88845571Y-69883261D01*
X88906047Y-69883261D01*
X88996761Y-69853023D01*
X89027000Y-69822785D01*
X89027000Y-69611119D01*
X88906047Y-69611119D01*
X89299142Y-69883261D02*
X89299142Y-69248261D01*
X89601523Y-69883261D02*
X89601523Y-69248261D01*
X89964380Y-69883261D01*
X89964380Y-69248261D01*
X90599380Y-69278500D02*
X90538904Y-69248261D01*
X90448190Y-69248261D01*
X90357476Y-69278500D01*
X90297000Y-69338976D01*
X90266761Y-69399452D01*
X90236523Y-69520404D01*
X90236523Y-69611119D01*
X90266761Y-69732071D01*
X90297000Y-69792547D01*
X90357476Y-69853023D01*
X90448190Y-69883261D01*
X90508666Y-69883261D01*
X90599380Y-69853023D01*
X90629619Y-69822785D01*
X90629619Y-69611119D01*
X90508666Y-69611119D01*
G04 #@! TO.C,SW71*
D12*
X108164380Y-48117047D02*
X108164380Y-47926571D01*
X108212000Y-47831333D01*
X108307238Y-47736095D01*
X108497714Y-47688476D01*
X108831047Y-47688476D01*
X109021523Y-47736095D01*
X109116761Y-47831333D01*
X109164380Y-47926571D01*
X109164380Y-48117047D01*
X109116761Y-48212285D01*
X109021523Y-48307523D01*
X108831047Y-48355142D01*
X108497714Y-48355142D01*
X108307238Y-48307523D01*
X108212000Y-48212285D01*
X108164380Y-48117047D01*
X109164380Y-47259904D02*
X108164380Y-47259904D01*
X109164380Y-46688476D01*
X108164380Y-46688476D01*
X107910380Y-63182380D02*
X107910380Y-62991904D01*
X107958000Y-62896666D01*
X108053238Y-62801428D01*
X108243714Y-62753809D01*
X108577047Y-62753809D01*
X108767523Y-62801428D01*
X108862761Y-62896666D01*
X108910380Y-62991904D01*
X108910380Y-63182380D01*
X108862761Y-63277619D01*
X108767523Y-63372857D01*
X108577047Y-63420476D01*
X108243714Y-63420476D01*
X108053238Y-63372857D01*
X107958000Y-63277619D01*
X107910380Y-63182380D01*
X108386571Y-61991904D02*
X108386571Y-62325238D01*
X108910380Y-62325238D02*
X107910380Y-62325238D01*
X107910380Y-61849047D01*
X108386571Y-61134761D02*
X108386571Y-61468095D01*
X108910380Y-61468095D02*
X107910380Y-61468095D01*
X107910380Y-60991904D01*
G04 #@! TD*
M02*
